<svg width="70" height="71" viewBox="0 0 70 71" fill="none" xmlns="http://www.w3.org/2000/svg">
<path d="M52.5 16.0774V40.435L52.2266 40.6109L44.0683 11.8125H48.2351C48.4514 12.8623 48.9707 13.8258 49.7287 14.5838C50.4867 15.3418 51.4501 15.8611 52.5 16.0774ZM43.4485 9.62496H49.2188C49.5088 9.62496 49.787 9.7402 49.9921 9.94531C50.1973 10.1504 50.3125 10.4286 50.3125 10.7187C50.3134 11.5887 50.6595 12.4227 51.2746 13.0379C51.8898 13.653 52.7238 13.999 53.5938 14C53.8838 14 54.162 14.1152 54.3671 14.3203C54.5723 14.5254 54.6875 14.8036 54.6875 15.0937V39.028L59.0625 36.214V10.7187C59.062 9.26847 58.4856 7.87778 57.4602 6.8523C56.4347 5.82682 55.044 5.25049 53.5938 5.24996H42.0984C42.2818 5.63376 42.4319 6.03263 42.5469 6.44215L43.4485 9.62496ZM12.6328 37.3078L18.1971 40.8834L12.1712 19.5931C12.0923 19.314 12.1274 19.0149 12.2689 18.7616C12.4104 18.5084 12.6467 18.3216 12.9258 18.2425C13.7626 18.0047 14.4709 17.4446 14.8952 16.6852C15.3195 15.9257 15.4252 15.029 15.1891 14.1917C15.1102 13.9125 15.1454 13.6134 15.2869 13.3602C15.4284 13.1069 15.6647 12.9202 15.9438 12.8411L30.6779 8.67114C30.8162 8.63203 30.9608 8.62055 31.1035 8.63734C31.2462 8.65412 31.3842 8.69886 31.5096 8.76898C31.635 8.8391 31.7454 8.93324 31.8344 9.04603C31.9235 9.15881 31.9894 9.28802 32.0285 9.42629C32.1457 9.84095 32.3434 10.2284 32.6104 10.5666C32.8774 10.9048 33.2085 11.187 33.5846 11.3972C33.9608 11.6074 34.3747 11.7413 34.8027 11.7914C35.2306 11.8415 35.6643 11.8067 36.0788 11.6891C36.358 11.6102 36.6571 11.6453 36.9103 11.7868C37.1636 11.9283 37.3503 12.1646 37.4294 12.4437L46.4508 44.3173L50.2906 41.8468L40.4469 7.04371C40.051 5.64933 39.1181 4.46895 37.8529 3.76153C36.5878 3.05411 35.0937 2.87744 33.6984 3.27027L10.5438 9.82184C9.14935 10.2177 7.96895 11.1506 7.26153 12.4158C6.55411 13.6809 6.37745 15.175 6.77031 16.5703L12.6328 37.3078ZM31.0516 38.1172C32.4468 37.7225 33.6281 36.7899 34.3357 35.5243C35.0434 34.2588 35.2194 32.764 34.825 31.3687C34.6304 30.6774 34.3014 30.0312 33.8567 29.4672C33.4121 28.9032 32.8605 28.4324 32.2336 28.0819C31.6068 27.7314 30.9169 27.508 30.2036 27.4245C29.4902 27.341 28.7674 27.399 28.0766 27.5953C26.6816 27.9901 25.5007 28.9228 24.7933 30.1882C24.086 31.4537 23.9102 32.9483 24.3046 34.3433C24.6991 35.7383 25.6314 36.9196 26.8967 37.6273C28.1619 38.335 29.6564 38.5112 31.0516 38.1172ZM16.8109 17.7515C17.3306 16.8146 17.5662 15.7467 17.4891 14.6781L30.3297 11.0468C30.8202 12.0003 31.5811 12.7879 32.5172 13.3109C33.4541 13.8305 34.522 14.0661 35.5906 13.989L44.5266 45.5547L39.4953 48.7922L37.6031 47.5781C36.8234 47.0877 35.9211 46.8275 35 46.8275C34.0789 46.8275 33.1766 47.0877 32.3969 47.5781L30.5047 48.7922L20.9781 42.6672L14.5469 19.95C15.4986 19.452 16.2852 18.6882 16.8109 17.7515ZM22.2031 34.9453C22.6146 36.4039 23.4496 37.7077 24.6022 38.6917C25.7549 39.6757 27.1736 40.2957 28.6788 40.4732C30.1839 40.6507 31.7079 40.3777 33.0578 39.6889C34.4078 39 35.5231 37.9262 36.2627 36.6033C37.0022 35.2804 37.3327 33.7679 37.2124 32.2571C37.0921 30.7463 36.5264 29.3052 35.5868 28.116C34.6472 26.9268 33.376 26.0431 31.934 25.5766C30.492 25.1101 28.944 25.0818 27.4859 25.4953C26.5177 25.7675 25.6127 26.2281 24.8228 26.8507C24.0329 27.4734 23.3737 28.2458 22.8829 29.1237C22.3921 30.0016 22.0795 30.9677 21.9628 31.9667C21.8462 32.9657 21.9278 33.9779 22.2031 34.9453ZM67.5574 33.3579L41.519 50.0931L66.8137 66.3511C67.4625 65.4354 67.8115 64.341 67.8125 63.2187V34.982C67.8097 34.4309 67.7237 33.8834 67.5574 33.3579ZM7.84219 28.3718L4.70313 30.3843C4.25346 30.6744 3.84821 31.0281 3.5 31.4343L9.86563 35.525L7.84219 28.3718ZM65.2969 30.3843L61.25 27.7812V34.814L66.5 31.4343C66.1514 31.0284 65.7462 30.6748 65.2969 30.3843ZM33.5751 49.4192L4.84978 67.8875C5.69434 68.4062 6.66515 68.6829 7.65625 68.6875H62.3438C63.3366 68.683 64.309 68.4054 65.1546 67.8851L36.4211 49.4171C35.9945 49.1499 35.5012 49.0084 34.9978 49.0088C34.4944 49.0092 34.0014 49.1514 33.5751 49.4192ZM2.44385 33.354C2.27675 33.8806 2.19032 34.4295 2.1875 34.982V63.2187C2.1886 64.3424 2.53849 65.438 3.18886 66.3542L28.4814 50.0935L2.44385 33.354Z" fill="#2884CA"/>
</svg>
