<svg width="71" height="71" viewBox="0 0 71 71" fill="none" xmlns="http://www.w3.org/2000/svg">
<path d="M15.82 54.495H62.1435C63.8523 54.495 65.2318 53.1156 65.2318 51.4068V6.11265C65.2318 4.40383 63.8523 3.02441 62.1435 3.02441H15.82C10.1376 3.02441 5.52588 7.63618 5.52588 13.3185V58.6127C5.52588 64.295 10.1376 68.9068 15.82 68.9068H62.1435C63.8523 68.9068 65.2318 67.5274 65.2318 65.8185C65.2318 64.1097 63.8523 62.7303 62.1435 62.7303H15.82C13.5553 62.7303 11.7023 60.8774 11.7023 58.6127C11.7023 56.3479 13.5553 54.495 15.82 54.495ZM37.5612 44.3244C36.9847 44.9009 36.1818 45.2303 35.3788 45.2303C34.5759 45.2303 33.7729 44.9009 33.1965 44.3244C32.62 43.7479 32.2906 42.9656 32.2906 42.1421C32.2906 41.3391 32.62 40.5362 33.1965 39.9597C34.3494 38.8068 36.4082 38.8068 37.5612 39.9597C38.1376 40.5362 38.4671 41.3391 38.4671 42.1421C38.4671 42.9656 38.1376 43.7479 37.5612 44.3244ZM29.4288 14.4509C31.5288 12.7009 34.3082 11.9597 37.0259 12.4332C40.7729 13.0921 43.8406 16.1597 44.4994 19.9068C45.1788 23.8391 43.3259 27.7509 39.8465 29.6656C39.0023 30.1391 38.4671 31.1891 38.4671 32.3832V32.8774C38.4671 34.5862 37.0876 35.9656 35.3788 35.9656C33.67 35.9656 32.2906 34.5862 32.2906 32.8774V32.3832C32.2906 28.9244 34.0406 25.8156 36.8612 24.2715C37.7671 23.7774 38.6935 22.6038 38.4053 20.9774C38.1994 19.7626 37.17 18.7332 35.9759 18.5274C35.0082 18.3421 34.1023 18.5891 33.4023 19.1862C32.7023 19.7832 32.2906 20.6479 32.2906 21.5538C32.2906 23.2626 30.9112 24.6421 29.2023 24.6421C27.4935 24.6421 26.1141 23.2626 26.1141 21.5538C26.1141 18.8156 27.3288 16.2215 29.4288 14.4509Z" fill="#2884CA"/>
</svg>
