<svg width="71" height="71" viewBox="0 0 71 71" fill="none" xmlns="http://www.w3.org/2000/svg">
<g clip-path="url(#clip0_58_15220)">
<path d="M41.5656 15.6788C43.1128 14.1167 44.0704 11.9693 44.0704 9.60184C44.0704 4.83719 40.1943 0.960938 35.4298 0.960938C30.6653 0.960938 26.7892 4.83719 26.7892 9.60184C26.7892 11.9693 27.7467 14.1167 29.294 15.6788C25.7683 17.5683 23.2088 21.0328 22.5591 25.1252H48.3005C47.6508 21.0328 45.0913 17.5684 41.5656 15.6788Z" fill="#2884CA"/>
<path d="M63.532 57.4138C65.0791 55.8516 66.0365 53.7044 66.0365 51.3373C66.0365 46.5729 62.1603 42.6969 57.3959 42.6969C52.6315 42.6969 48.7553 46.573 48.7553 51.3373C48.7553 53.7045 49.7127 55.8517 51.2598 57.4137C49.2867 58.4711 47.6157 60.0209 46.4127 61.8988C45.2097 60.0211 43.5386 58.4712 41.5656 57.4138C43.1127 55.8516 44.0703 53.7044 44.0703 51.3373C44.0703 46.5729 40.1941 42.6969 35.4297 42.6969C30.6653 42.6969 26.7891 46.573 26.7891 51.3373C26.7891 53.7045 27.7466 55.8517 29.2937 57.4138C27.3206 58.4711 25.6496 60.0209 24.4467 61.8988C23.2437 60.0211 21.5726 58.4712 19.5996 57.4137C21.1467 55.8516 22.1041 53.7044 22.1041 51.3373C22.1041 46.5729 18.2279 42.6969 13.4635 42.6969C8.69912 42.6969 4.82287 46.573 4.82287 51.3373C4.82287 53.7045 5.78031 55.8517 7.32756 57.4138C3.226 59.6117 0.429688 63.9401 0.429688 68.9101C0.429688 70.0426 1.34789 70.9609 2.48047 70.9609H24.4467H46.4127H68.3789C69.5115 70.9609 70.4297 70.0426 70.4297 68.9101C70.4297 63.9401 67.6334 59.6117 63.532 57.4138Z" fill="#2884CA"/>
<path d="M53.0027 29.2267H48.4636H22.396H17.8569C16.7244 29.2267 15.8062 30.1449 15.8062 31.2775C15.8062 32.41 16.7244 33.3282 17.8569 33.3282H22.396V42.2599C23.1877 43.039 23.879 43.92 24.4468 44.8823C26.6648 41.1227 30.7576 38.5953 35.4298 38.5953C40.102 38.5953 44.1948 41.1227 46.4128 44.8823C46.9806 43.92 47.6719 43.0391 48.4636 42.2599V33.3282H53.0027C54.1353 33.3282 55.0535 32.41 55.0535 31.2775C55.0535 30.1449 54.1353 29.2267 53.0027 29.2267Z" fill="#2884CA"/>
</g>
<defs>
<clipPath id="clip0_58_15220">
<rect width="70" height="70" fill="white" transform="translate(0.429688 0.960938)"/>
</clipPath>
</defs>
</svg>
