<svg width="71" height="71" viewBox="0 0 71 71" fill="none" xmlns="http://www.w3.org/2000/svg">
<path d="M13.3487 69.5688H57.5886C64.0286 69.5688 69.0686 64.5288 69.0686 58.0888V13.8488C69.0686 7.40877 64.0286 2.36877 57.5886 2.36877H13.3487C6.90865 2.36877 1.86865 7.40877 1.86865 13.8488V58.0888C1.86865 64.5288 6.90865 69.5688 13.3487 69.5688ZM28.1887 17.7688H55.0687C56.4687 17.7688 57.8687 18.8888 57.8687 20.5688C57.8687 21.9688 56.4687 23.3688 55.0687 23.3688H28.1887C26.5087 23.3688 25.3887 21.9688 25.3887 20.5688C25.3887 18.8888 26.5087 17.7688 28.1887 17.7688ZM28.1887 33.1688H55.0687C56.4687 33.1688 57.8687 34.5688 57.8687 35.9688C57.8687 37.3688 56.4687 38.7688 55.0687 38.7688H28.1887C26.5087 38.7688 25.3887 37.3688 25.3887 35.9688C25.3887 34.5688 26.5087 33.1688 28.1887 33.1688ZM28.1887 48.5688H55.0687C56.4687 48.5688 57.8687 49.9688 57.8687 51.3688C57.8687 53.0488 56.4687 54.1688 55.0687 54.1688H28.1887C26.5087 54.1688 25.3887 53.0488 25.3887 51.3688C25.3887 49.9688 26.5087 48.5688 28.1887 48.5688ZM14.1887 18.0488C15.5887 17.2088 16.7087 17.4888 17.8287 18.3288C18.9487 19.1688 18.9487 21.1288 17.8287 22.2488C16.7087 23.6488 14.7487 23.3688 13.9087 22.5288C12.7887 21.4088 12.5087 19.4488 14.1887 18.0488ZM17.8287 37.9288C16.7087 39.0488 15.0287 39.0488 13.9087 37.9288C13.0687 37.0888 12.7887 35.4088 13.9087 34.0088C15.0287 32.8888 16.7087 32.8888 17.8287 34.0088C18.9487 35.1288 18.9487 36.8088 17.8287 37.9288ZM13.9087 49.4088C14.7487 48.2888 16.9887 48.2888 17.8287 49.4088C18.9487 50.5288 18.9487 52.4888 17.8287 53.3288C16.7087 54.4488 15.0287 54.4488 13.9087 53.3288C12.7887 52.4888 12.7887 50.8088 13.9087 49.4088Z" fill="#2884CA"/>
</svg>
