<svg width="71" height="71" viewBox="0 0 71 71" fill="none" xmlns="http://www.w3.org/2000/svg">
<g clip-path="url(#clip0_58_15316)">
<path d="M44.7135 19.8359C43.1035 19.8359 41.7969 18.5293 41.7969 16.9193V12.5443H30.1302V16.9193C30.1302 18.5293 28.8235 19.8359 27.2135 19.8359C25.6035 19.8359 24.2969 18.5293 24.2969 16.9193V12.5443C24.2969 9.32719 26.9131 6.71094 30.1302 6.71094H41.7969C45.014 6.71094 47.6302 9.32719 47.6302 12.5443V16.9193C47.6302 18.5293 46.3235 19.8359 44.7135 19.8359Z" fill="#2884CA"/>
<path d="M38.0318 45.7323C37.5068 45.9365 36.7484 46.0823 35.9609 46.0823C35.1734 46.0823 34.4151 45.9365 33.7151 45.674L0.960938 34.7656V57.0198C0.960938 61.4531 4.54844 65.0406 8.98177 65.0406H62.9401C67.3734 65.0406 70.9609 61.4531 70.9609 57.0198V34.7656L38.0318 45.7323Z" fill="#2884CA"/>
<path d="M70.9609 23.4818V30.1609L36.6609 41.5943C36.4276 41.6818 36.1943 41.7109 35.9609 41.7109C35.7276 41.7109 35.4943 41.6818 35.2609 41.5943L0.960938 30.1609V23.4818C0.960938 19.0484 4.54844 15.4609 8.98177 15.4609H62.9401C67.3734 15.4609 70.9609 19.0484 70.9609 23.4818Z" fill="#2884CA"/>
</g>
<defs>
<clipPath id="clip0_58_15316">
<rect width="70" height="70" fill="white" transform="translate(0.960938 0.875)"/>
</clipPath>
</defs>
</svg>
