<svg width="85" height="62" viewBox="0 0 85 62" fill="none" xmlns="http://www.w3.org/2000/svg">
<path d="M79.0151 44.7349C79.6395 44.2758 80.1317 43.6601 80.442 42.95C80.7524 42.2398 80.87 41.4604 80.7829 40.6903C80.6959 39.9202 80.4072 39.1867 79.9461 38.5638C79.4849 37.941 78.8677 37.4507 78.1566 37.1426V31.0868L74.6162 32.5914V37.1426C73.9047 37.4506 73.2871 37.9408 72.8257 38.5639C72.3643 39.1869 72.0754 39.9207 71.9883 40.6911C71.9012 41.4615 72.019 42.2412 72.3296 42.9515C72.6403 43.6619 73.1329 44.2776 73.7577 44.7367C73.2019 45.1449 72.7498 45.678 72.4377 46.2929C72.1257 46.9079 71.9624 47.5875 71.9609 48.2771V52.7007C71.9609 53.1702 72.1474 53.6205 72.4794 53.9525C72.8114 54.2844 73.2616 54.4709 73.7311 54.4709H79.0417C79.5112 54.4709 79.9614 54.2844 80.2934 53.9525C80.6254 53.6205 80.8119 53.1702 80.8119 52.7007V48.2753C80.8104 47.5857 80.6471 46.9061 80.3351 46.2912C80.023 45.6762 79.5709 45.1432 79.0151 44.7349Z" fill="#2884CA"/>
<path d="M69.3054 34.8326V47.932C69.315 49.4548 68.9283 50.954 68.1835 52.2822C67.4387 53.6105 66.3612 54.7223 65.057 55.5084C58.2885 59.4614 50.591 61.5446 42.7526 61.5446C34.9143 61.5446 27.2168 59.4614 20.4483 55.5084C19.1441 54.7223 18.0666 53.6105 17.3218 52.2822C16.577 50.954 16.1903 49.4548 16.1999 47.932V34.8326L37.92 44.0199C39.4501 44.6625 41.0931 44.9936 42.7526 44.9936C44.4122 44.9936 46.0551 44.6625 47.5852 44.0199L69.3054 34.8326Z" fill="#2884CA"/>
<path d="M81.76 15.9432L46.2006 0.896671C45.1078 0.436986 43.9342 0.200195 42.7487 0.200195C41.5632 0.200195 40.3896 0.436986 39.2968 0.896671L3.73737 15.9432C2.77623 16.3498 1.95617 17.0305 1.37962 17.9004C0.80308 18.7702 0.495605 19.7907 0.495605 20.8343C0.495605 21.8778 0.80308 22.8983 1.37962 23.7682C1.95617 24.638 2.77623 25.3187 3.73737 25.7253L39.2968 40.7719C40.3895 41.232 41.5631 41.4691 42.7487 41.4691C43.9343 41.4691 45.1079 41.232 46.2006 40.7719L81.76 25.7253C82.7212 25.3187 83.5412 24.638 84.1178 23.7682C84.6943 22.8983 85.0018 21.8778 85.0018 20.8343C85.0018 19.7907 84.6943 18.7702 84.1178 17.9004C83.5412 17.0305 82.7212 16.3498 81.76 15.9432Z" fill="#2884CA"/>
</svg>
