<svg width="71" height="71" viewBox="0 0 71 71" fill="none" xmlns="http://www.w3.org/2000/svg">
<g clip-path="url(#clip0_58_15312)">
<path d="M38.1246 22.5391C30.7701 22.5391 24.7871 28.5221 24.7871 35.876C24.7871 43.2305 30.7701 49.2136 38.1246 49.2136C45.4786 49.2136 51.4616 43.2305 51.4616 35.876C51.4616 28.5221 45.4786 22.5391 38.1246 22.5391ZM46.0431 33.3644L36.4883 42.9192C36.0872 43.3203 35.5612 43.5211 35.0356 43.5211C34.5101 43.5211 33.9846 43.3208 33.5835 42.9192L29.9322 39.2678C29.1301 38.4662 29.1301 37.1658 29.9322 36.3636C30.7338 35.5615 32.0343 35.5615 32.8364 36.3636L35.0356 38.5629L43.1389 30.4602C43.9405 29.658 45.2409 29.658 46.0431 30.4602C46.8452 31.2618 46.8452 32.5622 46.0431 33.3644Z" fill="#2884CA"/>
<path d="M67.86 19.8678L67.8579 19.8133C67.8274 19.1409 67.8072 18.4296 67.7949 17.6381C67.7377 13.7785 64.6696 10.5859 60.8094 10.3701C52.7612 9.92098 46.5352 7.29662 41.2154 2.11147L41.17 2.06821C39.4349 0.477262 36.8175 0.477262 35.0818 2.06821L35.0364 2.11147C29.7167 7.29662 23.4906 9.92098 15.4424 10.3707C11.5828 10.5859 8.5141 13.7785 8.45696 17.6386C8.44521 18.4248 8.42438 19.1361 8.39394 19.8133L8.39074 19.9399C8.23426 28.1467 8.03986 38.3605 11.4568 47.6312C13.3356 52.7293 16.181 57.1609 19.9135 60.8037C24.1646 64.9523 29.7327 68.2458 36.4629 70.5924C36.6818 70.6688 36.9093 70.7308 37.1411 70.7772C37.468 70.8424 37.7969 70.8749 38.1259 70.8749C38.4549 70.8749 38.7844 70.8424 39.1107 70.7772C39.3425 70.7308 39.5716 70.6683 39.7916 70.5914C46.5138 68.2404 52.076 64.9453 56.3233 60.7973C60.0543 57.1534 62.8997 52.7208 64.7801 47.6216C68.2098 38.3232 68.016 28.0901 67.86 19.8678ZM38.1248 53.3211C28.5054 53.3211 20.6799 45.4955 20.6799 35.8761C20.6799 26.2567 28.5054 18.4312 38.1248 18.4312C47.7437 18.4312 55.5698 26.2567 55.5698 35.8761C55.5698 45.4955 47.7437 53.3211 38.1248 53.3211Z" fill="#2884CA"/>
</g>
<defs>
<clipPath id="clip0_58_15312">
<rect width="70" height="70" fill="white" transform="translate(0.117188 0.875)"/>
</clipPath>
</defs>
</svg>
