<svg width="71" height="71" viewBox="0 0 71 71" fill="none" xmlns="http://www.w3.org/2000/svg">
<path d="M15.4958 54.4044H61.8193C63.5281 54.4044 64.9075 53.025 64.9075 51.3162V6.02207C64.9075 4.31325 63.5281 2.93384 61.8193 2.93384H15.4958C9.81342 2.93384 5.20166 7.5456 5.20166 13.228V58.5221C5.20166 64.2044 9.81342 68.8162 15.4958 68.8162H61.8193C63.5281 68.8162 64.9075 67.4368 64.9075 65.728C64.9075 64.0191 63.5281 62.6397 61.8193 62.6397H15.4958C13.2311 62.6397 11.3781 60.7868 11.3781 58.5221C11.3781 56.2574 13.2311 54.4044 15.4958 54.4044ZM37.2369 44.2338C36.6605 44.8103 35.8575 45.1397 35.0546 45.1397C34.2517 45.1397 33.4487 44.8103 32.8722 44.2338C32.2958 43.6574 31.9664 42.875 31.9664 42.0515C31.9664 41.2485 32.2958 40.4456 32.8722 39.8691C34.0252 38.7162 36.084 38.7162 37.2369 39.8691C37.8134 40.4456 38.1428 41.2485 38.1428 42.0515C38.1428 42.875 37.8134 43.6574 37.2369 44.2338ZM29.1046 14.3603C31.2046 12.6103 33.984 11.8691 36.7017 12.3427C40.4487 13.0015 43.5164 16.0691 44.1752 19.8162C44.8546 23.7485 43.0017 27.6603 39.5222 29.575C38.6781 30.0485 38.1428 31.0985 38.1428 32.2927V32.7868C38.1428 34.4956 36.7634 35.875 35.0546 35.875C33.3458 35.875 31.9664 34.4956 31.9664 32.7868V32.2927C31.9664 28.8338 33.7164 25.725 36.5369 24.1809C37.4428 23.6868 38.3693 22.5133 38.0811 20.8868C37.8752 19.6721 36.8458 18.6427 35.6517 18.4368C34.684 18.2515 33.7781 18.4985 33.0781 19.0956C32.3781 19.6927 31.9664 20.5574 31.9664 21.4632C31.9664 23.1721 30.587 24.5515 28.8781 24.5515C27.1693 24.5515 25.7899 23.1721 25.7899 21.4632C25.7899 18.725 27.0046 16.1309 29.1046 14.3603Z" fill="#2884CA"/>
</svg>
