<svg width="71" height="71" viewBox="0 0 71 71" fill="none" xmlns="http://www.w3.org/2000/svg">
<g clip-path="url(#clip0_58_15323)">
<path fill-rule="evenodd" clip-rule="evenodd" d="M46.0692 9.27672C43.2538 7.5223 40.0241 6.37369 36.5638 6.01183C35.8767 5.93864 35.3781 5.32469 35.45 4.63756C35.522 3.95246 36.1371 3.45236 36.8242 3.52555C40.9022 3.95247 44.69 5.36129 47.9469 7.5101V5.88782C47.9469 5.19866 48.5051 4.63756 49.1971 4.63756C49.8867 4.63756 50.4473 5.19866 50.4473 5.88782V9.97807C50.4473 10.2667 50.3481 10.5432 50.1645 10.7689C49.976 11.0006 49.7131 11.1551 49.4204 11.208L44.4196 12.1167C43.74 12.2407 43.0876 11.7894 42.9635 11.1104C42.842 10.4314 43.2935 9.78088 43.9707 9.65687C43.9707 9.65687 45.0397 9.46375 46.0692 9.27672ZM56.0905 23.1739C55.2943 19.8215 53.7464 16.762 51.638 14.1761C51.2014 13.6414 51.2808 12.8547 51.8141 12.4176C52.3499 11.9826 53.1387 12.0618 53.5752 12.5965C55.9367 15.4894 57.6632 18.921 58.5413 22.6758L59.4243 21.4174C59.8212 20.8522 60.6026 20.716 61.1657 21.1125C61.7312 21.5089 61.8677 22.2875 61.4733 22.8526L58.8414 26.6014C58.633 26.9002 58.3081 27.0893 57.9484 27.1279C57.6508 27.1584 57.3531 27.0832 57.1075 26.9124L53.486 24.4139C52.9179 24.0216 52.7765 23.243 53.1685 22.6758C53.5604 22.1066 54.3393 21.9643 54.9073 22.3566L56.0905 23.1739ZM51.3899 43.676L50.482 39.9273C50.3183 39.2564 50.7326 38.5815 51.4023 38.4188C52.072 38.2562 52.7492 38.6689 52.9105 39.3377L53.1833 40.4558C55.0065 37.5955 56.2021 34.296 56.5742 30.7547C56.6461 30.0675 57.2613 29.5695 57.9484 29.6406C58.6355 29.7138 59.1341 30.3277 59.0622 31.0149C58.6331 35.0909 57.2241 38.8783 55.076 42.133H56.6982C57.3878 42.133 57.9484 42.6921 57.9484 43.3833C57.9484 44.0724 57.3878 44.6315 56.6982 44.6315H52.6054C52.3176 44.6315 52.0398 44.5339 51.8141 44.3509C51.6032 44.1781 51.4544 43.9423 51.3899 43.676ZM9.69966 33.4341L8.79923 34.2899C8.29816 34.7656 7.50686 34.7453 7.0306 34.2452C6.55434 33.7451 6.5742 32.9523 7.07526 32.4786L9.7071 29.9781C9.90554 29.789 10.161 29.6711 10.4364 29.6406C10.6199 29.6223 10.8035 29.6426 10.9747 29.7036L14.5962 30.9518C15.2486 31.1775 15.5959 31.889 15.3701 32.5416C15.1444 33.1942 14.4325 33.5398 13.7801 33.3162L12.1083 32.7388C12.8326 36.4245 14.4598 39.789 16.7493 42.5924C17.1834 43.1271 17.104 43.9138 16.5707 44.3509C16.0349 44.788 15.2461 44.7067 14.812 44.172C12.3117 41.1104 10.5232 37.4471 9.69966 33.4341ZM15.204 16.3127C13.3783 19.173 12.1827 22.4725 11.8106 26.0159C11.7387 26.701 11.1235 27.1991 10.4364 27.1279C9.75174 27.0568 9.25316 26.4408 9.3251 25.7557C9.75175 21.6776 11.1607 17.8923 13.3113 14.6355H11.6866C10.997 14.6355 10.4364 14.0765 10.4364 13.3873C10.4364 12.6961 10.997 12.1371 11.6866 12.1371H15.7794C16.0672 12.1371 16.345 12.2346 16.5707 12.4176C16.784 12.5924 16.9304 12.8283 16.9949 13.0925L17.9028 16.8413C18.0665 17.5121 17.6547 18.1891 16.9825 18.3517C16.3127 18.5123 15.6356 18.1017 15.4743 17.4308L15.204 16.3127ZM29.8366 6.30863C26.1505 7.03235 22.7844 8.65871 19.979 10.9458C19.4457 11.3828 18.6568 11.3035 18.2203 10.7689C17.7837 10.2342 17.8631 9.44545 18.3989 9.0104C21.4623 6.51193 25.1261 4.72498 29.142 3.89961L28.2863 2.99901C27.81 2.49891 27.8299 1.70811 28.3309 1.2324C28.8295 0.756698 29.6233 0.777018 30.097 1.27712L32.5974 3.90773C32.7859 4.10493 32.9075 4.36108 32.9348 4.63756C32.9546 4.82052 32.9323 5.00349 32.8728 5.17628L31.6226 8.79492C31.3993 9.44749 30.6849 9.79308 30.0326 9.56946C29.3827 9.3438 29.0354 8.63228 29.2611 7.97971L29.8366 6.30863ZM45.4441 54.0013L57.8294 47.1523C59.536 46.209 61.6841 46.7295 62.7656 48.3538L62.8524 48.4839C63.8447 49.9699 63.6487 51.95 62.3836 53.2145L49.7776 65.8167C48.1355 67.4572 45.9104 68.3802 43.5886 68.3802H20.9538L18.7958 70.5168C18.4485 70.8604 17.9325 70.9702 17.4761 70.7994L7.49695 67.0486C7.31835 66.9836 7.15959 66.8779 7.0306 66.7396C6.70069 66.392 6.599 65.8878 6.7652 65.4406C6.83217 65.2617 6.93883 65.1031 7.07526 64.973L20.108 52.6067C21.3482 51.4276 22.9085 50.6388 24.5928 50.3359C24.625 50.3318 24.6572 50.3257 24.6895 50.3237C27.3412 50.0574 29.787 50.3786 32.0864 51.3767C32.2874 51.4662 32.4808 51.5719 32.6644 51.6918C32.8231 51.7955 33.0588 51.9521 33.2597 52.0883C33.3019 52.1167 33.349 52.131 33.4011 52.131H41.6935C41.8721 52.131 42.0482 52.1432 42.2194 52.1676C42.6485 52.3668 42.9437 52.7998 42.9437 53.3019V54.3346C42.9437 55.0238 42.3856 55.5829 41.6935 55.5829H32.9422C32.2526 55.5829 31.692 56.144 31.692 56.8331C31.692 57.5223 32.2526 58.0834 32.9422 58.0834H41.6935C43.7648 58.0834 45.4441 56.4042 45.4441 54.3346V54.0013ZM34.1924 10.8868C43.8541 10.8868 51.6975 18.7278 51.6975 28.3843C51.6975 38.0427 43.8541 45.8817 34.1924 45.8817C24.5307 45.8817 16.6898 38.0427 16.6898 28.3843C16.6898 18.7278 24.5307 10.8868 34.1924 10.8868ZM34.1924 29.5207C36.0826 29.5207 37.7172 30.6733 37.7172 32.2468C37.7172 33.8224 36.0826 34.975 34.1924 34.975C32.3022 34.975 30.6701 33.8224 30.6701 32.2468C30.6701 31.5577 30.1094 30.9986 29.4199 30.9986C28.7278 30.9986 28.1697 31.5577 28.1697 32.2468C28.1697 34.7067 30.1814 36.8555 32.9422 37.3617V39.4068C32.9422 40.096 33.5028 40.655 34.1924 40.655C34.882 40.655 35.4426 40.096 35.4426 39.4068V37.3617C38.2034 36.8555 40.2176 34.7067 40.2176 32.2468C40.2176 29.4312 37.5758 27.0202 34.1924 27.0202C32.3022 27.0202 30.6701 25.8675 30.6701 24.294C30.6701 22.7205 32.3022 21.5678 34.1924 21.5678C36.0826 21.5678 37.7172 22.7205 37.7172 24.294C37.7172 24.9832 38.2753 25.5443 38.9674 25.5443C39.657 25.5443 40.2176 24.9832 40.2176 24.294C40.2176 21.8341 38.2034 19.6874 35.4426 19.1812V17.136C35.4426 16.4469 34.882 15.8858 34.1924 15.8858C33.5028 15.8858 32.9422 16.4469 32.9422 17.136V19.1812C30.1814 19.6874 28.1697 21.8341 28.1697 24.294C28.1697 27.1116 30.8114 29.5207 34.1924 29.5207Z" fill="#2884CA"/>
</g>
<defs>
<clipPath id="clip0_58_15323">
<rect width="70" height="70" fill="white" transform="translate(0.0859375 0.875)"/>
</clipPath>
</defs>
</svg>
