<svg width="71" height="71" viewBox="0 0 71 71" fill="none" xmlns="http://www.w3.org/2000/svg">
<g clip-path="url(#clip0_58_15307)">
<g clip-path="url(#clip1_58_15307)">
<path d="M38.109 22.5387C30.7545 22.5387 24.7715 28.5217 24.7715 35.8757C24.7715 43.2302 30.7545 49.2132 38.109 49.2132C45.463 49.2132 51.446 43.2302 51.446 35.8757C51.446 28.5217 45.463 22.5387 38.109 22.5387ZM46.0275 33.364L36.4727 42.9188C36.0716 43.3199 35.5455 43.5207 35.02 43.5207C34.4945 43.5207 33.969 43.3204 33.5679 42.9188L29.9166 39.2675C29.1144 38.4659 29.1144 37.1654 29.9166 36.3633C30.7182 35.5611 32.0186 35.5611 32.8208 36.3633L35.02 38.5625L43.1233 30.4598C43.9249 29.6577 45.2253 29.6577 46.0275 30.4598C46.8296 31.2614 46.8296 32.5619 46.0275 33.364Z" fill="#2884CA"/>
<path d="M67.8444 19.8674L67.8423 19.8129C67.8118 19.1406 67.7915 18.4292 67.7792 17.6377C67.7221 13.7781 64.6539 10.5855 60.7938 10.3698C52.7456 9.92061 46.5195 7.29626 41.1998 2.11111L41.1544 2.06785C39.4193 0.476895 36.8019 0.476895 35.0662 2.06785L35.0208 2.11111C29.701 7.29626 23.475 9.92061 15.4268 10.3703C11.5672 10.5855 8.49848 13.7781 8.44134 17.6383C8.42959 18.4244 8.40876 19.1357 8.37832 19.8129L8.37511 19.9395C8.21863 28.1463 8.02424 38.3602 11.4411 47.6309C13.3199 52.729 16.1654 57.1605 19.8979 60.8033C24.149 64.9519 29.7171 68.2454 36.4472 70.5921C36.6662 70.6684 36.8937 70.7304 37.1255 70.7768C37.4523 70.842 37.7813 70.8746 38.1103 70.8746C38.4393 70.8746 38.7688 70.842 39.0951 70.7768C39.3269 70.7304 39.556 70.6679 39.776 70.591C46.4982 68.2401 52.0604 64.945 56.3077 60.7969C60.0386 57.1531 62.8841 52.7204 64.7645 47.6212C68.1942 38.3228 68.0003 28.0897 67.8444 19.8674ZM38.1092 53.3207C28.4898 53.3207 20.6643 45.4952 20.6643 35.8757C20.6643 26.2563 28.4898 18.4308 38.1092 18.4308C47.7281 18.4308 55.5542 26.2563 55.5542 35.8757C55.5542 45.4952 47.7281 53.3207 38.1092 53.3207Z" fill="#2884CA"/>
</g>
</g>
<defs>
<clipPath id="clip0_58_15307">
<rect width="70" height="70" fill="white" transform="translate(0.117188 0.875)"/>
</clipPath>
<clipPath id="clip1_58_15307">
<rect width="70" height="70" fill="white" transform="translate(0.101562 0.874634)"/>
</clipPath>
</defs>
</svg>
