<svg width="74" height="76" viewBox="0 0 74 76" fill="none" xmlns="http://www.w3.org/2000/svg">
<g clip-path="url(#clip0_58_15511)">
<path d="M33.3867 60.4688H40.6133V75.1172H33.3867V60.4688Z" fill="#2884CA"/>
<path d="M72.2133 41.4915L60.8477 38.6116V75.1172H71.6875C72.8848 75.1172 73.8555 74.1334 73.8555 72.92V43.6231C73.8555 42.6148 73.1783 41.7359 72.2133 41.4915ZM69.5195 64.1309C69.5195 65.3444 68.5489 66.3282 67.3516 66.3282C66.1543 66.3282 65.1836 65.3444 65.1836 64.1309V61.2012C65.1836 59.9877 66.1543 59.004 67.3516 59.004C68.5489 59.004 69.5195 59.9877 69.5195 61.2012V64.1309ZM69.5195 52.4122C69.5195 53.6256 68.5489 54.6094 67.3516 54.6094C66.1543 54.6094 65.1836 53.6256 65.1836 52.4122V49.4825C65.1836 48.269 66.1543 47.2852 67.3516 47.2852C68.5489 47.2852 69.5195 48.269 69.5195 49.4825V52.4122Z" fill="#2884CA"/>
<path d="M37 44.3555C39.7938 44.3555 42.0586 42.0601 42.0586 39.2285C42.0586 36.397 39.7938 34.1016 37 34.1016C34.2062 34.1016 31.9414 36.397 31.9414 39.2285C31.9414 42.0601 34.2062 44.3555 37 44.3555Z" fill="#2884CA"/>
<path d="M59.6492 29.2066L39.1679 18.8275V10.3711H48.5625C49.7598 10.3711 50.7304 9.3873 50.7304 8.17383V2.31445C50.7304 1.10098 49.7598 0.117188 48.5625 0.117188H37C35.8027 0.117188 34.832 1.10098 34.832 2.31445V18.8275L14.3507 29.2066C13.2798 29.7494 12.8457 31.0692 13.3812 32.1546C13.9167 33.2401 15.2189 33.68 16.2898 33.1373L17.4882 32.5299V75.1172H29.0507V60.4688H28.3281C27.1308 60.4688 26.1601 59.485 26.1601 58.2715C26.1601 57.058 27.1308 56.0742 28.3281 56.0742H45.6718C46.8691 56.0742 47.8398 57.058 47.8398 58.2715C47.8398 59.485 46.8691 60.4688 45.6718 60.4688H44.9492V75.1172H56.5117V32.5299L57.7101 33.1373C58.7811 33.68 60.0833 33.2401 60.6187 32.1546C61.1542 31.0692 60.7201 29.7494 59.6492 29.2066ZM37 48.75C31.8198 48.75 27.6054 44.4787 27.6054 39.2285C27.6054 33.9784 31.8198 29.707 37 29.707C42.1801 29.707 46.3945 33.9784 46.3945 39.2285C46.3945 44.4787 42.1801 48.75 37 48.75Z" fill="#2884CA"/>
<path d="M0.144531 43.6231V72.92C0.144531 74.1334 1.1152 75.1172 2.3125 75.1172H13.1523V38.6116L1.7867 41.4915C0.82166 41.7359 0.144531 42.6148 0.144531 43.6231ZM4.48047 49.4825C4.48047 48.269 5.45114 47.2852 6.64844 47.2852C7.84573 47.2852 8.81641 48.269 8.81641 49.4825V52.4122C8.81641 53.6256 7.84573 54.6094 6.64844 54.6094C5.45114 54.6094 4.48047 53.6256 4.48047 52.4122V49.4825ZM4.48047 61.2012C4.48047 59.9877 5.45114 59.004 6.64844 59.004C7.84573 59.004 8.81641 59.9877 8.81641 61.2012V64.1309C8.81641 65.3444 7.84573 66.3282 6.64844 66.3282C5.45114 66.3282 4.48047 65.3444 4.48047 64.1309V61.2012Z" fill="#2884CA"/>
</g>
<defs>
<clipPath id="clip0_58_15511">
<rect width="74" height="75" fill="white" transform="translate(0 0.117188)"/>
</clipPath>
</defs>
</svg>
