<svg width="71" height="71" viewBox="0 0 71 71" fill="none" xmlns="http://www.w3.org/2000/svg">
<g clip-path="url(#clip0_58_15108)">
<path d="M55.2656 59.1172C52.9752 59.1172 51.0104 60.533 50.1973 62.5352H45.4219V66.6367H50.1973C51.0104 68.6388 52.9752 70.0547 55.2656 70.0547C58.2811 70.0547 60.7344 67.6014 60.7344 64.5859C60.7344 61.5705 58.2811 59.1172 55.2656 59.1172Z" fill="#2884CA"/>
<path d="M64.8359 47.4961C63.937 47.4961 63.0889 47.7154 62.34 48.1013L57.2621 43.8698C56.8935 43.5627 56.429 43.3945 55.9492 43.3945H45.4219V47.4961H55.2067L59.6589 51.2064C59.4708 51.7586 59.3672 52.3496 59.3672 52.9648C59.3672 55.9803 61.8205 58.4336 64.8359 58.4336C67.8514 58.4336 70.3047 55.9803 70.3047 52.9648C70.3047 49.9494 67.8514 47.4961 64.8359 47.4961Z" fill="#2884CA"/>
<path d="M64.8359 30.4062C62.5455 30.4062 60.5807 31.8221 59.7676 33.8242H45.4219V37.9258H59.7676C60.5807 39.9279 62.5455 41.3438 64.8359 41.3438C67.8514 41.3438 70.3047 38.8905 70.3047 35.875C70.3047 32.8595 67.8514 30.4062 64.8359 30.4062Z" fill="#2884CA"/>
<path d="M57.2621 27.8801L62.34 23.6485C63.0889 24.0346 63.937 24.2539 64.8359 24.2539C67.8514 24.2539 70.3047 21.8006 70.3047 18.7852C70.3047 15.7697 67.8514 13.3164 64.8359 13.3164C61.8205 13.3164 59.3672 15.7697 59.3672 18.7852C59.3672 19.4004 59.4708 19.9914 59.6589 20.5436L55.2067 24.2539H45.4219V28.3555H55.9492C56.429 28.3555 56.8935 28.1873 57.2621 27.8801Z" fill="#2884CA"/>
<path d="M55.2656 12.6328C58.2811 12.6328 60.7344 10.1795 60.7344 7.16406C60.7344 4.14859 58.2811 1.69531 55.2656 1.69531C52.9752 1.69531 51.0104 3.11117 50.1973 5.11328H45.4219V9.21484H50.1973C51.0104 11.217 52.9752 12.6328 55.2656 12.6328Z" fill="#2884CA"/>
<path d="M20.8125 35.875C20.8125 43.7906 27.2524 50.2305 35.168 50.2305C37.3685 50.2305 39.4545 49.7321 41.3203 48.8435V22.9065C39.4545 22.0179 37.3685 21.5195 35.168 21.5195C27.2524 21.5195 20.8125 27.9594 20.8125 35.875Z" fill="#2884CA"/>
<path d="M39.2695 1.01172H31.0664C29.9338 1.01172 29.0156 1.92992 29.0156 3.0625V5.73193C25.1674 6.51588 21.4847 8.04152 18.2045 10.2107L16.3164 8.32275C15.5155 7.52186 14.2171 7.52186 13.4162 8.32275L7.61572 14.1232C6.81482 14.9239 6.81482 16.2225 7.61572 17.0234L9.50367 18.9115C7.33449 22.1918 5.80885 25.8744 5.0249 29.7227H2.35547C1.22289 29.7227 0.304688 30.6409 0.304688 31.7734V39.9766C0.304688 41.1091 1.22289 42.0273 2.35547 42.0273H5.0249C5.80885 45.8756 7.33449 49.5582 9.50367 52.8387L7.61559 54.7267C7.231 55.1113 7.01498 55.6329 7.01498 56.1768C7.01498 56.7206 7.231 57.2421 7.61559 57.6267L13.4162 63.4272C14.2171 64.2281 15.5155 64.2281 16.3164 63.4272L18.2045 61.5393C21.4847 63.7085 25.1674 65.234 29.0156 66.0181V68.6875C29.0156 69.8201 29.9338 70.7383 31.0664 70.7383H39.2695C40.4021 70.7383 41.3203 69.8201 41.3203 68.6875V53.2763C39.395 53.9591 37.3244 54.332 35.168 54.332C24.9908 54.332 16.7109 46.0522 16.7109 35.875C16.7109 25.6978 24.9908 17.418 35.168 17.418C37.3244 17.418 39.395 17.7909 41.3203 18.4737V3.0625C41.3203 1.92992 40.4021 1.01172 39.2695 1.01172Z" fill="#2884CA"/>
</g>
<defs>
<clipPath id="clip0_58_15108">
<rect width="70" height="70" fill="white" transform="translate(0.304688 0.875)"/>
</clipPath>
</defs>
</svg>
