<svg width="71" height="71" viewBox="0 0 71 71" fill="none" xmlns="http://www.w3.org/2000/svg">
<g clip-path="url(#clip0_58_15492)">
<g clip-path="url(#clip1_58_15492)">
<path d="M35.9219 15.6562C40.0748 15.6562 43.4414 12.2896 43.4414 8.13672C43.4414 3.9838 40.0748 0.617188 35.9219 0.617188C31.769 0.617188 28.4023 3.9838 28.4023 8.13672C28.4023 12.2896 31.769 15.6562 35.9219 15.6562Z" fill="#2884CA"/>
<path d="M22.3994 57.3501C20.2769 59.6224 17.2576 61.0468 13.9102 61.0468C10.5627 61.0468 7.54344 59.6224 5.42088 57.3501C2.70756 59.1968 0.921875 62.3096 0.921875 65.832V68.5664C0.921875 69.6989 1.84008 70.6171 2.97266 70.6171H24.8477C25.9802 70.6171 26.8984 69.6989 26.8984 68.5664V65.832C26.8984 62.3096 25.1128 59.1968 22.3994 57.3501Z" fill="#2884CA"/>
<path d="M66.4229 57.3501C64.3003 59.6224 61.281 61.0468 57.9336 61.0468C54.5862 61.0468 51.5669 59.6224 49.4443 57.3501C46.731 59.1968 44.9453 62.3096 44.9453 65.832V68.5664C44.9453 69.6989 45.8635 70.6171 46.9961 70.6171H68.8711C70.0037 70.6171 70.9219 69.6989 70.9219 68.5664V65.832C70.9219 62.3096 69.1362 59.1968 66.4229 57.3501Z" fill="#2884CA"/>
<path d="M50.5128 50.6357C51.0933 54.2086 54.1993 56.9453 57.9336 56.9453C62.0799 56.9453 65.4531 53.572 65.4531 49.4257C65.4531 45.2795 62.0799 41.9062 57.9336 41.9062C54.8265 41.9062 52.1535 43.8006 51.0089 46.495L42.0682 43.7184C41.9696 41.1487 40.2881 38.9787 37.9727 38.1574V29.3281H46.8594C47.992 29.3281 48.9102 28.4099 48.9102 27.2773V24.5429C48.9102 21.0205 47.1245 17.9077 44.4112 16.061C42.2886 18.3333 39.2693 19.7578 35.9219 19.7578C32.5745 19.7578 29.5552 18.3333 27.4326 16.061C24.7193 17.9077 22.9336 21.0205 22.9336 24.5429V27.2773C22.9336 28.4099 23.8518 29.3281 24.9844 29.3281H33.8711V38.1574C31.5556 38.9787 29.8743 41.1485 29.7755 43.7184L20.8348 46.495C19.6902 43.8006 17.0172 41.9062 13.9102 41.9062C9.76389 41.9062 6.39062 45.2795 6.39062 49.4257C6.39062 53.572 9.76389 56.9453 13.9102 56.9453C17.6445 56.9453 20.7505 54.2086 21.331 50.6357L30.9929 47.6351C32.1158 49.136 33.9073 50.1093 35.9219 50.1093C37.9364 50.1093 39.728 49.136 40.8509 47.635L50.5128 50.6357Z" fill="#2884CA"/>
</g>
</g>
<defs>
<clipPath id="clip0_58_15492">
<rect width="70" height="70" fill="white" transform="translate(0.921875 0.617188)"/>
</clipPath>
<clipPath id="clip1_58_15492">
<rect width="70" height="70" fill="white" transform="translate(0.921875 0.617188)"/>
</clipPath>
</defs>
</svg>
