<svg width="71" height="71" viewBox="0 0 71 71" fill="none" xmlns="http://www.w3.org/2000/svg">
<g clip-path="url(#clip0_58_15518)">
<path d="M38.9863 3.24178L38.5059 2.76135C36.4172 0.672975 33.1137 1.00165 31.2676 3.23536L35.1285 7.09917L38.9863 3.24178Z" fill="#2884CA"/>
<path d="M69.5235 47.3005L65.0624 42.8403C62.0147 45.889 55.4333 52.4716 50.2603 57.6419C47.7981 60.1046 44.9483 62.0697 41.7812 63.4932L47.5595 69.2703C48.3606 70.071 49.659 70.0709 50.4599 69.2698L69.5238 50.2007C70.3247 49.3997 70.3246 48.1013 69.5235 47.3005Z" fill="#2884CA"/>
<path d="M63.8518 38.2501C68.1582 33.6082 61.7405 27.1806 57.1001 31.4912L58.785 29.8003C63.0914 25.1541 56.6746 18.731 52.0214 23.0415L53.7184 21.3505C58.0283 16.7003 51.5992 10.281 46.9548 14.5905L48.6517 12.9008C52.9641 8.2481 46.5257 1.83271 41.888 6.14086L38.028 10.0006L41.4073 13.3823C46.3596 18.2048 43.7853 26.9618 37.0309 28.3386C36.3908 31.5699 33.5522 34.4456 30.28 35.0954C29.6397 38.3328 26.7963 41.2107 23.5158 41.8575C22.1102 48.6094 13.432 51.1909 8.56235 46.2194C8.56235 46.2195 5.1854 42.8403 5.1854 42.8403L0.72522 47.3C-0.0758154 48.1009 -0.0756787 49.3996 0.725356 50.2005L19.8001 69.2701C20.6011 70.0708 21.8997 70.0707 22.7004 69.2695L30.0575 61.9094C36.5464 61.9094 42.7723 59.3306 47.3609 54.7407C54.3279 47.7776 63.8518 38.2501 63.8518 38.2501Z" fill="#2884CA"/>
<path d="M11.4639 43.3203C16.1126 47.6312 22.5359 41.2066 18.2275 36.5604C22.8765 40.871 29.2995 34.4467 24.9911 29.8003C29.6363 34.1127 36.0474 27.6783 31.7428 23.0415C36.3855 27.3505 42.8173 20.9323 38.5063 16.2814L28.3728 6.14086C26.4968 4.27547 23.4734 4.27547 21.6094 6.14086C19.7451 8.00625 19.7451 11.0355 21.6094 12.9009L23.2942 14.5906C18.6557 10.2769 12.2152 16.7222 16.5426 21.3507L18.2274 23.0415C13.5807 18.729 7.15492 25.1545 11.4639 29.8003L13.0571 31.3927C8.36433 27.2754 2.13925 33.6716 6.39695 38.2501C6.39709 38.2499 11.4639 43.3203 11.4639 43.3203Z" fill="#2884CA"/>
</g>
<defs>
<clipPath id="clip0_58_15518">
<rect width="70" height="70" fill="white" transform="translate(0.124512 0.617188)"/>
</clipPath>
</defs>
</svg>
