<svg width="71" height="71" viewBox="0 0 71 71" fill="none" xmlns="http://www.w3.org/2000/svg">
<g clip-path="url(#clip0_58_15524)">
<path d="M10.2188 24.6836H28.2437C27.5622 22.7674 26.3054 21.1086 24.6452 19.9339C22.985 18.7592 21.0025 18.1261 18.9688 18.1211H10.2188C7.60927 18.1251 5.10782 19.1636 3.26264 21.0087C1.41746 22.8539 0.37905 25.3554 0.375 27.9648L0.375 36.7148C0.374873 38.1659 0.788435 39.5868 1.56719 40.8111C2.34595 42.0355 3.45763 43.0124 4.77187 43.6273C4.7427 43.3618 4.74638 43.0936 4.78281 42.8289L4.925 41.8008L6.97031 27.5055C7.0853 26.7246 7.47612 26.0107 8.07201 25.493C8.66789 24.9754 9.42944 24.6882 10.2188 24.6836Z" fill="#2884CA"/>
<path d="M14.5938 15.9336C16.3342 15.9336 18.0034 15.2422 19.2341 14.0115C20.4648 12.7808 21.1562 11.1116 21.1562 9.37109V7.18359C21.1562 5.44311 20.4648 3.77391 19.2341 2.54321C18.0034 1.3125 16.3342 0.621094 14.5938 0.621094C12.8533 0.621094 11.1841 1.3125 9.95336 2.54321C8.72265 3.77391 8.03125 5.44311 8.03125 7.18359V9.37109C8.03125 11.1116 8.72265 12.7808 9.95336 14.0115C11.1841 15.2422 12.8533 15.9336 14.5938 15.9336Z" fill="#2884CA"/>
<path d="M34.2811 26.8711H10.2186C9.95511 26.8711 9.70046 26.9663 9.50152 27.1391C9.30258 27.312 9.17272 27.5508 9.13582 27.8117L6.94832 43.1242C6.92539 43.2796 6.93597 43.438 6.97936 43.589C7.02275 43.7399 7.09794 43.8798 7.19989 43.9992C7.30523 44.1153 7.43348 44.2082 7.57655 44.2722C7.71962 44.3362 7.87441 44.3699 8.03114 44.3711H32.0936C32.3572 44.3711 32.6118 44.2759 32.8108 44.1031C33.0097 43.9302 33.1396 43.6914 33.1764 43.4305L35.3639 28.118C35.3869 27.9626 35.3763 27.8042 35.3329 27.6532C35.2895 27.5023 35.2143 27.3624 35.1124 27.243C35.007 27.1269 34.8788 27.0339 34.7357 26.9699C34.5927 26.9059 34.4379 26.8723 34.2811 26.8711ZM21.1561 38.9023C20.5072 38.9023 19.8728 38.7099 19.3332 38.3494C18.7936 37.9888 18.373 37.4763 18.1247 36.8768C17.8763 36.2772 17.8113 35.6175 17.9379 34.981C18.0645 34.3445 18.3771 33.7598 18.8359 33.3009C19.2948 32.842 19.8795 32.5295 20.516 32.4029C21.1525 32.2763 21.8122 32.3413 22.4118 32.5896C23.0114 32.838 23.5238 33.2585 23.8844 33.7981C24.2449 34.3377 24.4374 34.9721 24.4374 35.6211C24.4348 36.4905 24.0883 37.3236 23.4735 37.9384C22.8587 38.5532 22.0256 38.8997 21.1561 38.9023Z" fill="#2884CA"/>
<path d="M60.5313 44.3711H51.7813C49.7476 44.3761 47.7651 45.0092 46.1049 46.1839C44.4447 47.3586 43.1879 49.0174 42.5063 50.9336H60.5313C61.3207 50.9382 62.0822 51.2254 62.6781 51.743C63.274 52.2607 63.6648 52.9746 63.7798 53.7555L65.8251 68.0398L65.9673 69.068C66.0037 69.3363 66.0073 69.6081 65.9782 69.8773C67.2925 69.2624 68.4041 68.2855 69.1829 67.0611C69.9617 65.8368 70.3752 64.4159 70.3751 62.9648V54.2148C70.371 51.6054 69.3326 49.1039 67.4875 47.2587C65.6423 45.4136 63.1408 44.3751 60.5313 44.3711Z" fill="#2884CA"/>
<path d="M56.1562 42.1836C57.8967 42.1836 59.5659 41.4922 60.7966 40.2615C62.0273 39.0308 62.7188 37.3616 62.7188 35.6211V33.4336C62.7188 31.6931 62.0273 30.0239 60.7966 28.7932C59.5659 27.5625 57.8967 26.8711 56.1562 26.8711C54.4158 26.8711 52.7466 27.5625 51.5159 28.7932C50.2852 30.0239 49.5938 31.6931 49.5938 33.4336V35.6211C49.5938 37.3616 50.2852 39.0308 51.5159 40.2615C52.7466 41.4922 54.4158 42.1836 56.1562 42.1836Z" fill="#2884CA"/>
<path d="M60.5311 53.1211H36.4686C36.3119 53.1223 36.1571 53.1559 36.0141 53.2199C35.871 53.2839 35.7427 53.3769 35.6374 53.493C35.5354 53.6124 35.4603 53.7523 35.4169 53.9032C35.3735 54.0542 35.3629 54.2126 35.3858 54.368L37.5733 69.6805C37.6102 69.9414 37.7401 70.1802 37.939 70.3531C38.138 70.5259 38.3926 70.6211 38.6561 70.6211H62.7186C62.8754 70.6199 63.0301 70.5862 63.1732 70.5222C63.3163 70.4582 63.4445 70.3653 63.5499 70.2492C63.6518 70.1298 63.727 69.9899 63.7704 69.839C63.8138 69.688 63.8244 69.5296 63.8015 69.3742L61.614 54.0617C61.5771 53.8008 61.4472 53.562 61.2483 53.3891C61.0493 53.2163 60.7947 53.1211 60.5311 53.1211ZM49.5936 65.1523C48.9447 65.1523 48.3103 64.9599 47.7707 64.5994C47.2311 64.2388 46.8105 63.7263 46.5622 63.1268C46.3138 62.5272 46.2488 61.8675 46.3754 61.231C46.502 60.5945 46.8146 60.0098 47.2734 59.5509C47.7323 59.092 48.317 58.7795 48.9535 58.6529C49.59 58.5263 50.2497 58.5913 50.8493 58.8396C51.4489 59.088 51.9613 59.5085 52.3219 60.0481C52.6824 60.5877 52.8749 61.2221 52.8749 61.8711C52.8723 62.7405 52.5258 63.5736 51.911 64.1884C51.2962 64.8032 50.4631 65.1497 49.5936 65.1523Z" fill="#2884CA"/>
<path d="M30.5995 59.6836C29.2416 59.401 27.9114 58.9984 26.6248 58.4804C26.4916 58.4278 26.3493 58.4021 26.2061 58.4049C26.0629 58.4076 25.9216 58.4388 25.7906 58.4966C25.6595 58.5544 25.5412 58.6377 25.4426 58.7415C25.344 58.8454 25.267 58.9678 25.216 59.1017C25.1095 59.373 25.1138 59.6753 25.2282 59.9433C25.3426 60.2114 25.5579 60.4237 25.8274 60.5345C27.2311 61.1001 28.6824 61.5393 30.1642 61.847C30.2361 61.8619 30.3094 61.8692 30.3829 61.8689C30.6347 61.8662 30.8779 61.7767 31.0714 61.6155C31.2649 61.4543 31.3969 61.2312 31.4449 60.984C31.5031 60.6997 31.4471 60.4038 31.2888 60.1605C31.1306 59.9171 30.883 59.7458 30.5995 59.6836Z" fill="#2884CA"/>
<path d="M14.4452 47.5037C14.3781 47.3774 14.2866 47.2658 14.1759 47.1753C14.0653 47.0848 13.9377 47.0172 13.8007 46.9765C13.6637 46.9358 13.52 46.9228 13.3778 46.9381C13.2357 46.9535 13.0981 46.997 12.973 47.0662C12.7186 47.2091 12.5303 47.446 12.4485 47.7261C12.3667 48.0062 12.398 48.3072 12.5355 48.5646C13.2575 49.9132 14.094 51.1972 15.0358 52.4026C15.1236 52.5157 15.2332 52.6102 15.3581 52.6803C15.483 52.7504 15.6206 52.7948 15.763 52.8108C15.9053 52.8268 16.0494 52.8141 16.1868 52.7735C16.3241 52.7329 16.4519 52.6651 16.5627 52.5743C16.7887 52.3893 16.9333 52.1232 16.9656 51.8329C16.9979 51.5427 16.9153 51.2513 16.7355 51.0212C15.8718 49.9171 15.1055 48.7402 14.4452 47.5037Z" fill="#2884CA"/>
<path d="M22.9216 56.5971C21.7401 55.8574 20.6257 55.0156 19.5911 54.0814C19.485 53.9857 19.3609 53.912 19.226 53.8649C19.0911 53.8177 18.9481 53.798 18.8054 53.8069C18.6628 53.8157 18.5234 53.853 18.3953 53.9165C18.2673 53.98 18.1532 54.0684 18.0598 54.1766C17.8689 54.3971 17.7717 54.6836 17.7891 54.9748C17.8065 55.266 17.937 55.5389 18.1528 55.7352C19.2815 56.7541 20.4969 57.6727 21.7851 58.4805C21.9549 58.5873 22.1512 58.6441 22.3517 58.6446C22.5384 58.6443 22.7218 58.5957 22.8842 58.5035C23.0465 58.4113 23.1822 58.2786 23.2781 58.1185C23.4292 57.8686 23.4765 57.5694 23.4098 57.2851C23.3432 57.0008 23.1679 56.7538 22.9216 56.5971Z" fill="#2884CA"/>
<path d="M27.0951 10.758C25.6618 11.2518 24.2752 11.8722 22.952 12.6119C22.6986 12.7561 22.5118 12.9939 22.4316 13.2742C22.3515 13.5545 22.3844 13.8551 22.5232 14.1115C22.6154 14.2842 22.7526 14.4287 22.9204 14.5296C23.0881 14.6305 23.2801 14.6841 23.4759 14.6846C23.6583 14.6846 23.8376 14.6375 23.9965 14.5479C25.208 13.8706 26.4774 13.3026 27.7896 12.8504C28.0643 12.7533 28.2897 12.552 28.417 12.2899C28.5444 12.0279 28.5634 11.7263 28.4699 11.4504C28.4263 11.3139 28.3559 11.1874 28.2628 11.0784C28.1697 10.9695 28.0558 10.8801 27.9278 10.8157C27.7998 10.7512 27.6602 10.7129 27.5173 10.703C27.3743 10.6931 27.2308 10.7118 27.0951 10.758Z" fill="#2884CA"/>
<path d="M51.8348 17.8619C51.9902 17.8617 52.1437 17.8279 52.2847 17.7628C52.4258 17.6976 52.551 17.6027 52.6519 17.4845C52.8415 17.2627 52.937 16.9757 52.918 16.6845C52.899 16.3934 52.767 16.1212 52.5502 15.9259C51.4155 14.9127 50.1946 14.0003 48.9014 13.1992C48.7794 13.1245 48.6438 13.0749 48.5025 13.0531C48.3611 13.0314 48.2168 13.0381 48.0781 13.0727C47.9393 13.1073 47.8088 13.1692 47.6942 13.2548C47.5796 13.3403 47.4832 13.4479 47.4106 13.5711C47.2611 13.8215 47.2157 14.1205 47.2839 14.4041C47.3522 14.6876 47.5288 14.9332 47.7759 15.0881C48.9627 15.8228 50.0833 16.6594 51.125 17.5884C51.3204 17.763 51.5728 17.8603 51.8348 17.8619Z" fill="#2884CA"/>
<path d="M57.2597 24.7033C57.4433 24.7035 57.6239 24.656 57.7836 24.5655C58.0364 24.4204 58.2223 24.1821 58.3016 23.9017C58.3809 23.6212 58.3473 23.3209 58.208 23.0649C57.478 21.7212 56.6334 20.443 55.6836 19.2444C55.5953 19.1311 55.4852 19.0367 55.3597 18.9668C55.2342 18.8968 55.096 18.8528 54.9532 18.8373C54.8104 18.8218 54.6659 18.8351 54.5284 18.8765C54.3908 18.9179 54.2629 18.9865 54.1524 19.0782C53.9281 19.2647 53.7856 19.5315 53.7551 19.8216C53.7247 20.1117 53.8088 20.4022 53.9894 20.6313C54.8598 21.7297 55.6344 22.9006 56.3049 24.1313C56.3972 24.3043 56.5348 24.4489 56.703 24.5497C56.8712 24.6505 57.0636 24.7036 57.2597 24.7033Z" fill="#2884CA"/>
<path d="M40.4991 9.87754C40.3583 9.84985 40.2134 9.85041 40.0727 9.87918C39.9321 9.90796 39.7986 9.96438 39.68 10.0452C39.5613 10.126 39.4599 10.2295 39.3816 10.3498C39.3033 10.4701 39.2497 10.6048 39.2238 10.746C39.1665 11.0311 39.2239 11.3273 39.3836 11.5704C39.5434 11.8135 39.7925 11.9837 40.077 12.0443C41.436 12.3189 42.768 12.7138 44.0571 13.2244C44.182 13.2742 44.3153 13.2998 44.4498 13.2999C44.6701 13.2991 44.885 13.2313 45.0659 13.1055C45.2468 12.9796 45.3851 12.8018 45.4626 12.5955C45.5672 12.3236 45.5611 12.0215 45.4456 11.7541C45.3301 11.4866 45.1143 11.2751 44.8446 11.1649C43.4369 10.6085 41.9828 10.1777 40.4991 9.87754Z" fill="#2884CA"/>
<path d="M31.492 9.67081C31.2201 9.71621 30.9751 9.86149 30.8047 10.0782C30.6344 10.2949 30.5512 10.5673 30.5713 10.8422C30.5914 11.1171 30.7135 11.3745 30.9135 11.5641C31.1136 11.7537 31.3772 11.8617 31.6528 11.8671C31.7077 11.8674 31.7625 11.8633 31.8168 11.855C33.1859 11.645 34.5708 11.555 35.9556 11.586C36.2443 11.586 36.5216 11.473 36.728 11.2711C36.9344 11.0692 37.0536 10.7946 37.0601 10.5059C37.0665 10.2172 36.9597 9.93753 36.7624 9.72666C36.5652 9.51579 36.2932 9.39053 36.0048 9.37768C34.4949 9.34325 32.9848 9.44134 31.492 9.67081Z" fill="#2884CA"/>
</g>
<defs>
<clipPath id="clip0_58_15524">
<rect width="70" height="70" fill="white" transform="translate(0.375 0.621094)"/>
</clipPath>
</defs>
</svg>
