<svg width="71" height="71" viewBox="0 0 71 71" fill="none" xmlns="http://www.w3.org/2000/svg">
<g clip-path="url(#clip0_58_15500)">
<g clip-path="url(#clip1_58_15500)">
<path d="M41.2218 15.3351C42.7691 13.7729 43.7267 11.6255 43.7267 9.25809C43.7267 4.49344 39.8505 0.617188 35.086 0.617188C30.3215 0.617188 26.4454 4.49344 26.4454 9.25809C26.4454 11.6255 27.403 13.7729 28.9502 15.3351C25.4245 17.2246 22.865 20.689 22.2153 24.7814H47.9567C47.3071 20.689 44.7475 17.2247 41.2218 15.3351Z" fill="#2884CA"/>
<path d="M63.1882 57.0701C64.7353 55.5078 65.6928 53.3606 65.6928 50.9935C65.6928 46.2291 61.8165 42.3531 57.0521 42.3531C52.2878 42.3531 48.4115 46.2293 48.4115 50.9935C48.4115 53.3608 49.3689 55.508 50.9161 57.07C48.9429 58.1273 47.272 59.6772 46.069 61.555C44.866 59.6773 43.1949 58.1275 41.2219 57.0701C42.769 55.5078 43.7266 53.3606 43.7266 50.9935C43.7266 46.2291 39.8503 42.3531 35.0859 42.3531C30.3216 42.3531 26.4453 46.2293 26.4453 50.9935C26.4453 53.3608 27.4029 55.508 28.95 57.0701C26.9769 58.1273 25.3059 59.6772 24.1029 61.555C22.8999 59.6773 21.2288 58.1275 19.2558 57.07C20.8029 55.5078 21.7604 53.3606 21.7604 50.9935C21.7604 46.2291 17.8841 42.3531 13.1197 42.3531C8.35537 42.3531 4.47912 46.2293 4.47912 50.9935C4.47912 53.3608 5.43656 55.508 6.98381 57.0701C2.88225 59.268 0.0859375 63.5964 0.0859375 68.5664C0.0859375 69.6988 1.00414 70.6172 2.13672 70.6172H24.1029H46.069H68.0352C69.1677 70.6172 70.0859 69.6988 70.0859 68.5664C70.0859 63.5964 67.2896 59.268 63.1882 57.0701Z" fill="#2884CA"/>
<path d="M52.6589 28.8829H48.1199H22.0522H17.5132C16.3806 28.8829 15.4624 29.8011 15.4624 30.9337C15.4624 32.0663 16.3806 32.9845 17.5132 32.9845H22.0522V41.9162C22.844 42.6952 23.5352 43.5762 24.103 44.5386C26.321 40.779 30.4138 38.2516 35.0861 38.2516C39.7583 38.2516 43.8511 40.779 46.0691 44.5386C46.6369 43.5762 47.3281 42.6954 48.1199 41.9162V32.9845H52.6589C53.7915 32.9845 54.7097 32.0663 54.7097 30.9337C54.7097 29.8011 53.7915 28.8829 52.6589 28.8829Z" fill="#2884CA"/>
</g>
</g>
<defs>
<clipPath id="clip0_58_15500">
<rect width="70" height="70" fill="white" transform="translate(0.0859375 0.617188)"/>
</clipPath>
<clipPath id="clip1_58_15500">
<rect width="70" height="70" fill="white" transform="translate(0.0859375 0.617188)"/>
</clipPath>
</defs>
</svg>
