<svg width="74" height="74" viewBox="0 0 74 74" fill="none" xmlns="http://www.w3.org/2000/svg">
<g clip-path="url(#clip0_58_15539)">
<path d="M49.8854 73.25H23.9427C22.8134 73.25 21.852 72.426 21.6811 71.3089L18.629 51.4704C18.5283 50.8111 18.7175 50.1366 19.154 49.63C19.5904 49.1233 20.2222 48.8334 20.8906 48.8334H52.9375C53.6059 48.8334 54.2407 49.1264 54.6741 49.633C55.1075 50.1397 55.2998 50.8111 55.1991 51.4734L52.147 71.312C51.9761 72.426 51.0147 73.25 49.8854 73.25Z" fill="#2884CA"/>
<path d="M36.9139 24.4167C43.6564 24.4167 49.1222 18.9508 49.1222 12.2083C49.1222 5.46586 43.6564 0 36.9139 0C30.1714 0 24.7056 5.46586 24.7056 12.2083C24.7056 18.9508 30.1714 24.4167 36.9139 24.4167Z" fill="#2884CA"/>
<path d="M71.1492 39.6771C70.6639 32.9106 67.0258 26.6477 61.3276 22.8601C61.3123 20.3452 59.2705 18.3125 56.7525 18.3125C54.2254 18.3125 52.1744 20.3635 52.1744 22.8906C52.1744 25.4178 54.2254 27.4688 56.7525 27.4688C57.5888 27.4688 58.361 27.2276 59.0355 26.837C63.3298 29.7944 66.1041 34.5343 66.5711 39.6771H61.1475C60.0488 32.7794 54.0667 27.4688 46.8332 27.4688H26.9947C19.7613 27.4688 13.7792 32.7794 12.6804 39.6771H2.57804C0.957382 39.6771 -0.0894824 41.3191 0.411059 42.7597L6.51523 59.5462C6.85096 60.4313 7.70554 61.0417 8.68221 61.0417H13.9318L12.5889 52.4043C12.2226 49.9626 12.9246 47.5209 14.5117 45.6592C15.8729 44.0263 18.281 42.7292 20.8905 42.7292H52.9374C55.2417 42.7292 57.5674 43.6784 59.3163 45.6592C60.9034 47.5209 61.6053 49.9626 61.2391 52.4043L59.8962 61.0417H65.1458C66.1224 61.0417 66.977 60.4313 67.3127 59.5462L73.4169 42.7597C73.8991 41.371 72.9774 39.6771 71.1492 39.6771Z" fill="#2884CA"/>
</g>
<defs>
<clipPath id="clip0_58_15539">
<rect width="73.25" height="73.25" fill="white" transform="translate(0.289062)"/>
</clipPath>
</defs>
</svg>
