<svg width="70" height="71" viewBox="0 0 70 71" fill="none" xmlns="http://www.w3.org/2000/svg">
<path d="M63.379 38.8607C60.816 38.203 58.3321 37.2691 55.9707 36.0753C55.2415 35.7107 54.5707 35.3607 53.9582 35.0253C52.7478 34.3545 51.7853 33.7565 51.1582 33.3482C51.1224 33.323 51.0831 33.3034 51.0415 33.2899C50.5792 33.0204 50.0517 32.8833 49.5167 32.8936C48.9816 32.9039 48.4598 33.0612 48.0082 33.3482C44.2454 35.8089 40.1224 37.6686 35.7873 38.8607C35.1492 39.0158 34.5813 39.3801 34.1742 39.8955C33.7672 40.4109 33.5444 41.0477 33.5415 41.7045V44.1982C33.54 47.7997 34.4285 51.3457 36.128 54.5209C37.8276 57.6961 40.2855 60.4021 43.2832 62.3982L44.6394 63.3024L47.9644 65.519C48.228 65.6927 48.5188 65.8208 48.8248 65.8982H48.8394C49.0785 65.9806 49.3303 66.0201 49.5832 66.0149C50.1594 66.0099 50.7218 65.8377 51.2019 65.519L55.8832 62.3982C58.8808 60.4021 61.3388 57.6961 63.0383 54.5209C64.7379 51.3457 65.6264 47.7997 65.6248 44.1982V41.7045C65.6219 41.0477 65.3992 40.4109 64.9921 39.8955C64.5851 39.3801 64.0172 39.0158 63.379 38.8607ZM54.9936 46.8378L49.1603 52.6711C48.8838 52.9423 48.512 53.0941 48.1248 53.0941C47.7376 53.0941 47.3659 52.9423 47.0894 52.6711L44.1728 49.7545C43.8981 49.4799 43.7439 49.1074 43.7439 48.719C43.7439 48.3307 43.8981 47.9582 44.1728 47.6836C44.4474 47.409 44.8198 47.2547 45.2082 47.2547C45.5965 47.2547 45.969 47.409 46.2436 47.6836L48.1248 49.5795L52.9228 44.767C53.0587 44.631 53.2201 44.5231 53.3978 44.4495C53.5755 44.376 53.7659 44.3381 53.9582 44.3381C54.1505 44.3381 54.3409 44.376 54.5185 44.4495C54.6962 44.5231 54.8576 44.631 54.9936 44.767C55.1296 44.9029 55.2374 45.0644 55.311 45.242C55.3846 45.4197 55.4225 45.6101 55.4225 45.8024C55.4225 45.9947 55.3846 46.1851 55.311 46.3627C55.2374 46.5404 55.1296 46.7018 54.9936 46.8378Z" fill="#2884CA"/>
<path d="M51.8875 19.9023L39.4188 7.15644C38.9712 6.70356 38.4662 6.31133 37.9167 5.98977V16.6356C37.9201 17.7949 38.3822 18.9057 39.2019 19.7254C40.0216 20.5451 41.1324 21.0071 42.2917 21.0106H52.7771C52.514 20.6155 52.2163 20.2446 51.8875 19.9023ZM53.8708 23.9273H42.2917C40.3578 23.9273 38.5031 23.159 37.1357 21.7916C35.7682 20.4241 35 18.5695 35 16.6356V5.02727C34.7396 4.9861 34.4762 4.96659 34.2125 4.96894H11.6667C9.7328 4.96894 7.87813 5.73717 6.51068 7.10462C5.14323 8.47207 4.375 10.3267 4.375 12.2606V58.9273C4.375 60.8611 5.14323 62.7158 6.51068 64.0833C7.87813 65.4507 9.7328 66.2189 11.6667 66.2189H43.7646L41.6646 64.8189C38.2667 62.5587 35.4805 59.4932 33.5544 55.8953C31.6283 52.2975 30.6219 48.2791 30.625 44.1981V41.7044C30.6256 40.8025 30.8352 39.913 31.2376 39.1058C31.6399 38.2986 32.2239 37.5957 32.9438 37.0523H14.5833C14.1966 37.0523 13.8256 36.8986 13.5521 36.6251C13.2786 36.3516 13.125 35.9807 13.125 35.5939C13.125 35.2072 13.2786 34.8362 13.5521 34.5627C13.8256 34.2893 14.1966 34.1356 14.5833 34.1356H40.4542C42.5192 33.2044 44.5128 32.1223 46.4188 30.8981C47.2738 30.3549 48.2545 30.0413 49.2661 29.9877C50.2777 29.934 51.286 30.1421 52.1938 30.5919L52.2958 30.6356L52.7333 30.8981C53.0396 31.1023 53.4479 31.3502 53.9583 31.6564V25.0064C53.9588 24.6449 53.9295 24.284 53.8708 23.9273ZM30.625 53.0939C30.625 53.4807 30.4714 53.8517 30.1979 54.1251C29.9244 54.3986 29.5534 54.5523 29.1667 54.5523H14.5833C14.1966 54.5523 13.8256 54.3986 13.5521 54.1251C13.2786 53.8517 13.125 53.4807 13.125 53.0939C13.125 52.7072 13.2786 52.3362 13.5521 52.0627C13.8256 51.7893 14.1966 51.6356 14.5833 51.6356H29.1667C29.5534 51.6356 29.9244 51.7893 30.1979 52.0627C30.4714 52.3362 30.625 52.7072 30.625 53.0939ZM14.5833 42.8856H26.25C26.6368 42.8856 27.0077 43.0392 27.2812 43.3127C27.5547 43.5862 27.7083 43.9572 27.7083 44.3439C27.7083 44.7307 27.5547 45.1016 27.2812 45.3751C27.0077 45.6486 26.6368 45.8023 26.25 45.8023H14.5833C14.1966 45.8023 13.8256 45.6486 13.5521 45.3751C13.2786 45.1016 13.125 44.7307 13.125 44.3439C13.125 43.9572 13.2786 43.5862 13.5521 43.3127C13.8256 43.0392 14.1966 42.8856 14.5833 42.8856ZM14.5833 16.6356H26.25C26.6368 16.6356 27.0077 16.7893 27.2812 17.0627C27.5547 17.3362 27.7083 17.7072 27.7083 18.0939C27.7083 18.4807 27.5547 18.8516 27.2812 19.1251C27.0077 19.3986 26.6368 19.5523 26.25 19.5523H14.5833C14.1966 19.5523 13.8256 19.3986 13.5521 19.1251C13.2786 18.8516 13.125 18.4807 13.125 18.0939C13.125 17.7072 13.2786 17.3362 13.5521 17.0627C13.8256 16.7893 14.1966 16.6356 14.5833 16.6356ZM35 28.3023H14.5833C14.1966 28.3023 13.8256 28.1486 13.5521 27.8751C13.2786 27.6016 13.125 27.2307 13.125 26.8439C13.125 26.4572 13.2786 26.0862 13.5521 25.8127C13.8256 25.5393 14.1966 25.3856 14.5833 25.3856H35C35.3868 25.3856 35.7577 25.5393 36.0312 25.8127C36.3047 26.0862 36.4583 26.4572 36.4583 26.8439C36.4583 27.2307 36.3047 27.6016 36.0312 27.8751C35.7577 28.1486 35.3868 28.3023 35 28.3023Z" fill="#2884CA"/>
</svg>
