<svg width="85" height="63" viewBox="0 0 85 63" fill="none" xmlns="http://www.w3.org/2000/svg">
<path d="M79.0151 45.4563C79.6395 44.9972 80.1317 44.3815 80.442 43.6714C80.7524 42.9613 80.87 42.1818 80.7829 41.4117C80.6959 40.6417 80.4072 39.9082 79.9461 39.2853C79.4849 38.6624 78.8677 38.1722 78.1566 37.864V31.8082L74.6162 33.3129V37.864C73.9047 38.172 73.2871 38.6623 72.8257 39.2853C72.3643 39.9084 72.0754 40.6421 71.9883 41.4125C71.9012 42.1829 72.019 42.9626 72.3296 43.673C72.6403 44.3833 73.1329 44.9991 73.7577 45.4581C73.2019 45.8664 72.7498 46.3994 72.4377 47.0144C72.1257 47.6293 71.9624 48.3089 71.9609 48.9985V53.4222C71.9609 53.8917 72.1474 54.3419 72.4794 54.6739C72.8114 55.0059 73.2616 55.1924 73.7311 55.1924H79.0417C79.5112 55.1924 79.9614 55.0059 80.2934 54.6739C80.6254 54.3419 80.8119 53.8917 80.8119 53.4222V48.9967C80.8104 48.3071 80.6471 47.6275 80.3351 47.0126C80.023 46.3977 79.5709 45.8646 79.0151 45.4563Z" fill="#2884CA"/>
<path d="M69.3054 35.5541V48.6534C69.315 50.1763 68.9283 51.6754 68.1835 53.0037C67.4387 54.332 66.3612 55.4437 65.057 56.2298C58.2885 60.1829 50.591 62.266 42.7526 62.266C34.9143 62.266 27.2168 60.1829 20.4483 56.2298C19.1441 55.4437 18.0666 54.332 17.3218 53.0037C16.577 51.6754 16.1903 50.1763 16.1999 48.6534V35.5541L37.92 44.7413C39.4501 45.384 41.0931 45.715 42.7526 45.715C44.4122 45.715 46.0551 45.384 47.5852 44.7413L69.3054 35.5541Z" fill="#2884CA"/>
<path d="M81.76 16.6647L46.2006 1.61811C45.1078 1.15842 43.9342 0.921631 42.7487 0.921631C41.5632 0.921631 40.3896 1.15842 39.2968 1.61811L3.73737 16.6647C2.77623 17.0712 1.95617 17.7519 1.37962 18.6218C0.80308 19.4917 0.495605 20.5121 0.495605 21.5557C0.495605 22.5993 0.80308 23.6197 1.37962 24.4896C1.95617 25.3595 2.77623 26.0402 3.73737 26.4467L39.2968 41.4933C40.3895 41.9535 41.5631 42.1905 42.7487 42.1905C43.9343 42.1905 45.1079 41.9535 46.2006 41.4933L81.76 26.4467C82.7212 26.0402 83.5412 25.3595 84.1178 24.4896C84.6943 23.6197 85.0018 22.5993 85.0018 21.5557C85.0018 20.5121 84.6943 19.4917 84.1178 18.6218C83.5412 17.7519 82.7212 17.0712 81.76 16.6647Z" fill="#2884CA"/>
</svg>
