<svg width="71" height="71" viewBox="0 0 71 71" fill="none" xmlns="http://www.w3.org/2000/svg">
<path fill-rule="evenodd" clip-rule="evenodd" d="M66.8759 14.4804C66.8759 16.1198 67.0347 15.8872 65.2016 16.3794C65.0582 16.891 64.8529 17.3908 64.5854 17.8676L65.2016 18.9333C65.3527 19.1929 65.3102 19.5108 65.097 19.7238L63.7561 21.0647C63.5468 21.2779 63.229 21.3167 62.9694 21.1693L61.8999 20.5531C61.4271 20.8167 60.9271 21.0221 60.4155 21.1655L60.0938 22.3592C60.0395 22.5607 59.8961 22.7196 59.714 22.7933C59.2567 21.4136 58.6211 20.1735 57.7917 18.976C60.5588 19.4177 63.0702 17.2862 63.0702 14.4804C63.0702 11.9652 61.0317 9.92667 58.5165 9.92667C55.7765 9.92667 53.6605 12.3255 53.9977 15.0462C52.9203 14.2285 51.7537 13.531 50.5291 12.9419L51.8274 12.5815C51.9746 12.0699 52.1801 11.57 52.4436 11.0933L51.8274 10.0276C51.6801 9.76794 51.7188 9.45007 51.932 9.24089L53.2729 7.89613C53.4861 7.68681 53.8039 7.64429 54.0636 7.79537L55.1293 8.41156C55.606 8.14414 56.102 7.93878 56.6175 7.79537L56.9352 6.6055C57.0127 6.31484 57.2685 6.12111 57.567 6.12111H59.466C59.7645 6.12111 60.0163 6.31484 60.0938 6.6055L60.4155 7.79537C60.9271 7.93878 61.427 8.14414 61.8999 8.41156L62.9694 7.79537C63.229 7.64429 63.5469 7.68681 63.7561 7.89613L65.097 9.24089C65.3102 9.45021 65.3528 9.76794 65.2016 10.0276L64.5854 11.0933C64.8529 11.57 65.0582 12.07 65.2016 12.5815C67.0347 13.0737 66.8759 12.8411 66.8759 14.4805V14.4804ZM61.427 14.4804C61.427 12.872 60.1248 11.5661 58.5165 11.5661C56.9081 11.5661 55.6021 12.8721 55.6021 14.4804C55.6021 16.0886 56.9081 17.3948 58.5165 17.3948C60.1248 17.3948 61.427 16.0887 61.427 14.4804ZM62.7795 35.6987C58.7955 31.9008 59.1133 31.397 58.811 26.7153C58.6637 24.4714 58.0243 22.5027 57.0089 20.7936C54.0674 15.8253 48.4596 13.0465 42.4642 12.3296C43.2819 13.3721 43.3943 14.8022 42.72 15.9727L41.6427 17.8368C42.0108 18.581 42.3286 19.3482 42.596 20.1349L44.6733 20.693C46.1112 21.0766 47.0916 22.3556 47.0916 23.8438V28.5487C47.0916 30.0331 46.111 31.3119 44.6733 31.6956L42.596 32.2537C42.3286 33.0403 42.0108 33.8116 41.6427 34.5557L42.72 36.4199C43.464 37.7066 43.2509 39.3033 42.2006 40.3536L38.8755 43.6827C37.8252 44.7329 36.2246 44.9423 34.938 44.1981L33.0738 43.1246C32.3296 43.4928 31.5624 43.8105 30.7756 44.0741L30.2175 46.1552C29.8338 47.5891 28.5548 48.5735 27.0667 48.5735H24.408C26.404 51.3716 27.3884 54.7975 27.1558 58.27V65.7381H48.0757V62.4324C48.4787 55.3092 58.2411 59.4444 60.4423 57.6732C61.4848 56.8323 61.8918 55.4332 61.4693 54.1659C61.3453 53.3017 60.7562 52.3289 61.2213 51.6855C62.0312 50.5577 62.136 49.4532 61.7832 48.3874C61.6011 47.8332 61.6631 47.2829 61.9615 46.7829C62.8141 45.3644 62.6514 44.101 61.4693 42.9927C60.8105 42.0277 61.2833 41.1169 62.8954 40.2565C64.8177 39.1133 64.7789 37.594 62.7792 35.699L62.7795 35.6987ZM23.7842 57.3744C23.7842 59.0136 23.943 58.7812 22.1099 59.2734C21.9627 59.785 21.7612 60.2848 21.4937 60.7616L22.1099 61.8273C22.261 62.0869 22.2185 62.4048 22.0053 62.6179L20.6644 63.9589C20.4513 64.172 20.1373 64.2107 19.8777 64.0635L18.8082 63.4473C18.3354 63.7107 17.8354 63.9162 17.3238 64.0635L17.0021 65.2533C16.9246 65.544 16.6728 65.7377 16.3703 65.7377H14.4753C14.173 65.7377 13.9212 65.544 13.8436 65.2533L13.5259 64.0635C13.0105 63.9162 12.5105 63.7107 12.0377 63.4473L10.972 64.0635C10.7124 64.2107 10.3945 64.172 10.1813 63.9589L8.84041 62.6179C8.62727 62.4048 8.58461 62.0871 8.73582 61.8273L9.35201 60.7616C9.08855 60.2848 8.88307 59.785 8.73582 59.2734L7.54609 58.9557C7.25543 58.8781 7.0617 58.6223 7.0617 58.3239V56.4249C7.0617 56.1264 7.25543 55.8746 7.54609 55.797L8.73582 55.4753C8.88307 54.9637 9.08855 54.4639 9.35201 53.991L8.73582 52.9213C8.58475 52.6617 8.62727 52.3438 8.84041 52.1346L10.1813 50.7937C10.3945 50.5805 10.7124 50.5379 10.972 50.6891L12.0377 51.3053C12.5105 51.0379 13.0105 50.8325 13.5259 50.6891L13.8436 49.4994C13.9212 49.2087 14.173 49.015 14.4753 49.015H16.3703C16.6726 49.015 16.9246 49.2087 17.0021 49.4994L17.3238 50.6891C17.8354 50.8325 18.3353 51.0379 18.8082 51.3053L19.8777 50.6891C20.1373 50.5379 20.4513 50.5805 20.6644 50.7937L22.0053 52.1346C22.2185 52.3439 22.2611 52.6617 22.1099 52.9213L21.4937 53.987C21.7612 54.4638 21.9627 54.9636 22.1099 55.4752C23.943 55.9674 23.7842 55.735 23.7842 57.3744ZM19.9785 57.3744C19.9785 54.8592 17.9362 52.8207 15.4248 52.8207C12.9134 52.8207 10.8711 54.8592 10.8711 57.3744C10.8711 59.8896 12.9096 61.9281 15.4248 61.9281C17.94 61.9281 19.9785 59.8896 19.9785 57.3744ZM8.13494 30.9047L5.17799 30.114C4.46104 29.9203 3.98047 29.2925 3.98047 28.5483V23.8434C3.98047 23.0993 4.46104 22.4714 5.17799 22.2777L8.13111 21.4871C8.4915 20.2159 9.00311 18.9757 9.65799 17.7976L8.13111 15.1506C7.7591 14.5072 7.86369 13.7205 8.38691 13.1973L11.716 9.86816C12.2431 9.34111 13.0259 9.24035 13.6731 9.61236L16.3162 11.1392C17.4943 10.4804 18.7345 9.97275 20.0057 9.61236L20.7963 6.65923C20.9901 5.94228 21.6179 5.45789 22.362 5.45789H27.0669C27.8111 5.45789 28.4389 5.94228 28.6326 6.65923L29.4233 9.61236C30.6945 9.97275 31.9345 10.4805 33.1128 11.1392L35.7598 9.61236C36.4032 9.24035 37.1899 9.34111 37.7131 9.86816L41.0422 13.1973C41.5654 13.7205 41.67 14.5072 41.298 15.1506L39.7711 17.7976C40.43 18.9757 40.9376 20.2159 41.298 21.4871L44.2511 22.2777C44.9681 22.4714 45.4525 23.0993 45.4525 23.8434V28.5483C45.4525 29.2925 44.9681 29.9203 44.2511 30.114L41.298 30.9047C40.9376 32.1759 40.4298 33.416 39.7711 34.5942L41.298 37.2372C41.67 37.8806 41.5654 38.6673 41.0422 39.1943L37.7131 42.5195C37.1899 43.0465 36.4032 43.1511 35.7598 42.7791L33.1128 41.2522C31.9347 41.9072 30.6945 42.4187 29.4233 42.7753L28.6326 45.7322C28.4389 46.4492 27.8111 46.9297 27.0669 46.9297H22.362C21.6179 46.9297 20.9901 46.4492 20.7963 45.7322L20.0057 42.7753C18.7345 42.4187 17.4943 41.9071 16.3162 41.2522L13.6731 42.7791C13.0259 43.1511 12.2431 43.0465 11.716 42.5195L8.38691 39.1943C7.86369 38.6673 7.7591 37.8806 8.13111 37.2372L9.65799 34.5942C8.99914 33.416 8.4915 32.1759 8.13494 30.9047ZM13.4172 26.1959C13.4172 32.4355 18.4747 37.493 24.7143 37.493C30.9538 37.493 36.0152 32.4355 36.0152 26.1959C36.0152 19.9564 30.9537 14.895 24.7143 14.895C18.4748 14.895 13.4172 19.9565 13.4172 26.1959ZM15.0565 26.1959C15.0565 20.8594 19.3816 16.5383 24.7141 16.5383C30.0467 16.5383 34.3718 20.8594 34.3718 26.1959C34.3718 31.5325 30.0507 35.8536 24.7141 35.8536C19.3776 35.8536 15.0565 31.5285 15.0565 26.1959ZM18.618 25.7192L21.4277 30.5908C21.6989 31.0557 22.3384 31.1372 22.7144 30.7574L30.6823 22.7894C31.004 22.4717 31.004 21.9523 30.6823 21.6306C30.3646 21.3129 29.8452 21.3129 29.5235 21.6306L22.3112 28.8429L20.0323 24.9016C19.8076 24.5102 19.3076 24.3746 18.9162 24.6032C18.5247 24.8279 18.3891 25.3317 18.6177 25.7193L18.618 25.7192ZM15.4246 54.4638C13.8125 54.4638 12.5104 55.7659 12.5104 57.3742C12.5104 58.9826 13.8125 60.2885 15.4246 60.2885C17.0368 60.2885 18.3351 58.9825 18.3351 57.3742C18.3351 55.766 17.033 54.4638 15.4246 54.4638Z" fill="#2884CA"/>
</svg>
