<svg width="71" height="71" viewBox="0 0 71 71" fill="none" xmlns="http://www.w3.org/2000/svg">
<path d="M15.4963 54.1273H61.8198C63.5286 54.1273 64.908 52.7479 64.908 51.0391V5.74497C64.908 4.03615 63.5286 2.65674 61.8198 2.65674H15.4963C9.81391 2.65674 5.20215 7.2685 5.20215 12.9509V58.245C5.20215 63.9273 9.81391 68.5391 15.4963 68.5391H61.8198C63.5286 68.5391 64.908 67.1597 64.908 65.4509C64.908 63.742 63.5286 62.3626 61.8198 62.3626H15.4963C13.2316 62.3626 11.3786 60.5097 11.3786 58.245C11.3786 55.9803 13.2316 54.1273 15.4963 54.1273ZM37.2374 43.9567C36.661 44.5332 35.858 44.8626 35.0551 44.8626C34.2521 44.8626 33.4492 44.5332 32.8727 43.9567C32.2963 43.3803 31.9669 42.5979 31.9669 41.7744C31.9669 40.9714 32.2963 40.1685 32.8727 39.592C34.0257 38.4391 36.0845 38.4391 37.2374 39.592C37.8139 40.1685 38.1433 40.9714 38.1433 41.7744C38.1433 42.5979 37.8139 43.3803 37.2374 43.9567ZM29.1051 14.0832C31.2051 12.3332 33.9845 11.592 36.7021 12.0656C40.4492 12.7244 43.5169 15.792 44.1757 19.5391C44.8551 23.4714 43.0021 27.3832 39.5227 29.2979C38.6786 29.7714 38.1433 30.8214 38.1433 32.0156V32.5097C38.1433 34.2185 36.7639 35.5979 35.0551 35.5979C33.3463 35.5979 31.9669 34.2185 31.9669 32.5097V32.0156C31.9669 28.5567 33.7169 25.4479 36.5374 23.9038C37.4433 23.4097 38.3698 22.2362 38.0816 20.6097C37.8757 19.395 36.8463 18.3656 35.6521 18.1597C34.6845 17.9744 33.7786 18.2214 33.0786 18.8185C32.3786 19.4156 31.9669 20.2803 31.9669 21.1861C31.9669 22.895 30.5874 24.2744 28.8786 24.2744C27.1698 24.2744 25.7904 22.895 25.7904 21.1861C25.7904 18.4479 27.0051 15.8538 29.1051 14.0832Z" fill="#2884CA"/>
</svg>
