<svg width="70" height="71" viewBox="0 0 70 71" fill="none" xmlns="http://www.w3.org/2000/svg">
<path d="M45.4887 22.557L27.2197 31.1202L32.5673 33.7115C32.6364 33.7422 32.7033 33.7777 32.7676 33.8176L46.3721 40.402L50.5065 38.4114L44.3461 31.9212C44.1378 31.6935 44.027 31.3931 44.0377 31.0845C44.0484 30.776 44.1796 30.484 44.4032 30.2712C44.6269 30.0583 44.925 29.9417 45.2337 29.9463C45.5424 29.9509 45.837 30.0764 46.0541 30.2958L52.7327 37.3513L58.9519 34.3712C59.2284 34.2126 63.9975 31.9452 64.4291 31.7327L45.4887 22.557Z" fill="#2884CA"/>
<path d="M58.3992 42.475C58.4073 42.4283 58.4112 42.381 58.4109 42.3337V37.2335L53.6641 39.5068L53.8172 46.6566C55.623 45.8721 57.7649 44.172 58.3992 42.475Z" fill="#2884CA"/>
<path d="M49.7415 47.8108C50.3285 47.7401 50.9107 47.6339 51.4848 47.4928L51.3317 40.6257L47.2208 42.6046C46.9552 42.7354 46.663 42.8035 46.3669 42.8035C46.0708 42.8035 45.7786 42.7354 45.513 42.6046L33.2865 36.6798V42.3925C33.2817 42.4333 33.2899 42.4745 33.31 42.5104C33.8401 43.6765 37.0557 49.2596 49.7415 47.8108Z" fill="#2884CA"/>
<path d="M54.0168 55.8793C53.9939 56.1208 53.9175 56.3542 53.793 56.5625C53.9399 56.3652 54.0185 56.1253 54.0168 55.8793Z" fill="#2884CA"/>
<path d="M54.0168 55.844C54.0097 55.755 54.045 55.6105 53.9697 55.5377C54.0034 55.6362 54.0194 55.7399 54.0168 55.844Z" fill="#2884CA"/>
<path d="M57.8566 46.892C56.6638 47.8758 55.3192 48.6595 53.8754 49.2125L54.0167 55.6084L55.8306 59.4129C55.9583 59.6932 55.9709 60.0123 55.8657 60.3018C55.7604 60.5912 55.5458 60.8277 55.2679 60.9605C54.99 61.0932 54.6711 61.1116 54.3798 61.0116C54.0886 60.9116 53.8482 60.7013 53.7104 60.4258L52.78 58.4824L51.7434 60.4377C51.5944 60.7073 51.3456 60.9078 51.0505 60.9962C50.7554 61.0846 50.4374 61.0538 50.1647 60.9105C49.892 60.7672 49.6863 60.5228 49.5916 60.2296C49.497 59.9364 49.521 59.6178 49.6586 59.3422L51.6492 55.5613L51.5314 49.9074C41.13 51.8877 33.0418 48.2028 31.1777 43.5112C31.0101 43.1623 30.9254 42.7795 30.9302 42.3925V35.5373L25.4648 32.887C25.1307 32.7259 24.8493 32.4732 24.6532 32.1583C24.4572 31.8434 24.3547 31.4793 24.3576 31.1084C24.3555 30.7362 24.4612 30.3714 24.6618 30.0579C24.8625 29.7444 25.1495 29.4956 25.4884 29.3416L44.6525 20.3425C44.9186 20.2193 45.2087 20.1565 45.5019 20.1585C45.7951 20.1605 46.0843 20.2274 46.3486 20.3543L58.8696 26.4087V9.01129C58.8671 8.01865 58.4716 7.06738 57.7697 6.36548C57.0678 5.66357 56.1166 5.26813 55.1239 5.26562H9.31597C8.32333 5.26813 7.37206 5.66356 6.67015 6.36547C5.96825 7.06738 5.57281 8.01865 5.57031 9.01129V62.77C5.57281 63.7626 5.96825 64.7139 6.67015 65.4158C7.37206 66.1177 8.32333 66.5131 9.31597 66.5156H55.1239C56.1166 66.5131 57.0678 66.1177 57.7697 65.4158C58.4717 64.7139 58.8671 63.7626 58.8696 62.77V45.9379C58.5549 46.2795 58.2164 46.5983 57.8566 46.892ZM14.0157 15.7488H50.4242C50.7327 15.7546 51.0267 15.8812 51.2429 16.1015C51.459 16.3218 51.5801 16.6181 51.5801 16.9267C51.5801 17.2353 51.459 17.5316 51.2428 17.7518C51.0266 17.9721 50.7327 18.0987 50.4241 18.1045H14.0157C13.7065 18.0997 13.4116 17.9735 13.1946 17.7531C12.9776 17.5328 12.856 17.2359 12.856 16.9266C12.856 16.6174 12.9776 16.3205 13.1946 16.1001C13.4116 15.8798 13.7065 15.7536 14.0157 15.7488ZM14.0157 23.3343H29.0338C29.3437 23.338 29.6398 23.4637 29.8577 23.6842C30.0756 23.9047 30.1978 24.2022 30.1978 24.5122C30.1978 24.8223 30.0756 25.1198 29.8577 25.3403C29.6397 25.5608 29.3437 25.6865 29.0337 25.6901H14.0157C13.706 25.686 13.4104 25.5601 13.1929 25.3396C12.9754 25.1192 12.8534 24.8219 12.8534 24.5122C12.8534 24.2025 12.9754 23.9053 13.1929 23.6848C13.4104 23.4644 13.706 23.3384 14.0157 23.3343ZM14.0157 30.9199H19.3045C19.6144 30.9237 19.9103 31.0495 20.1281 31.27C20.3459 31.4904 20.4681 31.7879 20.4681 32.0978C20.4681 32.4078 20.3459 32.7052 20.1281 32.9257C19.9103 33.1462 19.6143 33.2719 19.3044 33.2757H14.0157C13.7058 33.2719 13.4099 33.1461 13.1921 32.9257C12.9743 32.7052 12.8521 32.4077 12.8521 32.0978C12.8521 31.7879 12.9743 31.4904 13.1921 31.2699C13.4099 31.0495 13.7058 30.9237 14.0157 30.9199ZM14.0157 38.5055H26.6191C26.9278 38.5112 27.2219 38.6377 27.4382 38.858C27.6544 39.0783 27.7756 39.3747 27.7756 39.6834C27.7756 39.9921 27.6544 40.2885 27.4381 40.5088C27.2218 40.7291 26.9277 40.8556 26.619 40.8613H14.0157C13.7058 40.8575 13.4099 40.7317 13.1921 40.5112C12.9743 40.2908 12.8521 39.9933 12.8521 39.6834C12.8521 39.3735 12.9743 39.076 13.1921 38.8555C13.4099 38.635 13.7058 38.5093 14.0157 38.5055ZM14.0157 46.0911H28.28C28.5887 46.0966 28.883 46.2231 29.0994 46.4434C29.3158 46.6637 29.4371 46.9602 29.4371 47.269C29.4371 47.5778 29.3158 47.8743 29.0994 48.0946C28.8829 48.3149 28.5887 48.4414 28.2799 48.4469H14.0157C13.7055 48.4436 13.4091 48.3181 13.1908 48.0975C12.9726 47.877 12.8502 47.5792 12.8502 47.269C12.8502 46.9587 12.9726 46.661 13.1908 46.4404C13.4091 46.2199 13.7055 46.0943 14.0157 46.0911ZM43.2508 56.0324H14.0157C13.7058 56.0286 13.4099 55.9029 13.1921 55.6824C12.9743 55.4619 12.8521 55.1645 12.8521 54.8545C12.8521 54.5446 12.9743 54.2472 13.1921 54.0267C13.4099 53.8062 13.7058 53.6804 14.0157 53.6767H43.2508C43.5601 53.6815 43.855 53.8077 44.072 54.0281C44.2889 54.2484 44.4106 54.5453 44.4106 54.8545C44.4106 55.1638 44.2889 55.4607 44.072 55.681C43.855 55.9014 43.5601 56.0276 43.2508 56.0324Z" fill="#2884CA"/>
</svg>
