<svg width="71" height="71" viewBox="0 0 71 71" fill="none" xmlns="http://www.w3.org/2000/svg">
<g clip-path="url(#clip0_58_15127)">
<path d="M44.7109 19.8334C43.1009 19.8334 41.7943 18.5267 41.7943 16.9167V12.5417H30.1276V16.9167C30.1276 18.5267 28.8209 19.8334 27.2109 19.8334C25.6009 19.8334 24.2943 18.5267 24.2943 16.9167V12.5417C24.2943 9.32462 26.9105 6.70837 30.1276 6.70837H41.7943C45.0114 6.70837 47.6276 9.32462 47.6276 12.5417V16.9167C47.6276 18.5267 46.3209 19.8334 44.7109 19.8334Z" fill="#2884CA"/>
<path d="M38.0318 45.7334C37.5068 45.9376 36.7484 46.0834 35.9609 46.0834C35.1734 46.0834 34.4151 45.9376 33.7151 45.6751L0.960938 34.7667V57.0209C0.960938 61.4542 4.54844 65.0417 8.98177 65.0417H62.9401C67.3734 65.0417 70.9609 61.4542 70.9609 57.0209V34.7667L38.0318 45.7334Z" fill="#2884CA"/>
<path d="M70.9609 23.4792V30.1584L36.6609 41.5917C36.4276 41.6792 36.1943 41.7084 35.9609 41.7084C35.7276 41.7084 35.4943 41.6792 35.2609 41.5917L0.960938 30.1584V23.4792C0.960938 19.0459 4.54844 15.4584 8.98177 15.4584H62.9401C67.3734 15.4584 70.9609 19.0459 70.9609 23.4792Z" fill="#2884CA"/>
</g>
<defs>
<clipPath id="clip0_58_15127">
<rect width="70" height="70" fill="white" transform="translate(0.960938 0.875)"/>
</clipPath>
</defs>
</svg>
