<svg width="71" height="71" viewBox="0 0 71 71" fill="none" xmlns="http://www.w3.org/2000/svg">
<g clip-path="url(#clip0_58_15401)">
<g clip-path="url(#clip1_58_15401)">
<g clip-path="url(#clip2_58_15401)">
<path d="M21.4628 21.9615C21.3376 22.9613 21.2725 23.9795 21.2725 25.0128C21.2725 26.1117 21.3467 27.1934 21.4881 28.2542H41.0639C36.71 24.2325 30.8944 21.7712 24.514 21.7712C23.4809 21.7712 22.4626 21.8363 21.4628 21.9615Z" fill="#2884CA"/>
<path d="M44.623 32.3573H22.4023C23.1395 34.6891 24.2184 36.87 25.5792 38.8425H47.7992C47.0623 36.5107 45.9836 34.3298 44.623 32.3573Z" fill="#2884CA"/>
<path d="M24.5143 70.5988C35.4474 70.5988 44.7248 63.375 47.8245 53.4497C47.1187 53.5022 46.4057 53.5295 45.6866 53.5295C29.9623 53.5295 17.1697 40.737 17.1697 25.0127C17.1697 24.2936 17.1971 23.5806 17.2497 22.8748C7.32444 25.9745 0.100586 35.2518 0.100586 46.1849C0.100586 59.6467 11.0526 70.5988 24.5143 70.5988Z" fill="#2884CA"/>
<path d="M48.7125 42.9454H29.1387C33.4924 46.9659 39.307 49.4265 45.6863 49.4265C46.7195 49.4265 47.7377 49.3614 48.7375 49.2361C48.8628 48.2363 48.9279 47.2181 48.9279 46.1848C48.9279 45.0867 48.8536 44.0057 48.7125 42.9454Z" fill="#2884CA"/>
<path d="M45.6871 0.598877C34.7541 0.598877 25.4767 7.82273 22.377 17.748C23.0828 17.6955 23.7958 17.6682 24.5149 17.6682C40.2392 17.6682 53.0317 30.4607 53.0317 46.185C53.0317 46.9041 53.0044 47.6171 52.9517 48.3229C62.877 45.2232 70.1009 35.9458 70.1009 25.0128C70.101 11.5509 59.149 0.598877 45.6871 0.598877Z" fill="#2884CA"/>
</g>
</g>
</g>
<defs>
<clipPath id="clip0_58_15401">
<rect width="70" height="70" fill="white" transform="translate(0.117188 0.5979)"/>
</clipPath>
<clipPath id="clip1_58_15401">
<rect width="70" height="70" fill="white" transform="translate(0.101562 0.597534)"/>
</clipPath>
<clipPath id="clip2_58_15401">
<rect width="70" height="70" fill="white" transform="translate(0.100586 0.598877)"/>
</clipPath>
</defs>
</svg>
