<svg width="71" height="71" viewBox="0 0 71 71" fill="none" xmlns="http://www.w3.org/2000/svg">
<g clip-path="url(#clip0_58_15131)">
<path d="M44.1406 4.97656H41.7394C40.8922 2.58932 38.6112 0.875 35.9375 0.875C33.2638 0.875 30.9828 2.58932 30.1356 4.97656H27.7344C24.3418 4.97656 21.582 7.73637 21.582 11.1289C21.582 12.2624 22.4993 13.1797 23.6328 13.1797H48.2422C49.3757 13.1797 50.293 12.2624 50.293 11.1289C50.293 7.73637 47.5332 4.97656 44.1406 4.97656Z" fill="#2884CA"/>
<path d="M56.4453 9.07812H54.187C54.3222 9.74107 54.3945 10.4267 54.3945 11.1289C54.3945 14.5214 51.6347 17.2812 48.2422 17.2812H23.6328C20.2403 17.2812 17.4805 14.5214 17.4805 11.1289C17.4805 10.4267 17.5528 9.74107 17.688 9.07812H15.4297C12.0371 9.07812 9.27734 11.8379 9.27734 15.2305V64.7227C9.27734 68.1152 12.0371 70.875 15.4297 70.875H56.4453C59.8379 70.875 62.5977 68.1152 62.5977 64.7227V15.2305C62.5977 11.8379 59.8379 9.07812 56.4453 9.07812ZM29.7852 58.2969H21.582C20.4485 58.2969 19.5312 57.3796 19.5312 56.2461C19.5312 55.1126 20.4485 54.1953 21.582 54.1953H29.7852C30.9187 54.1953 31.8359 55.1126 31.8359 56.2461C31.8359 57.3796 30.9187 58.2969 29.7852 58.2969ZM29.7852 43.9414H21.582C20.4485 43.9414 19.5312 43.0242 19.5312 41.8906C19.5312 40.7571 20.4485 39.8398 21.582 39.8398H29.7852C30.9187 39.8398 31.8359 40.7571 31.8359 41.8906C31.8359 43.0242 30.9187 43.9414 29.7852 43.9414ZM29.7852 29.5859H21.582C20.4485 29.5859 19.5312 28.6687 19.5312 27.5352C19.5312 26.4016 20.4485 25.4844 21.582 25.4844H29.7852C30.9187 25.4844 31.8359 26.4016 31.8359 27.5352C31.8359 28.6687 30.9187 29.5859 29.7852 29.5859ZM49.6921 58.8978C50.4931 59.6988 50.4931 60.9967 49.6921 61.7977C49.2915 62.1983 48.7668 62.3986 48.2422 62.3986C47.7176 62.3986 47.1927 62.1983 46.7923 61.7977L44.1406 59.146L41.489 61.7977C41.0884 62.1983 40.5637 62.3986 40.0391 62.3986C39.5145 62.3986 38.9896 62.1983 38.5892 61.7977C37.7881 60.9967 37.7881 59.6988 38.5892 58.8978L41.2407 56.2461L38.589 53.5944C37.788 52.7934 37.788 51.4955 38.589 50.6945C39.3901 49.8935 40.6879 49.8935 41.489 50.6945L44.1406 53.3462L46.7923 50.6945C47.5933 49.8935 48.8912 49.8935 49.6922 50.6945C50.4933 51.4955 50.4933 52.7934 49.6922 53.5944L47.0406 56.2461L49.6921 58.8978ZM51.7429 39.239L45.5905 45.3913C45.1899 45.7919 44.6652 45.9922 44.1406 45.9922C43.616 45.9922 43.0912 45.7919 42.6907 45.3913L38.5892 41.2897C37.7881 40.4887 37.7881 39.1908 38.5892 38.3898C39.3902 37.5888 40.6881 37.5888 41.4891 38.3898L44.1406 41.0415L48.8431 36.339C49.6441 35.538 50.942 35.538 51.743 36.339C52.544 37.1401 52.544 38.4379 51.7429 39.239ZM51.7429 26.9343L45.5905 33.0866C45.1899 33.4872 44.6652 33.6875 44.1406 33.6875C43.616 33.6875 43.0912 33.4872 42.6907 33.0866L38.5892 28.9851C37.7881 28.184 37.7881 26.8862 38.5892 26.0851C39.3902 25.2841 40.6881 25.2841 41.4891 26.0851L44.1406 28.7368L48.8431 24.0343C49.6441 23.2333 50.942 23.2333 51.743 24.0343C52.544 24.8354 52.544 26.1332 51.7429 26.9343Z" fill="#2884CA"/>
</g>
<defs>
<clipPath id="clip0_58_15131">
<rect width="70" height="70" fill="white" transform="translate(0.9375 0.875)"/>
</clipPath>
</defs>
</svg>
