<svg width="71" height="71" viewBox="0 0 71 71" fill="none" xmlns="http://www.w3.org/2000/svg">
<g clip-path="url(#clip0_58_15138)">
<path d="M14.1484 24.892C14.2543 13.8182 28.718 10.0226 34.3132 19.3756C34.8427 16.5178 37.3532 14.3463 40.3619 14.3463H44.6449L45.075 13.9162C45.8759 13.1153 45.8755 11.8159 45.075 11.0158L38.862 4.80279C38.0611 4.00189 36.7628 4.00203 35.9619 4.80266L33.5369 7.22736C32.8517 6.89486 32.1483 6.60297 31.4297 6.35291V2.92578C31.4297 1.7932 30.5115 0.875 29.3789 0.875H20.5924C19.4598 0.875 18.5416 1.7932 18.5416 2.92578V6.35291C17.823 6.60297 17.1196 6.89486 16.4344 7.22736L14.0094 4.80279C13.2086 4.00203 11.9101 4.00217 11.1093 4.80293L4.89627 11.016C4.09523 11.8166 4.09605 13.1161 4.89627 13.9163L7.32125 16.3409C6.98861 17.0265 6.69658 17.73 6.4468 18.4479H3.01953C1.88695 18.4479 0.96875 19.3661 0.96875 20.4987V29.2852C0.96875 30.4177 1.88695 31.3359 3.01953 31.3359H6.44666C6.69658 32.0538 6.98848 32.7573 7.32111 33.4429L4.89613 35.8675C4.09523 36.6684 4.09578 37.9678 4.89613 38.7678L11.1092 44.9809C11.9099 45.7816 13.2085 45.7818 14.0093 44.981L14.4399 44.5504V40.2682C14.4399 37.2593 16.6113 34.7488 19.4693 34.2195C16.2848 32.3322 14.1484 28.8623 14.1484 24.892Z" fill="#2884CA"/>
<path d="M68.918 38.2175H65.6065C65.2076 36.9251 64.6886 35.6746 64.0542 34.4761L66.3977 32.1325C67.1986 31.3317 67.1986 30.0331 66.3977 29.2322L60.1846 23.0192C59.3846 22.219 58.0855 22.2182 57.2844 23.0192L54.9409 25.3628C53.7429 24.7284 52.4923 24.2095 51.1992 23.8102V20.4988C51.1992 19.3662 50.281 18.448 49.1484 18.448H40.3619C39.2293 18.448 38.3111 19.3662 38.3111 20.4988V23.8102C37.0183 24.2095 35.7676 24.7284 34.5694 25.3628L32.2261 23.0192C31.2061 21.9995 29.8761 22.4688 29.3259 23.0192L23.1128 29.2322C22.3119 30.033 22.3119 31.3316 23.1128 32.1325L25.4564 34.4761C24.8219 35.6747 24.3029 36.9254 23.904 38.2175H20.5925C19.46 38.2175 18.5417 39.1357 18.5417 40.2683V49.0547C18.5417 50.1873 19.46 51.1055 20.5925 51.1055H23.904C24.3031 52.3979 24.8219 53.6484 25.4563 54.8468L23.1128 57.1904C22.3119 57.9912 22.3119 59.2897 23.1128 60.0906L29.3259 66.3037C30.1259 67.1039 31.4253 67.1046 32.2261 66.3037L34.5694 63.96C35.7675 64.5944 37.0182 65.1134 38.3111 65.5126V68.8242C38.3111 69.9568 39.2293 70.875 40.3619 70.875H49.1484C50.281 70.875 51.1992 69.9568 51.1992 68.8242V65.5127C52.492 65.1137 53.7429 64.5945 54.9409 63.9603L57.2843 66.3038C58.0844 67.104 59.3837 67.1047 60.1845 66.3038L66.3975 60.0908C67.1984 59.29 67.1984 57.9914 66.3975 57.1905L64.0539 54.8469C64.6884 53.6484 65.2074 52.3977 65.6064 51.1056H68.918C70.0505 51.1056 70.9687 50.1874 70.9687 49.0548V40.2683C70.9687 39.1357 70.0505 38.2175 68.918 38.2175ZM44.7552 57.6953C37.5683 57.6953 31.7214 51.8483 31.7214 44.6615C32.4374 27.3704 57.0758 27.3755 57.7892 44.6616C57.7891 51.8483 51.942 57.6953 44.7552 57.6953Z" fill="#2884CA"/>
<path d="M44.9415 35.7338C39.9537 35.6155 35.8165 39.6749 35.8229 44.6613C36.3132 56.5102 53.1982 56.5085 53.6875 44.6613C53.6875 39.7986 49.7808 35.8337 44.9415 35.7338Z" fill="#2884CA"/>
<path d="M18.25 24.8919C18.25 26.0169 18.5286 27.0775 19.0183 28.0106C19.3151 27.3959 19.7156 26.8287 20.2126 26.3319L26.4255 20.1189C26.9101 19.6341 27.4904 19.234 28.1232 18.9344C23.7361 16.5536 18.201 19.8771 18.25 24.8919Z" fill="#2884CA"/>
</g>
<defs>
<clipPath id="clip0_58_15138">
<rect width="70" height="70" fill="white" transform="translate(0.96875 0.875)"/>
</clipPath>
</defs>
</svg>
