<svg width="70" height="71" viewBox="0 0 70 71" fill="none" xmlns="http://www.w3.org/2000/svg">
<path d="M67.0813 37.5523C66.6397 45.9272 62.9416 53.7976 56.7767 59.4832C50.6118 65.1689 42.4685 68.2194 34.0853 67.9833C25.9138 67.6661 18.1627 64.2778 12.3801 58.4953C6.59761 52.7128 3.20937 44.9617 2.89214 36.7901C2.65609 28.407 5.70653 20.2636 11.3922 14.0987C17.0779 7.93383 24.9483 4.2358 33.3231 3.79416C33.5414 3.78722 33.7588 3.82429 33.9624 3.90316C34.1661 3.98203 34.3518 4.10108 34.5084 4.25322C34.6651 4.40536 34.7895 4.58747 34.8743 4.78871C34.9591 4.98995 35.0025 5.2062 35.0019 5.42457V21.5281C34.9933 21.9301 34.8356 22.3145 34.5596 22.6068C34.2836 22.8992 33.9088 23.0786 33.508 23.1103C31.1082 23.3898 28.8357 24.3397 26.951 25.8513C25.0663 27.3629 23.6457 29.375 22.852 31.6569C22.0582 33.9387 21.9236 36.3981 22.4634 38.753C23.0031 41.1079 24.1956 43.2631 25.9039 44.9715C27.6123 46.6798 29.7674 47.8723 32.1223 48.4121C34.4773 48.9519 36.9366 48.8172 39.2185 48.0235C41.5004 47.2298 43.5125 45.8092 45.0241 43.9245C46.5357 42.0398 47.4857 39.7674 47.7651 37.3676C47.7968 36.9667 47.9763 36.592 48.2686 36.3159C48.561 36.0399 48.9455 35.8822 49.3475 35.8735H65.4509C65.6693 35.873 65.8855 35.9164 66.0868 36.0012C66.288 36.086 66.4701 36.2104 66.6222 36.3671C66.7744 36.5237 66.8934 36.7094 66.9723 36.913C67.0512 37.1166 67.0882 37.3341 67.0813 37.5523Z" fill="#2884CA"/>
<path d="M40.8305 32.9583C40.3145 32.9578 39.808 32.8204 39.3624 32.5603C38.9169 32.3001 38.5483 31.9263 38.2944 31.4772C38.0404 31.0281 37.9102 30.5196 37.9169 30.0037C37.9236 29.4878 38.067 28.9829 38.3325 28.5406L47.0825 13.9572C47.3418 13.5255 47.7083 13.1682 48.1466 12.9201C48.5848 12.6721 49.0798 12.5417 49.5834 12.5416H64.1667C64.9403 12.5416 65.6822 12.8489 66.2291 13.3959C66.7761 13.9429 67.0834 14.6847 67.0834 15.4583C67.0834 16.2318 66.7761 16.9737 66.2291 17.5207C65.6822 18.0677 64.9403 18.375 64.1667 18.375H51.2354L43.3342 31.5427C43.075 31.9751 42.708 32.3328 42.2692 32.581C41.8303 32.8291 41.3346 32.9591 40.8305 32.9583Z" fill="#2884CA"/>
<path d="M64.1667 9.62496H49.5834C48.8099 9.62496 48.068 9.31767 47.521 8.77069C46.974 8.22371 46.6667 7.48184 46.6667 6.70829C46.6667 5.93474 46.974 5.19288 47.521 4.6459C48.068 4.09892 48.8099 3.79163 49.5834 3.79163H64.1667C64.9403 3.79163 65.6822 4.09892 66.2291 4.6459C66.7761 5.19288 67.0834 5.93474 67.0834 6.70829C67.0834 7.48184 66.7761 8.22371 66.2291 8.77069C65.6822 9.31767 64.9403 9.62496 64.1667 9.62496Z" fill="#2884CA"/>
<path d="M64.1667 27.125H55.4167C54.6431 27.125 53.9013 26.8177 53.3543 26.2707C52.8073 25.7237 52.5 24.9818 52.5 24.2083C52.5 23.4347 52.8073 22.6929 53.3543 22.1459C53.9013 21.5989 54.6431 21.2916 55.4167 21.2916H64.1667C64.9402 21.2916 65.6821 21.5989 66.2291 22.1459C66.776 22.6929 67.0833 23.4347 67.0833 24.2083C67.0833 24.9818 66.776 25.7237 66.2291 26.2707C65.6821 26.8177 64.9402 27.125 64.1667 27.125Z" fill="#2884CA"/>
</svg>
