<svg width="71" height="71" viewBox="0 0 71 71" fill="none" xmlns="http://www.w3.org/2000/svg">
<path d="M61.0938 21.1992H45.7812V24.6664C46.5042 24.9306 47.1116 25.4401 47.4975 26.106C47.8835 26.7719 48.0236 27.5522 47.8935 28.3108C47.7634 29.0695 47.3712 29.7584 46.7854 30.2577C46.1995 30.7569 45.4571 31.0348 44.6874 31.043H27.1875C26.418 31.0345 25.6758 30.7565 25.0901 30.2572C24.5045 29.758 24.1125 29.0691 23.9824 28.3106C23.8523 27.5521 23.9923 26.772 24.3781 26.1061C24.764 25.4403 25.3711 24.9308 26.0938 24.6664L26.0938 21.1992H10.7812C9.33101 21.1997 7.94032 21.7761 6.91484 22.8016C5.88936 23.827 5.31302 25.2177 5.3125 26.668V58.3867C5.31302 59.837 5.88936 61.2277 6.91484 62.2531C7.94032 63.2786 9.33101 63.8549 10.7812 63.8555H61.0938C62.544 63.8549 63.9347 63.2786 64.9602 62.2531C65.9856 61.2277 66.562 59.837 66.5625 58.3867V26.668C66.562 25.2177 65.9856 23.827 64.9602 22.8016C63.9347 21.7761 62.544 21.1997 61.0938 21.1992ZM35.9375 44.168C35.6504 44.1635 35.3765 44.0463 35.175 43.8417C34.9735 43.637 34.8606 43.3614 34.8606 43.0742C34.8606 42.787 34.9735 42.5114 35.175 42.3067C35.3765 42.1021 35.6504 41.9849 35.9376 41.9805H53.4375C53.7246 41.9849 53.9985 42.1021 54.2 42.3067C54.4015 42.5114 54.5144 42.787 54.5144 43.0742C54.5144 43.3614 54.4015 43.6371 54.2 43.8417C53.9985 44.0463 53.7246 44.1635 53.4375 44.168H35.9375ZM50.1562 51.8242C50.1554 52.114 50.0399 52.3917 49.8349 52.5967C49.63 52.8016 49.3523 52.9171 49.0625 52.918H35.9375C35.6502 52.9137 35.3762 52.7966 35.1745 52.5919C34.9729 52.3873 34.8599 52.1115 34.8599 51.8242C34.8599 51.5369 34.9729 51.2611 35.1745 51.0565C35.3762 50.8518 35.6502 50.7347 35.9375 50.7305H49.0625C49.3523 50.7313 49.63 50.8468 49.8349 51.0518C50.0399 51.2567 50.1554 51.5344 50.1562 51.8242ZM11.875 49.9758C11.8752 48.0132 12.4628 46.0957 13.5622 44.47C14.6616 42.8443 16.2224 41.5849 18.0438 40.8539C14.3935 37.5898 16.7281 30.9765 21.7189 31.0431C26.7098 30.9815 29.0451 37.5841 25.3936 40.8539C27.215 41.5848 28.7759 42.8442 29.8753 44.4699C30.9747 46.0956 31.5623 48.0132 31.5625 49.9758V51.8242C31.5616 52.114 31.4461 52.3917 31.2412 52.5967C31.0363 52.8016 30.7586 52.9171 30.4688 52.918H12.9688C12.6789 52.9171 12.4012 52.8016 12.1963 52.5967C11.9914 52.3917 11.8759 52.114 11.875 51.8242V49.9758ZM57.5938 58.3867H12.9688C12.6817 58.3821 12.408 58.2648 12.2067 58.0602C12.0054 57.8556 11.8925 57.58 11.8925 57.2929C11.8925 57.0059 12.0054 56.7303 12.2067 56.5257C12.4081 56.3211 12.6818 56.2038 12.9688 56.1992H57.5938C57.8808 56.2038 58.1545 56.3211 58.3558 56.5257C58.5572 56.7303 58.67 57.0059 58.67 57.293C58.67 57.58 58.5572 57.8556 58.3558 58.0602C58.1545 58.2648 57.8808 58.3821 57.5938 58.3867ZM57.8125 36.5117H35.9375C35.6504 36.5073 35.3765 36.3901 35.175 36.1854C34.9735 35.9808 34.8606 35.7051 34.8606 35.4179C34.8606 35.1308 34.9735 34.8551 35.175 34.6505C35.3765 34.4458 35.6504 34.3287 35.9376 34.3242H57.8125C58.0996 34.3287 58.3735 34.4459 58.575 34.6505C58.7765 34.8551 58.8894 35.1308 58.8894 35.418C58.8894 35.7051 58.7765 35.9808 58.575 36.1854C58.3735 36.3901 58.0996 36.5073 57.8125 36.5117Z" fill="#2884CA"/>
<path d="M27.1875 28.8555H44.6875C44.9776 28.8555 45.2558 28.7402 45.4609 28.5351C45.666 28.33 45.7813 28.0518 45.7813 27.7617C45.7813 27.4716 45.666 27.1934 45.4609 26.9883C45.2558 26.7832 44.9776 26.668 44.6875 26.668H43.5938V15.7305C43.2111 5.5914 28.6657 5.58631 28.2813 15.7305V26.668H27.1875C26.9004 26.6724 26.6265 26.7896 26.425 26.9942C26.2235 27.1989 26.1106 27.4745 26.1106 27.7617C26.1106 28.0489 26.2235 28.3246 26.425 28.5292C26.6265 28.7338 26.9004 28.851 27.1875 28.8555ZM35.9375 12.4492C36.8012 12.4592 37.6261 12.8093 38.2333 13.4236C38.8405 14.0379 39.1811 14.8668 39.181 15.7305C39.181 16.5943 38.8405 17.4232 38.2332 18.0374C37.626 18.6517 36.8011 19.0018 35.9374 19.0117C35.0737 19.0017 34.2488 18.6516 33.6416 18.0373C33.0344 17.4231 32.6939 16.5941 32.6939 15.7304C32.6939 14.8667 33.0345 14.0378 33.6417 13.4235C34.2489 12.8093 35.0739 12.4592 35.9375 12.4492Z" fill="#2884CA"/>
<path d="M37.0314 15.7305C37.0293 15.5708 36.9922 15.4135 36.9225 15.2698C36.8529 15.1261 36.7525 14.9995 36.6285 14.8989C36.5045 14.7983 36.3598 14.7263 36.2048 14.6878C36.0498 14.6494 35.8883 14.6456 35.7316 14.6766C35.575 14.7076 35.4271 14.7727 35.2984 14.8673C35.1697 14.9618 35.0634 15.0836 34.987 15.2238C34.9107 15.364 34.8661 15.5194 34.8565 15.6788C34.8468 15.8382 34.8724 15.9977 34.9314 16.1461C35.0253 16.3826 35.199 16.5786 35.4224 16.7003C35.6458 16.822 35.9048 16.8615 36.1543 16.8121C36.4039 16.7627 36.6282 16.6275 36.7885 16.4299C36.9487 16.2323 37.0346 15.9848 37.0314 15.7305Z" fill="#2884CA"/>
<path d="M29.3749 49.9758C28.848 39.3515 13.6427 40.0751 14.0625 50.7305L29.3749 50.7305V49.9758Z" fill="#2884CA"/>
<path d="M21.7187 40.132C26.047 39.9848 26.057 33.3798 21.7187 33.2305C17.3794 33.3805 17.3915 39.9856 21.7187 40.132Z" fill="#2884CA"/>
</svg>
