<svg width="71" height="71" viewBox="0 0 71 71" fill="none" xmlns="http://www.w3.org/2000/svg">
<g clip-path="url(#clip0_58_15214)">
<path d="M35.0625 16C39.2154 16 42.582 12.6334 42.582 8.48047C42.582 4.32755 39.2154 0.960938 35.0625 0.960938C30.9096 0.960938 27.543 4.32755 27.543 8.48047C27.543 12.6334 30.9096 16 35.0625 16Z" fill="#2884CA"/>
<path d="M21.5401 57.6938C19.4175 59.9661 16.3982 61.3906 13.0508 61.3906C9.70336 61.3906 6.68406 59.9661 4.5615 57.6938C1.84818 59.5405 0.0625 62.6533 0.0625 66.1757V68.9101C0.0625 70.0427 0.980703 70.9609 2.11328 70.9609H23.9883C25.1209 70.9609 26.0391 70.0427 26.0391 68.9101V66.1757C26.0391 62.6533 24.2534 59.5405 21.5401 57.6938Z" fill="#2884CA"/>
<path d="M65.5635 57.6938C63.4409 59.9661 60.4216 61.3906 57.0742 61.3906C53.7268 61.3906 50.7075 59.9661 48.5849 57.6938C45.8716 59.5405 44.0859 62.6533 44.0859 66.1757V68.9101C44.0859 70.0427 45.0041 70.9609 46.1367 70.9609H68.0117C69.1443 70.9609 70.0625 70.0427 70.0625 68.9101V66.1757C70.0625 62.6533 68.2768 59.5405 65.5635 57.6938Z" fill="#2884CA"/>
<path d="M49.6534 50.9795C50.2339 54.5523 53.3399 57.289 57.0742 57.289C61.2205 57.289 64.5938 53.9158 64.5938 49.7695C64.5938 45.6232 61.2205 42.25 57.0742 42.25C53.9671 42.25 51.2942 44.1443 50.1496 46.8388L41.2088 44.0622C41.1103 41.4924 39.4287 39.3224 37.1133 38.5011V29.6718H46C47.1326 29.6718 48.0508 28.7536 48.0508 27.6211V24.8867C48.0508 21.3643 46.2651 18.2514 43.5518 16.4048C41.4292 18.6771 38.4099 20.1015 35.0625 20.1015C31.7151 20.1015 28.6958 18.6771 26.5732 16.4048C23.8599 18.2514 22.0742 21.3643 22.0742 24.8867V27.6211C22.0742 28.7536 22.9924 29.6718 24.125 29.6718H33.0117V38.5011C30.6962 39.3224 29.0149 41.4923 28.9162 44.0622L19.9754 46.8388C18.8308 44.1443 16.1579 42.25 13.0508 42.25C8.90451 42.25 5.53125 45.6232 5.53125 49.7695C5.53125 53.9158 8.90451 57.289 13.0508 57.289C16.7851 57.289 19.8911 54.5523 20.4716 50.9795L30.1335 47.9789C31.2564 49.4798 33.0479 50.4531 35.0625 50.4531C37.0771 50.4531 38.8686 49.4798 39.9915 47.9788L49.6534 50.9795Z" fill="#2884CA"/>
</g>
<defs>
<clipPath id="clip0_58_15214">
<rect width="70" height="70" fill="white" transform="translate(0.0625 0.960938)"/>
</clipPath>
</defs>
</svg>
