<svg width="71" height="71" viewBox="0 0 71 71" fill="none" xmlns="http://www.w3.org/2000/svg">
<path fill-rule="evenodd" clip-rule="evenodd" d="M67.3209 14.8512C67.3209 16.4906 67.4798 16.2581 65.6467 16.7502C65.5033 17.2618 65.2979 17.7617 65.0305 18.2384L65.6467 19.3041C65.7978 19.5638 65.7552 19.8816 65.5421 20.0947L64.2012 21.4356C63.9918 21.6487 63.6741 21.6876 63.4145 21.5402L62.3449 20.924C61.8722 21.1876 61.3722 21.3929 60.8606 21.5364L60.5389 22.73C60.4846 22.9316 60.3412 23.0904 60.1591 23.1641C59.7017 21.7845 59.0661 20.5443 58.2368 19.3468C61.0039 19.7885 63.5152 17.6571 63.5152 14.8512C63.5152 12.336 61.4768 10.2975 58.9616 10.2975C56.2216 10.2975 54.1056 12.6964 54.4427 15.4171C53.3654 14.5994 52.1988 13.9018 50.9742 13.3127L52.2725 12.9523C52.4197 12.4407 52.6252 11.9409 52.8886 11.4641L52.2725 10.3984C52.1252 10.1388 52.1639 9.82092 52.377 9.61174L53.718 8.26698C53.9311 8.05766 54.249 8.01514 54.5086 8.16622L55.5743 8.78241C56.0511 8.51499 56.5471 8.30963 57.0625 8.16622L57.3803 6.97635C57.4578 6.68569 57.7136 6.49196 58.012 6.49196H59.9111C60.2095 6.49196 60.4614 6.68569 60.5389 6.97635L60.8606 8.16622C61.3722 8.30963 61.872 8.51499 62.3449 8.78241L63.4145 8.16622C63.6741 8.01514 63.992 8.05766 64.2012 8.26698L65.5421 9.61174C65.7552 9.82106 65.7979 10.1388 65.6467 10.3984L65.0305 11.4641C65.2979 11.9409 65.5033 12.4409 65.6467 12.9523C67.4798 13.4445 67.3209 13.212 67.3209 14.8514V14.8512ZM61.872 14.8512C61.872 13.2429 60.5699 11.9369 58.9616 11.9369C57.3532 11.9369 56.0471 13.243 56.0471 14.8512C56.0471 16.4594 57.3532 17.7656 58.9616 17.7656C60.5699 17.7656 61.872 16.4596 61.872 14.8512ZM63.2246 36.0696C59.2406 32.2716 59.5583 31.7678 59.256 27.0862C59.1088 24.8422 58.4694 22.8736 57.454 21.1645C54.5125 16.1961 48.9047 13.4173 42.9093 12.7005C43.727 13.743 43.8394 15.1731 43.1651 16.3435L42.0877 18.2077C42.4559 18.9518 42.7736 19.7191 43.0411 20.5058L45.1184 21.0639C46.5562 21.4475 47.5367 22.7265 47.5367 24.2147V28.9196C47.5367 30.4039 46.5561 31.6828 45.1184 32.0664L43.0411 32.6245C42.7736 33.4112 42.4559 34.1824 42.0877 34.9266L43.1651 36.7907C43.9091 38.0774 43.6959 39.6741 42.6457 40.7244L39.3205 44.0535C38.2703 45.1038 36.6697 45.3131 35.383 44.569L33.5189 43.4954C32.7747 43.8636 32.0075 44.1814 31.2206 44.4449L30.6625 46.5261C30.2789 47.96 28.9999 48.9444 27.5117 48.9444H24.8531C26.8491 51.7424 27.8334 55.1683 27.6009 58.6409V66.109H48.5208V62.8033C48.9238 55.6801 58.6862 59.8153 60.8874 58.0441C61.9299 57.2031 62.3369 55.8041 61.9144 54.5367C61.7904 53.6725 61.2013 52.6998 61.6664 52.0564C62.4763 50.9286 62.581 49.824 62.2283 48.7583C62.0462 48.204 62.1081 47.6537 62.4066 47.1538C63.2592 45.7353 63.0965 44.4719 61.9144 43.3635C61.2556 42.3985 61.7283 41.4877 63.3405 40.6273C65.2628 39.4841 65.224 37.9649 63.2243 36.0698L63.2246 36.0696ZM24.2292 57.7452C24.2292 59.3845 24.3881 59.1521 22.555 59.6442C22.4077 60.1558 22.2062 60.6557 21.9388 61.1324L22.555 62.1982C22.7061 62.4578 22.6635 62.7757 22.4504 62.9888L21.1095 64.3297C20.8963 64.5429 20.5824 64.5816 20.3228 64.4343L19.2532 63.8181C18.7805 64.0816 18.2805 64.2871 17.7689 64.4343L17.4472 65.6242C17.3697 65.9148 17.1178 66.1086 16.8154 66.1086H14.9203C14.6181 66.1086 14.3662 65.9148 14.2887 65.6242L13.971 64.4343C13.4555 64.2871 12.9556 64.0816 12.4828 63.8181L11.4171 64.4343C11.1574 64.5816 10.8396 64.5429 10.6264 64.3297L9.28548 62.9888C9.07233 62.7757 9.02968 62.4579 9.18089 62.1982L9.79708 61.1324C9.53362 60.6557 9.32813 60.1558 9.18089 59.6442L7.99116 59.3265C7.7005 59.249 7.50677 58.9932 7.50677 58.6947V56.7957C7.50677 56.4973 7.7005 56.2454 7.99116 56.1679L9.18089 55.8462C9.32813 55.3346 9.53362 54.8348 9.79708 54.3618L9.18089 53.2922C9.02981 53.0325 9.07233 52.7147 9.28548 52.5055L10.6264 51.1645C10.8396 50.9514 11.1574 50.9087 11.4171 51.0599L12.4828 51.6761C12.9556 51.4087 13.4555 51.2034 13.971 51.0599L14.2887 49.8702C14.3662 49.5796 14.6181 49.3858 14.9203 49.3858H16.8154C17.1177 49.3858 17.3697 49.5796 17.4472 49.8702L17.7689 51.0599C18.2805 51.2034 18.7803 51.4087 19.2532 51.6761L20.3228 51.0599C20.5824 50.9087 20.8963 50.9514 21.1095 51.1645L22.4504 52.5055C22.6635 52.7148 22.7062 53.0325 22.555 53.2922L21.9388 54.3579C22.2062 54.8346 22.4077 55.3345 22.555 55.8461C24.3881 56.3382 24.2292 56.1058 24.2292 57.7452ZM20.4235 57.7452C20.4235 55.23 18.3812 53.1915 15.8699 53.1915C13.3585 53.1915 11.3162 55.23 11.3162 57.7452C11.3162 60.2604 13.3546 62.2989 15.8699 62.2989C18.3851 62.2989 20.4235 60.2604 20.4235 57.7452ZM8.58001 31.2755L5.62306 30.4849C4.9061 30.2911 4.42554 29.6633 4.42554 28.9192V24.2143C4.42554 23.4701 4.9061 22.8423 5.62306 22.6486L8.57618 21.8579C8.93657 20.5867 9.44817 19.3465 10.1031 18.1684L8.57618 15.5214C8.20417 14.878 8.30876 14.0913 8.83198 13.5681L12.1611 10.239C12.6881 9.71196 13.471 9.6112 14.1182 9.98321L16.7613 11.5101C17.9394 10.8512 19.1795 10.3436 20.4508 9.98321L21.2414 7.03008C21.4351 6.31313 22.0629 5.82874 22.8071 5.82874H27.512C28.2562 5.82874 28.884 6.31313 29.0777 7.03008L29.8683 9.98321C31.1396 10.3436 32.3796 10.8514 33.5578 11.5101L36.2049 9.98321C36.8483 9.6112 37.6349 9.71196 38.1582 10.239L41.4873 13.5681C42.0105 14.0913 42.1151 14.878 41.7431 15.5214L40.2162 18.1684C40.875 19.3465 41.3827 20.5867 41.7431 21.8579L44.6962 22.6486C45.4131 22.8423 45.8975 23.4701 45.8975 24.2143V28.9192C45.8975 29.6633 45.4131 30.2911 44.6962 30.4849L41.7431 31.2755C41.3827 32.5467 40.8749 33.7869 40.2162 34.965L41.7431 37.6081C42.1151 38.2514 42.0105 39.0381 41.4873 39.5652L38.1582 42.8903C37.6349 43.4174 36.8483 43.522 36.2049 43.1499L33.5578 41.6231C32.3797 42.2781 31.1396 42.7896 29.8683 43.1461L29.0777 46.1031C28.884 46.82 28.2562 47.3006 27.512 47.3006H22.8071C22.0629 47.3006 21.4351 46.82 21.2414 46.1031L20.4508 43.1461C19.1795 42.7896 17.9394 42.278 16.7613 41.6231L14.1182 43.1499C13.471 43.522 12.6881 43.4174 12.1611 42.8903L8.83198 39.5652C8.30876 39.0381 8.20417 38.2514 8.57618 37.6081L10.1031 34.965C9.44421 33.7869 8.93657 32.5467 8.58001 31.2755ZM13.8623 26.5668C13.8623 32.8064 18.9198 37.8639 25.1593 37.8639C31.3989 37.8639 36.4602 32.8064 36.4602 26.5668C36.4602 20.3272 31.3988 15.2659 25.1593 15.2659C18.9199 15.2659 13.8623 20.3273 13.8623 26.5668ZM15.5015 26.5668C15.5015 21.2302 19.8266 16.9091 25.1592 16.9091C30.4918 16.9091 34.8169 21.2302 34.8169 26.5668C34.8169 31.9033 30.4958 36.2245 25.1592 36.2245C19.8227 36.2245 15.5015 31.8994 15.5015 26.5668ZM19.0631 26.09L21.8728 30.9616C22.144 31.4266 22.7834 31.5081 23.1594 31.1283L31.1274 23.1603C31.4491 22.8426 31.4491 22.3232 31.1274 22.0015C30.8097 21.6837 30.2903 21.6837 29.9686 22.0015L22.7562 29.2138L20.4774 25.2725C20.2526 24.881 19.7527 24.7454 19.3612 24.974C18.9698 25.1988 18.8342 25.7026 19.0628 26.0902L19.0631 26.09ZM15.8697 54.8346C14.2575 54.8346 12.9554 56.1367 12.9554 57.7451C12.9554 59.3534 14.2575 60.6594 15.8697 60.6594C17.4819 60.6594 18.7802 59.3533 18.7802 57.7451C18.7802 56.1369 17.4781 54.8346 15.8697 54.8346Z" fill="#2884CA"/>
</svg>
