<svg width="306" height="260" viewBox="0 0 306 260" fill="none" xmlns="http://www.w3.org/2000/svg">
<g style="mix-blend-mode:soft-light" opacity="0.2">
<path d="M207.645 66.3656C201.484 64.6904 197.842 58.3302 199.518 52.1685L204.07 35.425L159.42 23.2863L154.868 40.0298C153.193 46.1915 146.833 49.8327 140.671 48.1575C134.509 46.4824 130.868 40.1221 132.543 33.9605L137.095 17.217C140.443 4.90487 153.177 -2.38567 165.489 0.961571L210.139 13.1003C222.451 16.4475 229.742 29.1822 226.394 41.4943L221.842 58.2379C220.167 64.3995 213.807 68.0407 207.645 66.3656Z" fill="white"/>
<path d="M155.137 158.538C152.915 158.773 149.861 158.542 146.848 157.723C143.834 156.904 141.083 155.557 138.677 153.824L24.6737 77.9971L1.51913 163.166C-3.09356 180.133 6.9035 197.595 23.8703 202.208L230.374 258.349C247.341 262.962 264.803 252.965 269.416 235.998L292.57 150.829L155.137 158.538Z" fill="white"/>
<path d="M304.315 107.631L297.365 133.193L154.2 141.261C153.216 141.354 152.292 141.222 151.4 140.98C150.507 140.737 149.644 140.382 148.842 139.805L29.4684 60.3606L36.4178 34.7988C41.0305 17.832 58.4929 7.83497 75.4597 12.4477L281.963 68.5891C298.93 73.2018 308.927 90.6641 304.315 107.631Z" fill="white"/>
</g>
</svg>
