<svg width="404" height="340" viewBox="0 0 404 340" fill="none" xmlns="http://www.w3.org/2000/svg">
<g clip-path="url(#clip0_85_61)">
<rect width="404" height="340" rx="28" fill="#F5F5F7"/>
<line opacity="0.5" x1="345.75" y1="-43.5" x2="345.75" y2="383.5" stroke="#95928E" stroke-dasharray="22 32"/>
<line opacity="0.5" x1="59.25" y1="-43.5" x2="59.25" y2="383.5" stroke="#95928E" stroke-dasharray="22 32"/>
<path d="M-29.9694 326.811C-37.8357 327.121 -41.5841 325.558 -44.8583 318.088C-47.7992 311.379 -49.1549 304.162 -49.9694 296.922C-51.4854 283.446 -51.424 269.458 -50.7472 255.922C-49.0087 221.151 -38.3871 186.891 -16.4139 159.477C2.73501 135.587 30.7593 120.433 58.9195 109.588C71.6118 104.701 84.4324 101.448 97.9194 99.8105C112.571 98.0314 127.335 99.3602 142.031 98.3105C170.307 96.2908 199.133 97.8105 227.475 97.8105C262.454 97.8105 295.244 92.7714 326.975 77.1994C346.895 67.4239 365.021 56.2089 381.197 40.9217C397.195 25.8025 410.169 6.20964 420.642 -13.0228C436.39 -41.9418 450.583 -73.5048 456.031 -106.189" stroke="#95928E" stroke-width="3" stroke-linecap="round" stroke-dasharray="30 30"/>
<circle cx="202" cy="96.3105" r="17.5" fill="#2884CA"/>
</g>
<defs>
<clipPath id="clip0_85_61">
<rect width="404" height="340" rx="28" fill="white"/>
</clipPath>
</defs>
</svg>
