<svg width="502" height="503" viewBox="0 0 502 503" fill="none" xmlns="http://www.w3.org/2000/svg">
<path d="M212.936 135.051H61.349C35.751 135.051 15 155.802 15 181.399V398.675C15 424.273 35.751 445.024 61.349 445.024H86.773V473.141C86.773 484.586 99.879 491.08 108.985 484.148L160.375 445.024H325.648C351.246 445.024 371.997 424.273 371.997 398.675V287.702" stroke="black" stroke-width="30" stroke-miterlimit="10" stroke-linecap="round" stroke-linejoin="round"/>
<circle cx="126.334" cy="341.025" r="17.3376" fill="black"/>
<circle cx="193.502" cy="341.025" r="17.3376" fill="black"/>
<circle cx="260.662" cy="341.025" r="17.3376" fill="black"/>
<path d="M352.531 99.0588V132.918" stroke="black" stroke-width="30" stroke-miterlimit="10" stroke-linecap="round" stroke-linejoin="round"/>
<circle cx="352.531" cy="200.409" r="19.4648" fill="black"/>
<path d="M483.152 181.487C485.66 171.224 486.999 160.502 486.999 149.466C486.999 75.203 426.796 15 352.532 15C278.268 15 218.066 75.203 218.066 149.467C218.066 223.731 278.269 283.934 352.533 283.934C379.163 283.934 403.984 276.191 424.87 262.837" stroke="black" stroke-width="30" stroke-miterlimit="10" stroke-linecap="round" stroke-linejoin="round"/>
</svg>
