<svg width="43" height="25" viewBox="0 0 43 25" fill="none" xmlns="http://www.w3.org/2000/svg">
<path d="M3.3202 24.0935H0.664041C0.296826 24.0935 0 23.796 0 23.4294V2.18011C0 1.08179 0.893799 0.187988 1.99212 0.187988C3.09045 0.187988 3.98424 1.08179 3.98424 2.18011V23.4294C3.98424 23.796 3.68742 24.0935 3.3202 24.0935ZM1.32808 22.7654H2.65616V2.18011C2.65616 1.81422 2.35867 1.51607 1.99212 1.51607C1.62557 1.51607 1.32808 1.81422 1.32808 2.18011V22.7654Z" fill="black"/>
<path d="M41.8358 24.0937H39.1797C38.8125 24.0937 38.5156 23.7962 38.5156 23.4296V8.82074C38.5156 7.72241 39.4094 6.82861 40.5077 6.82861C41.6061 6.82861 42.4999 7.72241 42.4999 8.82074V23.4296C42.4999 23.7962 42.203 24.0937 41.8358 24.0937ZM39.8437 22.7656H41.1718V8.82074C41.1718 8.45485 40.8743 8.15669 40.5077 8.15669C40.1412 8.15669 39.8437 8.45485 39.8437 8.82074V22.7656Z" fill="black"/>
<path d="M39.1785 20.7734H3.32029C2.95308 20.7734 2.65625 20.4759 2.65625 20.1094V13.469C2.65625 13.1024 2.95308 12.8049 3.32029 12.8049H12.6169C12.9841 12.8049 13.2809 13.1024 13.2809 13.469C13.2809 13.8355 12.9841 14.133 12.6169 14.133H3.98433V19.4453H38.5145V13.469C38.5145 13.1024 38.8113 12.8049 39.1785 12.8049C39.5457 12.8049 39.8425 13.1024 39.8425 13.469V20.1094C39.8425 20.4759 39.5457 20.7734 39.1785 20.7734Z" fill="black"/>
<path d="M39.1788 18.1171H12.6172C12.25 18.1171 11.9531 17.8196 11.9531 17.4531V12.1408C11.9531 10.31 13.4426 8.82056 15.2733 8.82056H36.5226C38.3534 8.82056 39.8428 10.31 39.8428 12.1408V17.4531C39.8428 17.8196 39.546 18.1171 39.1788 18.1171ZM13.2812 16.789H38.5148V12.1408C38.5148 11.0424 37.621 10.1486 36.5226 10.1486H15.2733C14.175 10.1486 13.2812 11.0424 13.2812 12.1408V16.789Z" fill="black"/>
<path d="M12.6169 14.1328H3.32029C2.95308 14.1328 2.65625 13.8353 2.65625 13.4688V10.8126C2.65625 8.98188 4.14569 7.49243 5.97645 7.49243H9.9607C11.7915 7.49243 13.2809 8.98188 13.2809 10.8126V13.4688C13.2809 13.8353 12.9841 14.1328 12.6169 14.1328ZM3.98433 12.8048H11.9528V10.8126C11.9528 9.71431 11.059 8.82051 9.9607 8.82051H5.97645C4.87813 8.82051 3.98433 9.71431 3.98433 10.8126V12.8048Z" fill="black"/>
</svg>
