<svg width="502" height="470" viewBox="0 0 502 470" fill="none" xmlns="http://www.w3.org/2000/svg">
<path d="M447 335V415C447 437.091 429.091 455 407 455H95C72.909 455 55 437.091 55 415V255" stroke="black" stroke-width="30" stroke-miterlimit="10" stroke-linecap="round" stroke-linejoin="round"/>
<path d="M211 255H55C32.909 255 15 237.091 15 215V175C15 152.909 32.909 135 55 135H447C469.091 135 487 152.909 487 175V215C487 237.091 469.091 255 447 255H291" stroke="black" stroke-width="30" stroke-miterlimit="10" stroke-linecap="round" stroke-linejoin="round"/>
<path d="M251 335C228.909 335 211 317.091 211 295V255C211 232.909 228.909 215 251 215C273.091 215 291 232.909 291 255V295C291 317.091 273.091 335 251 335Z" stroke="black" stroke-width="30" stroke-miterlimit="10" stroke-linecap="round" stroke-linejoin="round"/>
<path d="M181.703 55C195.535 31.088 221.389 15 251 15C280.611 15 306.465 31.088 320.297 55" stroke="black" stroke-width="30" stroke-miterlimit="10" stroke-linecap="round" stroke-linejoin="round"/>
</svg>
