<svg width="45" height="39" viewBox="0 0 45 39" fill="none" xmlns="http://www.w3.org/2000/svg">
<path d="M39.8707 6.38461H35.0862V4.78978C35.0079 3.45418 34.4067 2.20318 33.4127 1.30769C32.4187 0.412195 31.1119 -0.0557115 29.7754 0.00529752H14.8797C13.5432 -0.0557115 12.2365 0.412195 11.2425 1.30769C10.2485 2.20318 9.64726 3.45418 9.56896 4.78978V6.38461H4.78448C3.51556 6.38461 2.29861 6.88868 1.40134 7.78595C0.504078 8.68321 0 9.90016 0 11.1691V33.4967C0 34.7656 0.504078 35.9825 1.40134 36.8798C2.29861 37.7771 3.51556 38.2812 4.78448 38.2812H39.8707C41.1396 38.2812 42.3566 37.7771 43.2538 36.8798C44.1511 35.9825 44.6552 34.7656 44.6552 33.4967V11.1691C44.6552 9.90016 44.1511 8.68321 43.2538 7.78595C42.3566 6.88868 41.1396 6.38461 39.8707 6.38461ZM12.7586 4.78978C12.7586 3.92857 13.7315 3.19495 14.8797 3.19495H29.7754C30.9237 3.19495 31.8965 3.92857 31.8965 4.78978V6.38461H12.7586V4.78978ZM4.78448 9.57426H39.8707C40.2937 9.57426 40.6993 9.74229 40.9984 10.0414C41.2975 10.3405 41.4655 10.7461 41.4655 11.1691V19.1432H33.4914V17.5484C33.4914 17.1254 33.3234 16.7198 33.0243 16.4207C32.7252 16.1216 32.3195 15.9536 31.8965 15.9536C31.4736 15.9536 31.0679 16.1216 30.7688 16.4207C30.4697 16.7198 30.3017 17.1254 30.3017 17.5484V19.1432H14.3534V17.5484C14.3534 17.1254 14.1854 16.7198 13.8863 16.4207C13.5872 16.1216 13.1816 15.9536 12.7586 15.9536C12.3356 15.9536 11.93 16.1216 11.6309 16.4207C11.3318 16.7198 11.1638 17.1254 11.1638 17.5484V19.1432H3.18965V11.1691C3.18965 10.7461 3.35768 10.3405 3.65677 10.0414C3.95586 9.74229 4.36151 9.57426 4.78448 9.57426ZM39.8707 35.0915H4.78448C4.36151 35.0915 3.95586 34.9235 3.65677 34.6244C3.35768 34.3253 3.18965 33.9196 3.18965 33.4967V22.3329H11.1638V23.9277C11.1638 24.3507 11.3318 24.7563 11.6309 25.0554C11.93 25.3545 12.3356 25.5225 12.7586 25.5225C13.1816 25.5225 13.5872 25.3545 13.8863 25.0554C14.1854 24.7563 14.3534 24.3507 14.3534 23.9277V22.3329H30.3017V23.9277C30.3017 24.3507 30.4697 24.7563 30.7688 25.0554C31.0679 25.3545 31.4736 25.5225 31.8965 25.5225C32.3195 25.5225 32.7252 25.3545 33.0243 25.0554C33.3234 24.7563 33.4914 24.3507 33.4914 23.9277V22.3329H41.4655V33.4967C41.4655 33.9196 41.2975 34.3253 40.9984 34.6244C40.6993 34.9235 40.2937 35.0915 39.8707 35.0915Z" fill="black"/>
</svg>
