<svg width="430" height="512" viewBox="0 0 430 512" fill="none" xmlns="http://www.w3.org/2000/svg">
<path d="M196.655 274.257L271.793 199.115C291.999 178.909 291.998 146.148 271.792 125.942L271.791 125.941C251.585 105.734 218.823 105.734 198.617 125.941L196.651 127.907L194.685 125.941C174.478 105.734 141.717 105.734 121.51 125.941C101.304 146.147 101.304 178.909 121.51 199.115L196.655 274.257Z" stroke="black" stroke-width="30" stroke-miterlimit="10"/>
<path d="M377.538 220.269C378.533 212.582 379.053 204.745 379.053 196.786C379.053 96.3891 297.667 15.0015 197.27 14.9995C97.3074 14.9975 16.4939 94.962 15.4898 194.919C14.8488 258.756 47.1188 315.096 96.3704 348.019V496.999H286.317V417.533H323.216C346.817 417.533 365.95 398.4 365.95 374.8V309.376H389.818C403.46 309.376 414.52 298.316 414.52 284.673C414.52 279.908 413.142 275.245 410.552 271.245L377.538 220.269Z" stroke="black" stroke-width="30" stroke-miterlimit="10"/>
</svg>
