<svg width="38" height="39" viewBox="0 0 38 39" fill="none" xmlns="http://www.w3.org/2000/svg">
<path d="M29.2487 36.1808H16.6691C16.3885 36.1808 16.1464 35.9837 16.0896 35.7096L15.5621 33.1724C15.4751 32.7532 15.1016 32.4495 14.6736 32.4495H11.4076C9.33449 32.4495 7.56921 30.9672 7.20987 28.9255L6.50423 24.9071L4.72237 24.079C4.24109 23.8552 3.88117 23.4343 3.73495 22.924C3.58873 22.4137 3.67102 21.8661 3.96049 21.421L6.44148 17.608V15.838C6.44148 8.48087 12.427 2.49536 19.7841 2.49536H20.6579C26.7878 2.49536 32.176 6.63153 33.7608 12.5537C34.7133 16.1139 34.1609 19.9611 32.2453 23.1099L29.791 27.143C28.977 28.4803 28.7047 30.0609 29.0226 31.5941L29.8277 35.4692C29.8644 35.6439 29.82 35.825 29.7075 35.9629C29.595 36.1009 29.4263 36.1808 29.2487 36.1808ZM17.1504 34.9968H28.5212L27.8641 31.8339C27.484 30.0059 27.8096 28.121 28.7799 26.5262L31.2342 22.493C32.9829 19.6196 33.4873 16.1079 32.6177 12.8586C31.1714 7.45379 26.2533 3.67873 20.6585 3.67873H19.7847C13.0805 3.67873 7.62604 9.13323 7.62604 15.8374V17.7832C7.62604 17.8981 7.59288 18.01 7.53013 18.1059L4.95265 22.0662C4.84906 22.2261 4.82064 22.4137 4.87274 22.5966C4.92542 22.7796 5.04915 22.9246 5.22141 23.0045L7.28269 23.9635C7.45791 24.0452 7.58223 24.2074 7.61597 24.398L8.37489 28.7201C8.63418 30.1947 9.9093 31.265 11.4064 31.265H14.6724C15.6586 31.265 16.5194 31.9659 16.72 32.9308L17.1504 34.9968ZM20.2986 17.6021C19.7835 17.6021 19.2685 17.4062 18.8766 17.0143L15.0211 13.1587C14.3213 12.459 13.9472 11.4911 13.9946 10.5025C14.0413 9.51447 14.5084 8.58447 15.2762 7.95046C16.6555 6.81149 18.7689 6.95238 20.0878 8.27072L20.2986 8.48146L20.5099 8.27072C21.8288 6.95119 23.9422 6.81149 25.3209 7.95046C26.0881 8.58388 26.5552 9.51447 26.6025 10.5025C26.6493 11.4911 26.2752 12.4596 25.5755 13.1593L21.7199 17.0149C21.3286 17.4062 20.8136 17.6021 20.2986 17.6021ZM17.463 8.36129C16.9462 8.36129 16.4383 8.52645 16.0298 8.86329C15.5118 9.29129 15.2087 9.89334 15.1773 10.5587C15.146 11.2152 15.3946 11.8575 15.8587 12.3222L19.7143 16.1778C20.0369 16.5004 20.5614 16.5004 20.884 16.1778L24.7396 12.3222C25.2037 11.8581 25.4523 11.2152 25.421 10.5587C25.3896 9.89334 25.0865 9.29129 24.5685 8.86329C23.6551 8.10852 22.2397 8.21566 21.3481 9.10778L20.7183 9.73764C20.607 9.84894 20.4566 9.91109 20.2997 9.91109C20.1429 9.91109 19.9919 9.84894 19.8812 9.73764L19.2519 9.10778C18.757 8.61407 18.1035 8.36129 17.463 8.36129ZM13.3795 18.2391C13.6376 18.0384 13.6838 17.666 13.4831 17.4085C13.2818 17.1498 12.91 17.1042 12.6525 17.3049C11.9374 17.8614 10.7191 17.8608 10.0052 17.3049C9.74769 17.1042 9.37593 17.1504 9.17465 17.4085C8.97397 17.6666 9.02015 18.0384 9.27825 18.2391C9.84241 18.6783 10.5705 18.9198 11.3295 18.9198C12.0872 18.9198 12.8153 18.6783 13.3795 18.2391Z" fill="black"/>
</svg>
