<svg width="250" height="56" viewBox="0 0 250 56" fill="none" xmlns="http://www.w3.org/2000/svg">
<path d="M75.8404 18.1138L82.6039 33.4617H65.9584L63.97 28.8165L63.9045 28.7501L63.7059 28.2109H55.0851L52.7631 33.4617H36.9141L39.2341 28.2109L40.561 25.1148L46.8617 10.7085L48.6514 6.73722L51.3051 0.611352L51.3707 0.476562H68.0818L68.1473 0.611352L69.5397 3.84227L75.8404 18.1802V18.1138Z" fill="#005580"/>
<path d="M106.012 0.476562H120.401V33.4617H102.564L100.309 28.2109L98.2535 23.5657V33.4617H83.7969V0.476562H101.569L102.695 2.96714C103.402 4.67313 104.506 7.20797 106.01 10.5737V0.476562H106.012Z" fill="#005580"/>
<path d="M160.512 18.1138L167.276 33.4617H150.63L148.642 28.8165L148.576 28.7501L148.378 28.2109H139.757L137.435 33.4617H121.586L123.906 28.2109L125.233 25.1148L131.534 10.7085L133.323 6.73722L135.975 0.611352L136.041 0.476562H152.752L152.817 0.611352L154.21 3.84227L160.51 18.1802V18.1138H160.512Z" fill="#005580"/>
<path d="M202.612 12.9979C202.566 15.3778 201.959 17.5646 200.789 19.5623C199.617 21.56 198.059 23.1634 196.113 24.3745L202.612 33.4617H187.824L182.651 26.1911H181.591V33.4617H168.461V0.476562H188.885C192.996 0.476562 196.333 1.64339 198.898 3.97706C199.384 4.42568 199.803 4.86425 200.157 5.29075C200.511 5.71724 200.809 6.12161 201.053 6.50184C201.295 6.88408 201.494 7.23211 201.651 7.54595C201.806 7.85979 201.939 8.19777 202.048 8.55586C202.157 8.91597 202.225 9.18555 202.247 9.3646C202.268 9.54365 202.302 9.80115 202.346 10.1391C202.39 10.4751 202.412 10.6662 202.412 10.7105C202.545 11.4287 202.61 12.1469 202.61 12.8651V12.9999L202.612 12.9979Z" fill="#005580"/>
<path d="M242.739 18.1138L249.502 33.4617H232.857L230.868 28.8165L230.803 28.7501L230.604 28.2109H221.984L219.662 33.4617H203.812L206.133 28.2109L207.459 25.1148L213.76 10.7085L215.55 6.73722L218.202 0.611352L218.267 0.476562H234.978L235.044 0.611352L236.436 3.84227L242.737 18.1802V18.1138H242.739Z" fill="#005580"/>
<path d="M20.6737 21.2303C20.2625 21.2303 19.891 21.2122 19.5613 21.178C18.7628 21.1076 18.0835 20.9567 17.5233 20.7254C16.3256 20.2265 15.6065 19.3574 15.3662 18.1181C15.1496 17.076 15.2231 16.1023 15.5886 15.199C15.9541 14.2957 16.6056 13.6339 17.5412 13.2174C18.01 13.0082 18.4946 12.8694 18.9972 12.801C19.3845 12.7426 19.7798 12.7145 20.1791 12.7145H35.7182V0.601562H19.462C17.9266 0.601562 16.413 0.71221 14.9212 0.935518C12.9905 1.20308 11.1273 1.73822 9.32768 2.5389C5.72644 4.1443 3.22563 6.68317 1.82129 10.1575C0.416943 13.6318 0.132896 17.3717 0.965174 21.3812C1.88684 26.1471 4.65183 29.4867 9.25815 31.4039C11.4094 32.2951 14.0194 32.8745 17.0903 33.1421C18.3636 33.2748 19.7897 33.3433 21.3689 33.3433H35.7162V21.2323H20.6737V21.2303Z" fill="#005580"/>
<path d="M49.9017 44.5234V45.9679H43.9426V48.9936H49.3355V50.4079H43.9426V53.7937H49.856V55.2382H42.3516V44.5234H49.8997H49.9017Z" fill="#005580"/>
<path d="M58.3043 47.7745V44.5234H59.8358V55.2382H58.0083L54.7547 50.0458C53.8032 48.541 53.116 47.3922 52.6889 46.5996C52.7286 47.7946 52.7485 49.5891 52.7485 51.9871V55.2382H51.2031V44.5234H53.0306L56.3001 49.7158C57.182 51.1301 57.8693 52.2849 58.3659 53.1781C58.3262 51.9731 58.3063 50.1725 58.3063 47.7745H58.3043Z" fill="#005580"/>
<path d="M66.6053 50.9805V49.6105H71.2116V55.2394H69.994L69.712 53.809C68.9194 54.9215 67.7713 55.4788 66.2656 55.4788C64.76 55.4788 63.5265 54.9618 62.6247 53.9277C61.703 52.9037 61.2422 51.5558 61.2422 49.88C61.2422 48.2042 61.709 46.8302 62.6386 45.8162C63.5602 44.7922 64.7977 44.2812 66.353 44.2812C67.6501 44.2812 68.7247 44.6233 69.5769 45.3052C70.4191 45.9973 70.9236 46.9147 71.0925 48.0594H69.4577C69.3087 47.3371 68.9552 46.7658 68.395 46.3433C67.8349 45.9229 67.1595 45.7116 66.3669 45.7116C65.3062 45.7116 64.464 46.0878 63.8403 46.8402C63.2067 47.5826 62.8889 48.5965 62.8889 49.88C62.8889 51.1635 63.2067 52.1775 63.8403 52.9198C64.4839 53.6722 65.336 54.0484 66.3967 54.0484C67.3184 54.0484 68.0951 53.7567 68.7307 53.1753C69.3643 52.604 69.6961 51.8717 69.7259 50.9785H66.6053V50.9805Z" fill="#005580"/>
<path d="M74.4817 55.246H72.8906V44.5312H74.4817V55.246Z" fill="#005580"/>
<path d="M83.4371 47.7745V44.5234H84.9686V55.2382H83.1411L79.8875 50.0458C78.9361 48.541 78.2488 47.3922 77.8217 46.5996C77.8615 47.7946 77.8813 49.5891 77.8813 51.9871V55.2382H76.3359V44.5234H78.1634L81.4329 49.7158C82.3148 51.1301 83.0021 52.2849 83.4987 53.1781C83.459 51.9731 83.4391 50.1725 83.4391 47.7745H83.4371Z" fill="#005580"/>
<path d="M94.3704 44.5234V45.9679H88.4114V48.9936H93.8043V50.4079H88.4114V53.7937H94.3247V55.2382H86.8203V44.5234H94.3684H94.3704Z" fill="#005580"/>
<path d="M103.222 44.5234V45.9679H97.2629V48.9936H102.656V50.4079H97.2629V53.7937H103.176V55.2382H95.6719V44.5234H103.22H103.222Z" fill="#005580"/>
<path d="M112.493 52.2645L112.596 53.9343C112.646 54.4855 112.765 54.9221 112.954 55.244H111.319C111.12 54.9523 111.017 54.4976 111.007 53.8739L110.964 52.7313C110.934 52.0392 110.781 51.5503 110.503 51.2647C110.225 50.979 109.78 50.8362 109.166 50.8362H106.091V55.246H104.5V44.5312H109.122C110.25 44.5312 111.14 44.7948 111.79 45.3219C112.439 45.849 112.763 46.5732 112.763 47.4966C112.763 48.1484 112.606 48.6976 112.294 49.1443C111.983 49.5909 111.544 49.9047 110.979 50.0858C111.494 50.2367 111.871 50.4901 112.108 50.8462C112.346 51.2023 112.475 51.6771 112.493 52.2685V52.2645ZM106.089 49.4963H109.15C109.764 49.4963 110.246 49.3354 110.598 49.0155C110.95 48.6956 111.124 48.239 111.124 47.6455C111.124 47.052 110.944 46.6416 110.582 46.3519C110.221 46.0602 109.702 45.9154 109.029 45.9154H106.087V49.4983L106.089 49.4963Z" fill="#005580"/>
<path d="M115.81 55.246H114.219V44.5312H115.81V55.246Z" fill="#005580"/>
<path d="M124.765 47.7745V44.5234H126.297V55.2382H124.469L121.216 50.0458C120.264 48.541 119.577 47.3922 119.15 46.5996C119.19 47.7946 119.209 49.5891 119.209 51.9871V55.2382H117.664V44.5234H119.492L122.761 49.7158C123.643 51.1301 124.33 52.2849 124.827 53.1781C124.787 51.9731 124.767 50.1725 124.767 47.7745H124.765Z" fill="#005580"/>
<path d="M133.074 50.9805V49.6105H137.68V55.2394H136.463L136.181 53.809C135.388 54.9215 134.24 55.4788 132.734 55.4788C131.229 55.4788 129.995 54.9618 129.093 53.9277C128.172 52.9037 127.711 51.5558 127.711 49.88C127.711 48.2042 128.178 46.8302 129.107 45.8162C130.029 44.7922 131.266 44.2812 132.822 44.2812C134.119 44.2812 135.193 44.6233 136.046 45.3052C136.888 45.9973 137.392 46.9147 137.561 48.0594H135.926C135.777 47.3371 135.424 46.7658 134.864 46.3433C134.304 45.9229 133.628 45.7116 132.836 45.7116C131.775 45.7116 130.933 46.0878 130.309 46.8402C129.675 47.5826 129.358 48.5965 129.358 49.88C129.358 51.1635 129.675 52.1775 130.309 52.9198C130.953 53.6722 131.805 54.0484 132.865 54.0484C133.787 54.0484 134.564 53.7567 135.199 53.1753C135.833 52.604 136.165 51.8717 136.195 50.9785H133.074V50.9805Z" fill="#005580"/>
<path d="M146.921 55.4768C145.446 55.4768 144.248 54.9698 143.326 53.9559C142.394 52.952 141.93 51.5941 141.93 49.878C141.93 48.162 142.391 46.8121 143.312 45.8001C144.234 44.7882 145.438 44.2812 146.923 44.2812C148.091 44.2812 149.098 44.5971 149.941 45.2288C150.783 45.8706 151.323 46.8181 151.559 48.0734H149.955C149.756 47.2909 149.392 46.7014 148.862 46.3051C148.332 45.9088 147.686 45.7116 146.923 45.7116C145.902 45.7116 145.09 46.0858 144.486 46.8322C143.882 47.5806 143.58 48.5965 143.58 49.88C143.58 51.1635 143.882 52.1795 144.486 52.9279C145.09 53.6763 145.902 54.0484 146.923 54.0484C147.686 54.0484 148.369 53.813 148.973 53.3403C149.557 52.8695 149.909 52.1815 150.028 51.2782H151.619C151.49 52.612 150.979 53.6461 150.088 54.3784C149.206 55.1106 148.151 55.4768 146.923 55.4768H146.921Z" fill="#005580"/>
<path d="M157.67 55.4788C156.105 55.4788 154.858 54.9618 153.926 53.9277C152.975 52.9037 152.5 51.5558 152.5 49.88C152.5 48.2042 152.975 46.8604 153.926 45.8162C154.858 44.7922 156.105 44.2812 157.67 44.2812C159.236 44.2812 160.463 44.7922 161.415 45.8162C162.356 46.8604 162.827 48.2143 162.827 49.88C162.827 51.5458 162.356 52.8957 161.415 53.9277C160.463 54.9618 159.216 55.4788 157.67 55.4788ZM157.67 54.0343C158.741 54.0343 159.593 53.6581 160.227 52.9057C160.861 52.1735 161.178 51.1656 161.178 49.88C161.178 48.5945 160.861 47.5826 160.227 46.8402C159.583 46.0979 158.731 45.7257 157.67 45.7257C156.61 45.7257 155.76 46.0979 155.114 46.8402C154.47 47.6027 154.149 48.6166 154.149 49.88C154.149 51.1434 154.47 52.1634 155.114 52.9057C155.748 53.6581 156.6 54.0343 157.67 54.0343Z" fill="#005580"/>
<path d="M165.823 44.5234V53.7937H171.01V55.2382H164.234V44.5234H165.825H165.823Z" fill="#005580"/>
<path d="M173.784 44.5234V53.7937H178.971V55.2382H172.195V44.5234H173.786H173.784Z" fill="#005580"/>
<path d="M187.706 44.5234V45.9679H181.747V48.9936H187.14V50.4079H181.747V53.7937H187.661V55.2382H180.156V44.5234H187.704H187.706Z" fill="#005580"/>
<path d="M193.793 50.9805V49.6105H198.399V55.2394H197.182L196.899 53.809C196.107 54.9215 194.959 55.4788 193.453 55.4788C191.947 55.4788 190.714 54.9618 189.812 53.9277C188.891 52.9037 188.43 51.5558 188.43 49.88C188.43 48.2042 188.896 46.8302 189.826 45.8162C190.748 44.7922 191.985 44.2812 193.541 44.2812C194.838 44.2812 195.912 44.6233 196.764 45.3052C197.607 45.9973 198.111 46.9147 198.28 48.0594H196.645C196.496 47.3371 196.143 46.7658 195.583 46.3433C195.022 45.9229 194.347 45.7116 193.554 45.7116C192.494 45.7116 191.652 46.0878 191.028 46.8402C190.394 47.5826 190.076 48.5965 190.076 49.88C190.076 51.1635 190.394 52.1775 191.028 52.9198C191.671 53.6722 192.524 54.0484 193.584 54.0484C194.506 54.0484 195.283 53.7567 195.918 53.1753C196.552 52.604 196.884 51.8717 196.913 50.9785H193.793V50.9805Z" fill="#005580"/>
<path d="M207.644 44.5234V45.9679H201.685V48.9936H207.078V50.4079H201.685V53.7937H207.598V55.2382H200.094V44.5234H207.642H207.644Z" fill="#005580"/>
</svg>
