<svg width="180" height="41" viewBox="0 0 180 41" fill="none" xmlns="http://www.w3.org/2000/svg">
<path fill-rule="evenodd" clip-rule="evenodd" d="M51.3936 1.67813C53.8536 2.33664 55.787 4.26986 56.4454 6.72988C57.6354 11.1842 57.6402 20.4834 57.6402 20.4834C57.6402 20.4834 57.6402 29.7826 56.4454 34.237C55.787 36.697 53.8536 38.6302 51.3936 39.2886C46.9394 40.4834 29.07 40.4834 29.07 40.4834C29.07 40.4834 11.2008 40.4834 6.74646 39.2886C4.28646 38.6302 2.35325 36.697 1.69473 34.237C0.5 29.7826 0.5 20.4834 0.5 20.4834C0.5 20.4834 0.5 11.1842 1.69473 6.72988C2.35325 4.26986 4.28646 2.33664 6.74646 1.67813C11.2008 0.483398 29.07 0.483398 29.07 0.483398C29.07 0.483398 46.9394 0.483398 51.3936 1.67813ZM38.1964 20.4842L23.3516 29.0542V11.9141L38.1964 20.4842Z" fill="white"/>
<path d="M69.7049 26.4906L63.2891 3.32031H68.8865L71.1349 13.8236C71.7087 16.4106 72.1273 18.6166 72.4001 20.4417H72.5647C72.7529 19.134 73.1763 16.9421 73.8301 13.8612L76.1583 3.32031H81.7557L75.2599 26.4906V37.6054H69.7003V26.4906H69.7049Z" fill="white"/>
<path d="M83.4403 36.8708C82.3115 36.1088 81.5071 34.9234 81.0273 33.3148C80.5523 31.7062 80.3125 29.5708 80.3125 26.899V23.263C80.3125 20.5678 80.5853 18.3995 81.1309 16.7673C81.6765 15.1352 82.5279 13.9404 83.6849 13.1925C84.8421 12.4447 86.3613 12.0684 88.2429 12.0684C90.0961 12.0684 91.5777 12.4494 92.6971 13.2114C93.8119 13.9733 94.6303 15.1681 95.1477 16.7861C95.6651 18.4089 95.9239 20.5678 95.9239 23.263V26.899C95.9239 29.5708 95.6699 31.7156 95.1667 33.3336C94.6633 34.9564 93.8449 36.1418 92.7159 36.8896C91.5871 37.6376 90.0537 38.0138 88.1205 38.0138C86.1261 38.0184 84.5693 37.6328 83.4403 36.8708ZM89.7715 32.948C90.0819 32.1296 90.2419 30.7984 90.2419 28.9452V21.1418C90.2419 19.3449 90.0867 18.0279 89.7715 17.2001C89.4563 16.3675 88.9061 15.9536 88.1157 15.9536C87.3539 15.9536 86.8129 16.3675 86.5025 17.2001C86.1873 18.0326 86.0321 19.3449 86.0321 21.1418V28.9452C86.0321 30.7984 86.1825 32.1342 86.4837 32.948C86.7847 33.7664 87.3255 34.1756 88.1157 34.1756C88.9061 34.1756 89.4563 33.7664 89.7715 32.948Z" fill="white"/>
<path d="M114.126 37.6102H109.714L109.225 34.5434H109.103C107.903 36.8576 106.106 38.0146 103.707 38.0146C102.047 38.0146 100.819 37.469 100.029 36.3826C99.2389 35.2912 98.8438 33.5886 98.8438 31.2744V12.5584H104.484V30.945C104.484 32.0646 104.606 32.8594 104.85 33.3346C105.095 33.8096 105.504 34.0494 106.078 34.0494C106.567 34.0494 107.038 33.899 107.489 33.598C107.941 33.2968 108.27 32.9158 108.491 32.455V12.5537H114.126V37.6102Z" fill="white"/>
<path d="M129.447 7.85856H123.849V37.6092H118.332V7.85856H112.734V3.32422H129.447V7.85856Z" fill="white"/>
<path d="M143.056 37.6102H138.644L138.154 34.5434H138.032C136.833 36.8576 135.036 38.0146 132.637 38.0146C130.977 38.0146 129.749 37.469 128.959 36.3826C128.169 35.2912 127.773 33.5886 127.773 31.2744V12.5584H133.413V30.945C133.413 32.0646 133.535 32.8594 133.78 33.3346C134.025 33.8096 134.434 34.0494 135.008 34.0494C135.497 34.0494 135.967 33.899 136.419 33.598C136.87 33.2968 137.2 32.9158 137.421 32.455V12.5537H143.056V37.6102Z" fill="white"/>
<path d="M161.717 16.5608C161.373 14.9804 160.823 13.8374 160.061 13.1271C159.299 12.4169 158.25 12.0641 156.914 12.0641C155.879 12.0641 154.91 12.3557 154.012 12.9437C153.114 13.5316 152.417 14.2983 151.928 15.2532H151.886V2.05469H146.453V37.605H151.11L151.684 35.2344H151.806C152.243 36.081 152.897 36.7442 153.767 37.2382C154.638 37.7274 155.607 37.972 156.67 37.972C158.575 37.972 159.981 37.0924 160.879 35.3378C161.778 33.5786 162.229 30.8364 162.229 27.1018V23.1366C162.229 20.3378 162.055 18.1412 161.717 16.5608ZM156.547 26.7818C156.547 28.6068 156.472 30.0368 156.321 31.0716C156.171 32.1064 155.922 32.845 155.564 33.2776C155.211 33.715 154.732 33.9314 154.134 33.9314C153.669 33.9314 153.241 33.8232 152.845 33.6022C152.45 33.3858 152.131 33.0566 151.886 32.6238V18.4046C152.074 17.7226 152.403 17.1676 152.869 16.7301C153.33 16.2927 153.838 16.0763 154.379 16.0763C154.953 16.0763 155.395 16.3021 155.705 16.749C156.02 17.2005 156.237 17.9531 156.359 19.0161C156.481 20.0791 156.543 21.589 156.543 23.5504V26.7818H156.547Z" fill="white"/>
<path d="M170.231 28.2258C170.231 29.8344 170.278 31.0386 170.373 31.843C170.467 32.6472 170.664 33.2306 170.965 33.6022C171.266 33.969 171.727 34.1524 172.353 34.1524C173.195 34.1524 173.778 33.8232 174.088 33.1694C174.404 32.5156 174.573 31.4244 174.601 29.9004L179.465 30.1872C179.493 30.4036 179.507 30.7046 179.507 31.0856C179.507 33.3998 178.872 35.1308 177.607 36.2738C176.342 37.4168 174.549 37.9906 172.235 37.9906C169.455 37.9906 167.508 37.1204 166.393 35.3754C165.274 33.6304 164.719 30.9352 164.719 27.285V22.9106C164.719 19.1524 165.297 16.4055 166.454 14.6746C167.612 12.9436 169.592 12.0781 172.4 12.0781C174.333 12.0781 175.819 12.4309 176.854 13.1412C177.889 13.8514 178.618 14.9521 179.041 16.4525C179.465 17.953 179.676 20.0226 179.676 22.666V26.9558H170.231V28.2258ZM170.946 16.4196C170.659 16.7724 170.471 17.3509 170.373 18.1553C170.278 18.9596 170.231 20.1778 170.231 21.8148V23.6116H174.357V21.8148C174.357 20.2061 174.3 18.9878 174.192 18.1553C174.084 17.3227 173.886 16.7395 173.599 16.3961C173.312 16.0574 172.87 15.8834 172.273 15.8834C171.671 15.8881 171.229 16.0668 170.946 16.4196Z" fill="white"/>
</svg>
