<svg width="118" height="108" viewBox="0 0 118 108" fill="none" xmlns="http://www.w3.org/2000/svg">
<path d="M114.334 47.7993C113.773 47.4659 113.126 47.3033 112.474 47.3314C111.822 47.3594 111.192 47.5769 110.662 47.9572L105.384 51.6346L105.502 50.4395C105.621 49.2009 104.562 48.2408 103.528 47.8731C102.223 47.4088 100.921 47.7988 100.209 48.8664C97.0875 53.5528 94.0001 60.1593 91.1828 66.4468C91.1754 66.4633 91.1674 66.4797 91.1598 66.4967C90.6914 67.5422 90.2303 68.579 89.7778 69.5963C88.7265 71.9609 87.7207 74.2225 86.7533 76.3076C85.902 75.7296 85.0716 75.1627 84.2621 74.6068C76.3772 69.2085 70.0797 64.8968 60.4889 62.6733V61.1504C61.0049 60.7031 61.5133 60.2248 62.0091 59.7077C64.9299 56.661 67.1694 52.6636 68.0001 49.0138C68.2124 48.0783 68.4055 47.1498 68.5563 46.1663C69.7855 45.9203 70.927 45.3513 71.8634 44.5178C72.7998 43.6843 73.4972 42.6164 73.8839 41.424C74.2706 40.2315 74.3326 38.9575 74.0636 37.7331C73.7945 36.5088 73.2042 35.3781 72.3532 34.4576V26.8959C72.3532 22.6179 70.4833 18.5824 67.3515 16.1011C65.9578 14.9873 64.326 14.21 62.583 13.8299C60.8399 13.4497 59.0326 13.4768 57.3018 13.9091C55.7462 14.2796 54.1215 13.5605 52.5901 12.7921C47.6256 10.3004 42.2106 10.4549 37.7351 13.2152C35.4115 14.6644 33.4939 16.6799 32.1621 19.0728C30.8302 21.4656 30.1278 24.1574 30.1206 26.8959V34.4863C29.2782 35.4078 28.6953 36.5363 28.4315 37.7566C28.1677 38.9769 28.2324 40.2453 28.619 41.4324C29.0056 42.6196 29.7003 43.6828 30.6321 44.5138C31.5639 45.3447 32.6996 45.9135 33.923 46.1622C34.0743 47.147 34.2678 48.0769 34.4802 49.0138C35.3106 52.6625 37.5497 56.6596 40.4702 59.7068C40.9727 60.2308 41.4875 60.7151 42.0101 61.1674V62.6485C19.5103 67.6514 19.3251 82.3496 19.1102 99.319C19.0828 101.485 19.0545 103.724 18.9798 105.99C18.9727 106.206 19.0091 106.421 19.0867 106.622C19.1644 106.823 19.2818 107.007 19.4319 107.162C19.582 107.317 19.7618 107.44 19.9605 107.524C20.1593 107.609 20.3729 107.652 20.5887 107.652H73.872C74.0877 107.652 74.3013 107.609 74.5 107.525C74.6987 107.44 74.8784 107.317 75.0285 107.162C75.1786 107.007 75.296 106.824 75.3737 106.623C75.4514 106.421 75.4879 106.206 75.4809 105.991C75.4062 103.676 75.3791 100.498 75.3503 97.1316C75.3273 94.3386 75.3023 91.4808 75.248 89.1142L85.1056 95.0121L85.1263 95.0243C87.3268 96.2966 89.5544 96.5784 91.5671 95.8397C93.6262 95.084 95.2534 93.297 96.1523 90.8063L105.464 67.9205C107.331 65.5371 111.129 61.4278 113.786 59.1407C114.694 58.3778 115.266 57.288 115.378 56.1068L115.925 51.0076C116 50.376 115.89 49.7363 115.607 49.1665C115.325 48.5967 114.882 48.1216 114.334 47.7993ZM62.82 66.6309L58.5054 75.8394L57.5675 75.3202C57.5181 75.2882 57.467 75.2591 57.4144 75.2328C57.407 75.2292 57.3992 75.2264 57.3914 75.223L53.686 73.1723L59.5268 65.7561C60.6701 66.0156 61.7639 66.3077 62.82 66.6309ZM54.5688 77.3395L53.1341 80.2245H49.3735L47.9352 77.3402L51.2515 75.5031L54.5688 77.3395ZM45.2642 63.4488C47.2339 64.524 49.2572 65.1036 51.2223 65.122H51.2529C53.238 65.1034 55.2822 64.5139 57.2705 63.4189L51.2515 71.0615L45.2642 63.4488ZM70.8728 38.2297C71.1096 39.0902 71.0389 40.0063 70.6731 40.8204C70.3072 41.6344 69.6691 42.2955 68.8684 42.6898C68.9048 40.318 68.7375 37.9474 68.3683 35.6043C68.9706 35.8002 69.5149 36.1426 69.9522 36.6009C70.3895 37.0591 70.7061 37.6189 70.8735 38.2297H70.8728ZM33.6125 42.6794C33.5535 42.65 33.4946 42.6199 33.4372 42.5875C32.7934 42.2208 32.2694 41.6759 31.9283 41.0183C31.5872 40.3607 31.4436 39.6184 31.5146 38.881C31.5857 38.1436 31.8685 37.4425 32.3289 36.8622C32.7893 36.2818 33.4078 35.847 34.1097 35.61C33.743 37.948 33.5768 40.3131 33.613 42.6794H33.6125ZM35.26 29.3837C35.0428 30.3842 34.8507 31.3277 34.681 32.2217C34.2275 32.2645 33.7791 32.3512 33.3422 32.4805V26.8978C33.3474 24.7081 33.9086 22.5555 34.9731 20.642C36.0376 18.7284 37.5706 17.1165 39.4284 15.9574C42.9837 13.7639 47.1461 13.662 51.1501 15.6711C52.5738 16.3859 55.2231 17.7166 58.0453 17.0441C59.3035 16.728 60.6176 16.7063 61.8855 16.9807C63.1535 17.2552 64.341 17.8184 65.3558 18.6266C67.7231 20.5027 69.1373 23.595 69.1373 26.8987V32.4713C68.7003 32.3451 68.252 32.2622 67.7987 32.2238C67.6284 31.3293 67.4358 30.3851 67.2175 29.3837C67.1306 28.9831 66.894 28.6309 66.556 28.399C66.218 28.1671 65.8042 28.0731 65.3992 28.1361C57.4008 29.3724 51.619 27.8213 47.7246 23.393C47.5707 23.2178 47.3805 23.0781 47.1673 22.9837C46.954 22.8893 46.7228 22.8424 46.4896 22.8462C46.2564 22.85 46.0268 22.9045 45.8168 23.0059C45.6068 23.1072 45.4213 23.253 45.2732 23.4332C42.5698 26.7199 40.5353 27.3933 36.5377 28.1449C36.2265 28.2029 35.9393 28.3514 35.7121 28.5718C35.4849 28.7923 35.3278 29.0748 35.2605 29.3842L35.26 29.3837ZM37.62 48.3022C36.7321 44.389 36.2111 40.6026 38.1854 31.1006C41.3546 30.4501 43.8679 29.5864 46.5621 26.8175C50.8831 30.8765 56.74 32.4229 64.3774 31.5219C66.2549 40.7154 65.7366 44.4469 64.8619 48.3013C63.9816 52.1697 61.2403 56.4426 57.8674 59.1497C57.8603 59.1554 57.8532 59.1609 57.8463 59.1669C55.7848 60.8153 53.4892 61.879 51.2377 61.9045C45.2957 61.8351 39.0402 54.5402 37.6205 48.3022H37.62ZM42.9679 65.7352L48.817 73.1721L45.133 75.214C45.1176 75.2211 45.1017 75.2269 45.087 75.2345C45.0281 75.2642 44.9712 75.2976 44.9165 75.3344L44.004 75.8401L39.6628 66.5753C40.7014 66.2698 41.8003 65.9887 42.9683 65.7352H42.9679ZM43.7188 104.435H32.8467C32.8895 102.699 32.9113 100.993 32.9324 99.3296C32.971 96.2638 33.0081 93.368 33.1689 90.5987C33.1937 90.1726 33.0481 89.7541 32.7643 89.4353C32.4805 89.1165 32.0817 88.9235 31.6556 88.8987C31.2294 88.874 30.8109 89.0195 30.4921 89.3033C30.1733 89.5871 29.9803 89.986 29.9556 90.4121C29.7905 93.2543 29.7533 96.1856 29.714 99.2889C29.6931 100.967 29.6706 102.691 29.6269 104.435H22.2463C22.2881 102.711 22.3097 101.015 22.3307 99.3615C22.5194 84.4342 22.6658 73.105 36.5984 67.6208L41.8194 78.7643C41.9129 78.964 42.0464 79.1424 42.2117 79.2883C42.377 79.4342 42.5706 79.5446 42.7803 79.6126C42.9901 79.6806 43.2116 79.7048 43.431 79.6836C43.6505 79.6624 43.8633 79.5963 44.0562 79.4895L45.1169 78.902L46.7172 82.1103L43.7188 104.435ZM46.9664 104.435L49.7856 83.4422H52.7229L55.5362 104.434L46.9664 104.435ZM93.1582 89.6249C93.1495 89.6463 93.141 89.6681 93.1332 89.6899C92.5639 91.2839 91.6137 92.3951 90.4576 92.8192C89.373 93.218 88.0903 93.0191 86.7466 92.2446L74.3657 84.8369C74.3609 84.8341 74.3558 84.8323 74.351 84.8295C74.3462 84.8268 74.3388 84.8208 74.3324 84.8169L70.0454 82.2565C69.864 82.1481 69.663 82.0765 69.4539 82.0458C69.2448 82.0151 69.0318 82.0258 68.8268 82.0775C68.6219 82.1291 68.4292 82.2206 68.2596 82.3467C68.0901 82.4729 67.947 82.6312 67.8386 82.8126C67.7302 82.994 67.6586 83.195 67.6279 83.4041C67.5972 83.6131 67.608 83.8262 67.6596 84.0312C67.7113 84.2361 67.8028 84.4288 67.9289 84.5984C68.055 84.7679 68.2133 84.911 68.3947 85.0194L71.9696 87.1548C72.0682 89.7345 72.1006 93.5011 72.1305 97.1601C72.1535 99.8033 72.1746 102.332 72.2192 104.434H58.7833L55.7915 82.1092L57.388 78.8997L58.453 79.4892C58.6459 79.596 58.8587 79.662 59.0781 79.6831C59.2975 79.7043 59.519 79.6801 59.7287 79.612C59.9384 79.544 60.1319 79.4336 60.2971 79.2877C60.4624 79.1418 60.5959 78.9635 60.6894 78.7639L65.878 67.69C71.817 69.9884 76.693 73.3256 82.4445 77.2635C83.7472 78.1555 85.0941 79.0776 86.5138 80.03C86.7057 80.1588 86.923 80.2446 87.1511 80.2818C87.3791 80.319 87.6125 80.3067 87.8353 80.2456C88.0582 80.1846 88.2652 80.0762 88.4424 79.928C88.6196 79.7797 88.7629 79.595 88.8623 79.3865C90.0906 76.8164 91.3675 73.9446 92.7195 70.9054C93.0394 70.1856 93.3646 69.4547 93.6928 68.7192H101.665L93.1582 89.6249ZM112.725 50.6626L112.177 55.7664C112.164 55.948 112.113 56.1249 112.028 56.286C111.944 56.4472 111.827 56.5892 111.685 56.7032C109.001 59.0127 105.359 62.9218 103.278 65.5001H95.1422C97.382 60.574 99.7592 55.6377 102.131 51.8288L101.837 54.7937C101.806 55.0999 101.864 55.4085 102.004 55.6827C102.143 55.957 102.358 56.1856 102.624 56.3413C102.889 56.497 103.194 56.5733 103.501 56.5612C103.809 56.5491 104.106 56.4491 104.358 56.273L112.504 50.5976C112.529 50.575 112.561 50.5603 112.594 50.5552C112.628 50.5501 112.663 50.5549 112.694 50.5689C112.718 50.5833 112.732 50.5916 112.725 50.6626ZM112.605 23.4837C112.605 23.695 112.563 23.9042 112.482 24.0994C112.401 24.2946 112.283 24.472 112.133 24.6214C111.984 24.7708 111.807 24.8893 111.611 24.9701C111.416 25.051 111.207 25.0926 110.996 25.0926H82.713C82.2863 25.0926 81.8771 24.9231 81.5753 24.6214C81.2736 24.3197 81.1041 23.9104 81.1041 23.4837C81.1041 23.057 81.2736 22.6478 81.5753 22.3461C81.8771 22.0444 82.2863 21.8749 82.713 21.8749H110.995C111.207 21.8748 111.416 21.9164 111.611 21.9972C111.806 22.078 111.984 22.1965 112.133 22.3459C112.283 22.4953 112.401 22.6727 112.482 22.8679C112.563 23.0632 112.605 23.2724 112.605 23.4837ZM81.1027 9.3328C81.1027 8.9061 81.2722 8.49688 81.574 8.19515C81.8757 7.89343 82.2849 7.72393 82.7116 7.72393H96.8494C97.2761 7.72393 97.6854 7.89343 97.9871 8.19515C98.2888 8.49688 98.4583 8.9061 98.4583 9.3328C98.4583 9.7595 98.2888 10.1687 97.9871 10.4704C97.6854 10.7722 97.2761 10.9417 96.8494 10.9417H82.713C82.5016 10.9418 82.2922 10.9004 82.0969 10.8196C81.9015 10.7388 81.724 10.6203 81.5744 10.4709C81.4249 10.3215 81.3063 10.1441 81.2253 9.9488C81.1444 9.75352 81.1027 9.54419 81.1027 9.3328ZM11.7038 35.9603V34.3903C11.7038 33.9636 11.8733 33.5544 12.1751 33.2526C12.4768 32.9509 12.886 32.7814 13.3127 32.7814C13.7394 32.7814 14.1486 32.9509 14.4504 33.2526C14.7521 33.5544 14.9216 33.9636 14.9216 34.3903V35.9603C14.9216 36.387 14.7521 36.7962 14.4504 37.0979C14.1486 37.3997 13.7394 37.5692 13.3127 37.5692C12.886 37.5692 12.4768 37.3997 12.1751 37.0979C11.8733 36.7962 11.7038 36.387 11.7038 35.9603ZM20.0314 37.3897L20.9241 35.8456C21.0298 35.6627 21.1706 35.5023 21.3383 35.3738C21.506 35.2452 21.6974 35.151 21.9016 35.0964C22.1057 35.0418 22.3186 35.028 22.5281 35.0557C22.7376 35.0834 22.9396 35.152 23.1226 35.2578C23.3055 35.3636 23.4659 35.5043 23.5944 35.672C23.723 35.8398 23.8172 36.0312 23.8718 36.2353C23.9264 36.4395 23.9402 36.6524 23.9125 36.8619C23.8848 37.0714 23.8161 37.2734 23.7104 37.4563L22.8177 39.0004C22.6041 39.3699 22.2525 39.6394 21.8402 39.7496C21.4279 39.8598 20.9887 39.8018 20.6192 39.5882C20.2497 39.3746 19.9802 39.023 19.8699 38.6107C19.7597 38.1984 19.8178 37.7592 20.0314 37.3897ZM3.02651 37.657C2.92087 37.4739 2.85233 37.2718 2.82479 37.0622C2.79725 36.8527 2.81125 36.6397 2.86601 36.4356C2.92076 36.2314 3.01519 36.0401 3.1439 35.8724C3.27262 35.7048 3.43309 35.5641 3.61616 35.4585C3.79924 35.3528 4.00133 35.2843 4.21089 35.2567C4.42046 35.2292 4.63339 35.2432 4.83754 35.2979C5.0417 35.3527 5.23306 35.4471 5.40072 35.5758C5.56838 35.7046 5.70905 35.865 5.81469 36.0481L6.52489 37.2796C6.63053 37.4627 6.69907 37.6647 6.72661 37.8743C6.75415 38.0839 6.74014 38.2968 6.68539 38.501C6.63064 38.7051 6.53621 38.8965 6.4075 39.0641C6.27878 39.2318 6.11831 39.3725 5.93524 39.4781C5.75216 39.5837 5.55007 39.6523 5.34051 39.6798C5.13094 39.7074 4.91801 39.6934 4.71385 39.6386C4.5097 39.5838 4.31833 39.4894 4.15068 39.3607C3.98302 39.232 3.84235 39.0715 3.73671 38.8884L3.02651 37.657ZM112.605 16.4082C112.605 16.8349 112.435 17.2441 112.133 17.5458C111.832 17.8475 111.422 18.017 110.996 18.017H82.713C82.2863 18.017 81.8771 17.8475 81.5753 17.5458C81.2736 17.2441 81.1041 16.8349 81.1041 16.4082C81.1041 15.9815 81.2736 15.5722 81.5753 15.2705C81.8771 14.9688 82.2863 14.7993 82.713 14.7993H110.995C111.207 14.7992 111.416 14.8408 111.611 14.9216C111.806 15.0024 111.984 15.1209 112.133 15.2703C112.283 15.4198 112.401 15.5971 112.482 15.7924C112.563 15.9876 112.605 16.1968 112.605 16.4082ZM113.823 0.576172H79.8846C78.8586 0.577571 77.8751 0.985839 77.1497 1.71143C76.4243 2.43701 76.0163 3.42068 76.0152 4.44666V28.3701C76.0165 29.396 76.4245 30.3796 77.1498 31.105C77.8752 31.8305 78.8587 32.2387 79.8846 32.2401H84.8238V42.3386C84.8238 42.673 84.9281 42.9991 85.122 43.2716C85.316 43.5441 85.59 43.7493 85.9061 43.8588C86.2221 43.9682 86.5644 43.9765 86.8853 43.8824C87.2063 43.7883 87.4899 43.5965 87.6968 43.3338L96.4263 32.2401H113.822C114.848 32.2392 115.832 31.8311 116.558 31.1056C117.284 30.3801 117.692 29.3963 117.693 28.3701V4.44666C117.692 3.42056 117.284 2.43679 116.558 1.71118C115.833 0.985576 114.849 0.577389 113.823 0.576172ZM114.475 28.3701C114.473 28.5422 114.404 28.7065 114.282 28.8282C114.16 28.9499 113.996 29.0192 113.824 29.0215H95.6455C95.4021 29.0215 95.1618 29.0768 94.9429 29.1832C94.7239 29.2896 94.5319 29.4443 94.3814 29.6356L88.0429 37.691V30.6308C88.0429 30.2041 87.8734 29.7949 87.5717 29.4932C87.27 29.1914 86.8608 29.0219 86.4341 29.0219H79.8846C79.7125 29.0197 79.5482 28.9503 79.4265 28.8287C79.3048 28.707 79.2355 28.5426 79.2332 28.3706V4.44666C79.2354 4.27457 79.3047 4.11014 79.4264 3.98843C79.5481 3.86671 79.7125 3.79733 79.8846 3.79506H113.823C113.995 3.79709 114.16 3.86637 114.282 3.98811C114.404 4.10985 114.473 4.27441 114.475 4.44666V28.3701ZM22.5777 62.104C24.5199 59.5932 26.7215 56.7474 26.7215 52.3002C26.6858 48.7823 25.2632 45.4206 22.7629 42.9456C20.2626 40.4706 16.8867 39.0823 13.3686 39.0823C9.85047 39.0823 6.4745 40.4706 3.97422 42.9456C1.47395 45.4206 0.0513761 48.7823 0.015625 52.3002C0.015625 56.7511 2.21725 59.5951 4.15985 62.1045C6.0613 64.5612 7.7035 66.6826 7.7035 70.1847C7.7035 71.6873 8.3004 73.1283 9.36289 74.1908C10.4254 75.2533 11.8664 75.8502 13.369 75.8502C14.8716 75.8502 16.3127 75.2533 17.3752 74.1908C18.4376 73.1283 19.0345 71.6873 19.0345 70.1847C19.0336 66.687 20.6761 64.5626 22.5777 62.104ZM15.815 70.1847C15.815 70.8335 15.5572 71.4557 15.0984 71.9145C14.6396 72.3733 14.0174 72.6311 13.3686 72.6311C12.7197 72.6311 12.0975 72.3733 11.6387 71.9145C11.1799 71.4557 10.9222 70.8335 10.9222 70.1847C10.9222 69.748 10.9017 69.3276 10.8636 68.9206H15.8745C15.8354 69.3276 15.815 69.7482 15.815 70.1847ZM16.612 65.7028H14.9747V55.7508C15.9815 55.4124 16.8569 54.7667 17.4775 53.9046C18.0981 53.0425 18.4327 52.0075 18.4342 50.9453C18.4342 50.734 18.3926 50.5248 18.3117 50.3296C18.2309 50.1344 18.1124 49.9571 17.963 49.8077C17.8136 49.6583 17.6362 49.5398 17.441 49.4589C17.2458 49.3781 17.0366 49.3365 16.8253 49.3365C16.6141 49.3365 16.4048 49.3781 16.2097 49.4589C16.0145 49.5398 15.8371 49.6583 15.6877 49.8077C15.5383 49.9571 15.4198 50.1344 15.3389 50.3296C15.2581 50.5248 15.2165 50.734 15.2165 50.9453C15.2165 51.4352 15.0219 51.905 14.6755 52.2513C14.3291 52.5977 13.8593 52.7923 13.3695 52.7923C12.8796 52.7923 12.4098 52.5977 12.0635 52.2513C11.7171 51.905 11.5225 51.4352 11.5225 50.9453C11.5225 50.5186 11.353 50.1094 11.0513 49.8077C10.7496 49.506 10.3403 49.3365 9.91363 49.3365C9.48693 49.3365 9.07771 49.506 8.77599 49.8077C8.47426 50.1094 8.30476 50.5186 8.30476 50.9453C8.30596 52.0065 8.63973 53.0406 9.25912 53.9022C9.87851 54.7639 10.7524 55.4097 11.7579 55.749V65.701H10.1258C9.29697 63.483 7.94897 61.7406 6.70485 60.1334C4.84224 57.7286 3.23337 55.6508 3.23337 52.3002C3.23337 49.6124 4.30108 47.0348 6.20163 45.1342C8.10217 43.2337 10.6799 42.1659 13.3676 42.1659C16.0554 42.1659 18.6331 43.2337 20.5337 45.1342C22.4342 47.0348 23.5019 49.6124 23.5019 52.3002C23.5019 55.6478 21.8931 57.7272 20.0314 60.135C18.7884 61.7425 17.4408 63.4856 16.612 65.7021V65.7028Z" fill="#747474"/>
</svg>
