<svg width="60" height="47" viewBox="0 0 60 47" fill="none" xmlns="http://www.w3.org/2000/svg">
<path d="M9.47214 0.878906C9.47055 0.878906 9.46875 0.878906 9.46716 0.878906C8.90722 0.878906 8.38058 1.09718 7.9829 1.49386C7.58084 1.89492 7.35938 2.42895 7.35938 2.99745V34.7647C7.35938 35.9296 8.31081 36.8797 9.48051 36.8827C14.4117 36.8944 22.6734 37.9222 28.3728 43.8865V10.6412C28.3728 10.2463 28.272 9.87536 28.0816 9.56838C23.4038 2.03506 14.4145 0.890468 9.47214 0.878906Z" fill="url(#paint0_linear_58_4049)"/>
<path d="M52.6773 34.7649V2.99745C52.6773 2.42895 52.4559 1.89492 52.0538 1.49386C51.6561 1.09718 51.1291 0.878906 50.5697 0.878906C50.5679 0.878906 50.5661 0.878906 50.5645 0.878906C45.6224 0.890667 36.6331 2.03526 31.9551 9.56858C31.7647 9.87556 31.6641 10.2465 31.6641 10.6414V43.8865C37.3635 37.9222 45.6252 36.8944 50.5564 36.8827C51.7259 36.8797 52.6773 35.9296 52.6773 34.7649Z" fill="url(#paint1_linear_58_4049)"/>
<path d="M57.5035 8.20508H55.9674V34.7649C55.9674 37.7392 53.5441 40.1645 50.5652 40.1719C46.3825 40.1818 39.4859 40.9997 34.6016 45.6225C43.049 43.5542 51.9542 44.8987 57.0293 46.0553C57.663 46.1996 58.3178 46.0505 58.8255 45.6458C59.3314 45.2422 59.6217 44.6388 59.6217 43.9912V10.3232C59.6219 9.15531 58.6714 8.20508 57.5035 8.20508Z" fill="url(#paint2_linear_58_4049)"/>
<path d="M4.0683 34.7649V8.20508H2.53221C1.3645 8.20508 0.414062 9.15531 0.414062 10.3232V43.9906C0.414062 44.6384 0.704296 45.2416 1.21021 45.6452C1.71752 46.0497 2.37175 46.1994 3.00643 46.0547C8.08154 44.8979 16.9869 43.5536 25.434 45.6219C20.5498 40.9993 13.6532 40.1816 9.47051 40.1717C6.49183 40.1645 4.0683 37.7392 4.0683 34.7649Z" fill="url(#paint3_linear_58_4049)"/>
<defs>
<linearGradient id="paint0_linear_58_4049" x1="17.8661" y1="0.878906" x2="17.8661" y2="43.8865" gradientUnits="userSpaceOnUse">
<stop stop-color="#6DC0EB"/>
<stop offset="1" stop-color="#2884CA"/>
</linearGradient>
<linearGradient id="paint1_linear_58_4049" x1="42.1707" y1="0.878906" x2="42.1707" y2="43.8865" gradientUnits="userSpaceOnUse">
<stop stop-color="#6DC0EB"/>
<stop offset="1" stop-color="#2884CA"/>
</linearGradient>
<linearGradient id="paint2_linear_58_4049" x1="47.1116" y1="8.20508" x2="47.1116" y2="46.1091" gradientUnits="userSpaceOnUse">
<stop stop-color="#6DC0EB"/>
<stop offset="1" stop-color="#2884CA"/>
</linearGradient>
<linearGradient id="paint3_linear_58_4049" x1="12.924" y1="8.20508" x2="12.924" y2="46.1086" gradientUnits="userSpaceOnUse">
<stop stop-color="#6DC0EB"/>
<stop offset="1" stop-color="#2884CA"/>
</linearGradient>
</defs>
</svg>
