<svg width="60" height="61" viewBox="0 0 60 61" fill="none" xmlns="http://www.w3.org/2000/svg">
<path d="M5.11431 20.5612H2.34724C1.3961 20.5612 0.625 21.3378 0.625 22.2957C0.625 23.2536 1.3961 24.0301 2.34724 24.0301H5.11431C7.39559 23.9455 7.39639 20.6462 5.11431 20.5612Z" fill="url(#paint0_linear_58_4047)"/>
<path d="M57.6886 20.5612H54.9216C53.9704 20.5612 53.1993 21.3378 53.1993 22.2957C53.1993 23.2536 53.9704 24.0301 54.9216 24.0301H57.6886C59.97 23.9455 59.9707 20.6462 57.6886 20.5612Z" fill="url(#paint1_linear_58_4047)"/>
<path d="M11.1897 5.78726C12.8621 7.35197 15.1795 5.0197 13.6253 3.33439L11.6689 1.36417C10.9965 0.68692 9.90593 0.68692 9.23334 1.36417C8.56075 2.04141 8.56075 3.13967 9.23334 3.81703L11.1897 5.78726Z" fill="url(#paint2_linear_58_4047)"/>
<path d="M48.8453 38.8041C47.1727 37.2395 44.8555 39.5717 46.4097 41.2569L48.366 43.2272C49.0384 43.9043 50.1288 43.9048 50.8016 43.2272C51.4742 42.5499 51.4742 41.4517 50.8016 40.7743L48.8453 38.8041Z" fill="url(#paint3_linear_58_4047)"/>
<path d="M11.1897 38.8041L9.23334 40.7743C8.56075 41.4515 8.56075 42.5498 9.23334 43.2271C9.9057 43.9043 10.9961 43.9047 11.6689 43.2271L13.6253 41.2569C15.1791 39.5725 12.8629 37.239 11.1897 38.8041Z" fill="url(#paint4_linear_58_4047)"/>
<path d="M48.3673 1.36416L46.4109 3.33439C45.7383 4.01164 45.7383 5.10989 46.4109 5.78725C47.0833 6.46439 48.1737 6.46485 48.8465 5.78725L50.8029 3.81703C52.3567 2.13264 50.0406 -0.200778 48.3673 1.36416Z" fill="url(#paint5_linear_58_4047)"/>
<path d="M38.1113 24.0302L34.8632 27.3013C36.674 30.8287 33.9798 35.2305 30.0188 35.1772C27.0348 35.1772 24.6071 32.7323 24.6071 29.7271C24.5545 25.7383 28.925 23.0244 32.4275 24.8484L36.18 21.0692C36.5029 20.7439 36.941 20.5611 37.3978 20.5611H49.1882C46.5192 -2.81754 13.5099 -2.80043 10.8493 20.5611H21.9265L25.1746 17.29C23.3638 13.7627 26.058 9.36085 30.019 9.41416C33.003 9.41416 35.4307 11.8591 35.4307 14.8643C35.4833 18.853 31.1128 21.5669 27.6102 19.7428L23.8577 23.522C23.5349 23.8473 23.0967 24.0301 22.64 24.0301H10.8506C11.2847 28.8754 13.5233 33.3954 17.145 36.6346C19.1174 38.4707 20.3968 40.938 20.789 43.5864C20.7933 43.5858 39.2423 43.5858 39.2488 43.5864C39.6408 40.9385 40.9203 38.4709 42.8929 36.6346C46.5146 33.3955 48.7533 28.8754 49.1873 24.0301L38.1113 24.0302Z" fill="url(#paint6_linear_58_4047)"/>
<path d="M20.9173 49.0364C20.9173 53.4974 24.0988 57.2221 28.2963 58.0354C28.1251 60.7228 31.9127 60.7212 31.7409 58.0354C35.9384 57.2221 39.1199 53.4974 39.1199 49.0364V47.0551H20.9173V49.0364Z" fill="url(#paint7_linear_58_4047)"/>
<path d="M31.9852 14.8644C31.9852 13.7721 31.1027 12.8832 30.018 12.8832C27.4118 12.9829 27.4125 16.7463 30.018 16.8457C31.1027 16.8455 31.9852 15.9568 31.9852 14.8644Z" fill="url(#paint8_linear_58_4047)"/>
<path d="M28.0506 29.727C28.0506 30.8194 28.9331 31.7082 30.0178 31.7082C32.624 31.6086 32.6233 27.8451 30.0178 27.7459C28.9331 27.7459 28.0506 28.6347 28.0506 29.727Z" fill="url(#paint9_linear_58_4047)"/>
<defs>
<linearGradient id="paint0_linear_58_4047" x1="30.0077" y1="3.79895" x2="30.0077" y2="60.0503" gradientUnits="userSpaceOnUse">
<stop stop-color="#6DC0EB"/>
<stop offset="1" stop-color="#2884CA"/>
</linearGradient>
<linearGradient id="paint1_linear_58_4047" x1="30.0077" y1="3.79895" x2="30.0077" y2="60.0503" gradientUnits="userSpaceOnUse">
<stop stop-color="#6DC0EB"/>
<stop offset="1" stop-color="#2884CA"/>
</linearGradient>
<linearGradient id="paint2_linear_58_4047" x1="30.0077" y1="3.79895" x2="30.0077" y2="60.0503" gradientUnits="userSpaceOnUse">
<stop stop-color="#6DC0EB"/>
<stop offset="1" stop-color="#2884CA"/>
</linearGradient>
<linearGradient id="paint3_linear_58_4047" x1="30.0077" y1="3.79895" x2="30.0077" y2="60.0503" gradientUnits="userSpaceOnUse">
<stop stop-color="#6DC0EB"/>
<stop offset="1" stop-color="#2884CA"/>
</linearGradient>
<linearGradient id="paint4_linear_58_4047" x1="30.0077" y1="3.79895" x2="30.0077" y2="60.0503" gradientUnits="userSpaceOnUse">
<stop stop-color="#6DC0EB"/>
<stop offset="1" stop-color="#2884CA"/>
</linearGradient>
<linearGradient id="paint5_linear_58_4047" x1="30.0077" y1="3.79895" x2="30.0077" y2="60.0503" gradientUnits="userSpaceOnUse">
<stop stop-color="#6DC0EB"/>
<stop offset="1" stop-color="#2884CA"/>
</linearGradient>
<linearGradient id="paint6_linear_58_4047" x1="30.0077" y1="3.79895" x2="30.0077" y2="60.0503" gradientUnits="userSpaceOnUse">
<stop stop-color="#6DC0EB"/>
<stop offset="1" stop-color="#2884CA"/>
</linearGradient>
<linearGradient id="paint7_linear_58_4047" x1="30.0077" y1="3.79895" x2="30.0077" y2="60.0503" gradientUnits="userSpaceOnUse">
<stop stop-color="#6DC0EB"/>
<stop offset="1" stop-color="#2884CA"/>
</linearGradient>
<linearGradient id="paint8_linear_58_4047" x1="30.0077" y1="3.79895" x2="30.0077" y2="60.0503" gradientUnits="userSpaceOnUse">
<stop stop-color="#6DC0EB"/>
<stop offset="1" stop-color="#2884CA"/>
</linearGradient>
<linearGradient id="paint9_linear_58_4047" x1="30.0077" y1="3.79895" x2="30.0077" y2="60.0503" gradientUnits="userSpaceOnUse">
<stop stop-color="#6DC0EB"/>
<stop offset="1" stop-color="#2884CA"/>
</linearGradient>
</defs>
</svg>
