<svg width="58" height="60" viewBox="0 0 58 60" fill="none" xmlns="http://www.w3.org/2000/svg">
<path d="M6.01728 55.248C5.32812 55.4636 4.57642 55.3073 4.03042 54.8347C3.48442 54.3621 3.2219 53.6406 3.33654 52.9276L6.59477 33.3398H5.78982C5.29291 33.3401 4.86582 33.6923 4.77091 34.1801L0.385752 56.6906C0.327606 56.9929 0.407609 57.3053 0.603867 57.5423C0.802699 57.7845 1.09963 57.9248 1.41297 57.9246H22.8631L23.1746 54.1595C17.4546 53.0794 11.5549 53.4537 6.01728 55.248Z" fill="url(#paint0_linear_58_4055)"/>
<path d="M16.5749 19.1741C16.1678 18.6187 15.5197 18.2913 14.831 18.2934C13.8479 18.2989 12.9885 18.9575 12.7274 19.9053C12.4664 20.8532 12.8676 21.8589 13.7093 22.3669C14.0321 22.556 14.2283 22.9041 14.2228 23.2782C14.2174 23.6523 14.0112 23.9945 13.6831 24.1742C13.3549 24.3538 12.9555 24.3431 12.6374 24.1461C12.3564 23.972 12.097 23.7653 11.8647 23.5302C10.9199 25.7125 11.2784 28.2403 12.7926 30.0739C14.3068 31.9076 16.7211 32.7376 19.0427 32.2226C18.9835 31.8795 18.9519 31.5322 18.9482 31.184C17.1166 30.9838 15.7287 29.438 15.7263 27.5955C15.7252 27.0193 16.1889 26.5501 16.765 26.5443C17.039 26.5413 17.3029 26.6479 17.498 26.8404C17.6931 27.0329 17.8031 27.2954 17.8036 27.5695V27.5955C17.8168 28.4159 18.4641 29.0855 19.2837 29.1264C19.4307 28.6599 19.63 28.2114 19.8778 27.7897C20.0642 27.4624 20.4131 27.2617 20.7896 27.2651C21.1662 27.2684 21.5115 27.4754 21.692 27.8059C21.8724 28.1365 21.8598 28.5388 21.6591 28.8574C20.4634 30.8353 20.9828 33.3995 22.854 34.7562C24.7252 36.1128 27.3238 35.8093 28.8319 34.0579C29.1194 33.7242 29.586 33.6081 29.9963 33.7681C31.089 34.2014 32.2664 34.379 33.4383 34.2874C34.0466 34.2475 34.6482 34.137 35.231 33.9582C35.5858 33.8491 35.9718 33.9375 36.2436 34.1902C36.5155 34.4429 36.6319 34.8214 36.549 35.1832C36.4661 35.5449 36.1965 35.835 35.8418 35.9441C35.3209 36.098 34.7884 36.2092 34.2495 36.2764C34.6172 37.0035 35.4834 37.6797 37.7279 38.4316C38.9104 38.8073 39.9637 39.5072 40.768 40.4518C41.0888 40.8512 41.6312 40.997 42.1089 40.8122C42.5219 40.6362 42.79 40.2308 42.7903 39.7819C42.7903 39.6679 42.772 39.5546 42.7363 39.4464C42.5411 38.8265 42.2814 38.2287 41.9614 37.663C41.3694 37.9111 40.7514 38.0916 40.1189 38.2011C40.0642 38.2093 40.009 38.2135 39.9538 38.2135C39.4133 38.2115 38.9647 37.7954 38.9222 37.2567C38.8796 36.7179 39.2573 36.2366 39.7907 36.1497C41.5053 35.8706 43.0414 34.9286 44.0678 33.5272C42.472 34.0101 40.7506 33.851 39.2703 33.0837C38.8327 32.8565 38.424 32.5775 38.053 32.2527C37.6385 32.4192 37.1963 32.5063 36.7495 32.5093C35.3773 32.513 34.1222 31.7364 33.5131 30.5068C33.2564 29.9937 33.4643 29.3696 33.9774 29.1129C34.4905 28.8562 35.1146 29.0641 35.3713 29.5772C35.5778 29.9701 35.9412 30.257 36.3712 30.3667C36.8013 30.4764 37.2577 30.3986 37.6272 30.1526C38.2563 29.7143 38.4693 28.8812 38.1278 28.1948C37.9608 27.8632 37.9834 27.4678 38.1871 27.1574C38.3907 26.847 38.7445 26.6688 39.1151 26.69C39.4857 26.7111 39.8169 26.9284 39.9839 27.26C40.5822 28.4351 40.4774 29.8455 39.7117 30.9191C39.872 31.0349 40.0403 31.1391 40.2155 31.2307C42.0009 32.1205 44.1595 31.7244 45.5126 30.2585L45.5375 30.2326C46.6164 29.0267 46.9531 27.3291 46.4162 25.8028C46.1757 25.9918 45.9156 26.1544 45.6403 26.2878C45.5027 26.353 45.3522 26.3867 45.1999 26.3865C44.7177 26.3818 44.3021 26.0457 44.1966 25.5751C44.0911 25.1045 44.3234 24.6232 44.7575 24.4131C45.1714 24.2186 45.515 23.9007 45.7411 23.5032C46.2695 22.6027 46.0856 21.4541 45.3026 20.7635C44.5196 20.0729 43.357 20.034 42.5296 20.6708C42.0707 21.015 41.4197 20.922 41.0755 20.4631C40.7313 20.0042 40.8243 19.3532 41.2832 19.009C41.6875 18.707 42.1427 18.4801 42.6272 18.3391C41.9512 15.4371 39.4504 13.3231 36.4764 13.1396C36.4764 13.2196 36.5003 13.2954 36.5003 13.3754C36.5003 13.949 36.0352 14.414 35.4616 14.414C34.888 14.414 34.423 13.949 34.423 13.3754C34.423 12.5948 34.0066 11.8736 33.3306 11.4833C32.6546 11.093 31.8218 11.093 31.1458 11.4833C30.4698 11.8736 30.0534 12.5948 30.0534 13.3754C30.0534 13.949 29.5884 14.414 29.0147 14.414C28.4411 14.414 27.9761 13.949 27.9761 13.3754C27.9817 12.9101 28.0642 12.449 28.2202 12.0106C27.403 11.4727 26.4471 11.184 25.4688 11.1797C23.6728 11.1862 22.0109 12.1317 21.0878 13.6724C20.8483 14.0786 20.6669 14.5163 20.5488 14.9728C20.3956 15.5165 19.8362 15.8381 19.2893 15.6969C18.7424 15.5556 18.4087 15.0033 18.5379 14.4535C18.5997 14.2332 18.6725 14.0162 18.7561 13.8033C18.631 13.7821 18.5047 13.7682 18.378 13.7618C16.8866 13.7666 15.602 14.8143 15.2974 16.2742C16.4689 16.3904 17.5377 16.9934 18.243 17.9361C18.4643 18.234 18.5099 18.6275 18.3625 18.9681C18.2151 19.3088 17.8972 19.545 17.5285 19.5877C17.1597 19.6304 16.7963 19.4731 16.5749 19.1752V19.1741ZM32.5056 25.0518C33.4039 24.4336 34.022 23.486 34.2256 22.4147C34.2895 22.0446 34.5482 21.7378 34.9023 21.6124C35.2563 21.4869 35.6504 21.5624 35.9331 21.8097C36.2157 22.057 36.3429 22.4377 36.2655 22.8052C35.767 25.3768 33.7219 27.3672 31.1377 27.7959C30.3781 29.8074 28.4489 31.1354 26.2987 31.1268C25.7251 31.1268 25.2601 30.6618 25.2601 30.0882C25.2601 29.5146 25.7251 29.0496 26.2987 29.0496C27.303 29.0511 28.2456 28.5651 28.8268 27.7461C27.5438 27.4717 26.3794 26.8014 25.4979 25.8298C25.1121 25.4038 25.1447 24.7458 25.5706 24.3601C25.9965 23.9743 26.6545 24.0069 27.0403 24.4328C28.4629 25.9532 30.779 26.2155 32.5056 25.0518ZM25.69 17.4167C26.2637 17.4167 26.7287 17.8818 26.7287 18.4554C26.7287 19.029 26.2637 19.494 25.69 19.494C24.9738 19.494 24.287 19.7785 23.7805 20.285C23.2741 20.7914 22.9896 21.4783 22.9896 22.1945C22.9896 22.7681 22.5246 23.2332 21.9509 23.2332C21.3773 23.2332 20.9123 22.7681 20.9123 22.1945C20.9151 19.557 23.0525 17.4196 25.69 17.4167Z" fill="url(#paint1_linear_58_4055)"/>
<path d="M27.9671 53.2735V40.2676C27.9671 39.694 28.4321 39.2289 29.0057 39.2289C29.5794 39.2289 30.0444 39.694 30.0444 40.2676V53.2735C37.3736 50.8261 45.2995 50.8261 52.6287 53.2735L48.8792 30.7121C48.5291 30.6539 48.1812 30.6144 47.8332 30.5698C47.6562 30.8642 47.4562 31.1441 47.235 31.4069C46.7801 33.534 45.5498 35.4156 43.7836 36.6853C44.1605 37.3569 44.4682 38.0651 44.7017 38.7989C44.8072 39.1157 44.8606 39.4476 44.8596 39.7815C44.862 41.0621 44.1003 42.2207 42.9236 42.7261C42.5337 42.8918 42.1144 42.9773 41.6907 42.9774C40.722 42.9708 39.8048 42.54 39.1813 41.7985C38.6205 41.1457 37.8879 40.6632 37.0667 40.4057C34.0203 39.3847 32.5704 38.2318 32.0687 36.329C31.3339 36.2786 30.6069 36.147 29.901 35.9364C28.4184 37.3179 26.3767 37.9296 24.3787 37.591C22.3806 37.2524 20.6545 36.002 19.7099 34.2092C16.1942 35.0726 12.5213 33.5825 10.601 30.5137L9.89468 30.6082C9.44092 30.6675 9.07942 31.0167 9.00457 31.4682L5.38281 53.2652C12.713 50.821 20.6387 50.8239 27.9671 53.2735Z" fill="url(#paint2_linear_58_4055)"/>
<path d="M52.2322 33.3408H51.4294L54.6855 52.9245C54.8014 53.6362 54.541 54.3573 53.9971 54.8308C53.4532 55.3043 52.7031 55.4628 52.0141 55.25C46.4755 53.4522 40.5741 53.0747 34.8516 54.1521L35.1632 57.9245H56.6101C56.9235 57.9247 57.2204 57.7844 57.4192 57.5423C57.6155 57.3052 57.6955 56.9928 57.6373 56.6906L53.2511 34.1811C53.1562 33.6933 52.7291 33.3411 52.2322 33.3408Z" fill="url(#paint3_linear_58_4055)"/>
<path d="M29.4575 55.7431C29.3173 55.8113 29.1635 55.8468 29.0077 55.847C28.8523 55.8461 28.699 55.8106 28.559 55.7431C27.4764 55.2808 26.3588 54.9054 25.2167 54.6204L24.8594 58.9307C25.0702 59.2621 26.5056 60.0016 29.0077 60.0016C31.5098 60.0016 32.9452 59.2621 33.1561 58.9328L32.7988 54.6162C31.6568 54.9024 30.5395 55.2792 29.4575 55.7431Z" fill="url(#paint4_linear_58_4055)"/>
<path d="M29.0074 3.91476C29.581 3.91476 30.046 3.44974 30.046 2.87612V1.83747C30.046 1.26384 29.581 0.798828 29.0074 0.798828C28.4338 0.798828 27.9688 1.26384 27.9688 1.83747V2.87612C27.9688 3.44974 28.4338 3.91476 29.0074 3.91476Z" fill="url(#paint5_linear_58_4055)"/>
<path d="M45.7494 11.0633C46.0248 11.0632 46.289 10.9538 46.4837 10.759L47.5224 9.72033C47.7924 9.45955 47.9006 9.07338 47.8056 8.71024C47.7105 8.3471 47.4269 8.0635 47.0638 7.96845C46.7007 7.87339 46.3145 7.98168 46.0537 8.25168L45.0151 9.29033C44.7181 9.58737 44.6293 10.034 44.79 10.4221C44.9507 10.8101 45.3294 11.0632 45.7494 11.0633Z" fill="url(#paint6_linear_58_4055)"/>
<path d="M11.5354 10.759C11.943 11.1526 12.5908 11.147 12.9914 10.7463C13.3921 10.3457 13.3977 9.69787 13.0041 9.29033L11.9654 8.25168C11.7047 7.98168 11.3185 7.87339 10.9554 7.96845C10.5922 8.0635 10.3086 8.3471 10.2136 8.71024C10.1185 9.07338 10.2268 9.45955 10.4968 9.72033L11.5354 10.759Z" fill="url(#paint7_linear_58_4055)"/>
<path d="M19.3038 6.05196C19.4647 6.43998 19.8434 6.69291 20.2635 6.6928C20.4 6.69251 20.5351 6.6657 20.6613 6.61386C20.9159 6.50841 21.1181 6.30612 21.2235 6.05152C21.3289 5.79692 21.3288 5.51088 21.2232 5.25635L20.0298 2.37723C19.8931 2.02656 19.5774 1.77728 19.2046 1.72566C18.8317 1.67403 18.4602 1.82813 18.2333 2.12846C18.0065 2.42879 17.9598 2.82834 18.1114 3.17283L19.3038 6.05196Z" fill="url(#paint8_linear_58_4055)"/>
<path d="M37.3525 6.61484C37.4787 6.66667 37.6138 6.69348 37.7503 6.69378C38.1703 6.69388 38.5491 6.44096 38.71 6.05293L39.9023 3.17381C40.0539 2.82932 40.0073 2.42976 39.7805 2.12944C39.5536 1.82911 39.182 1.67501 38.8092 1.72663C38.4364 1.77826 38.1207 2.02754 37.984 2.37821L36.7906 5.25629C36.6847 5.51094 36.6844 5.79724 36.7898 6.05209C36.8952 6.30693 37.0976 6.5094 37.3525 6.61484Z" fill="url(#paint9_linear_58_4055)"/>
<path d="M50.12 19.0598C50.2566 19.0596 50.3918 19.0324 50.5178 18.9798L53.3959 17.7875C53.7388 17.6455 53.9799 17.3315 54.0284 16.9636C54.0769 16.5957 53.9255 16.2298 53.6311 16.0038C53.3368 15.7779 52.9442 15.7261 52.6014 15.8681L49.7222 17.0604C49.2628 17.2491 49.0013 17.7367 49.0982 18.2238C49.1951 18.711 49.6234 19.0613 50.12 19.0598Z" fill="url(#paint10_linear_58_4055)"/>
<path d="M4.62605 17.7877L7.50414 18.9801C8.03417 19.1998 8.64194 18.9482 8.86164 18.4182C9.08134 17.8882 8.82977 17.2804 8.29974 17.0607L5.42062 15.8683C4.89058 15.6489 4.28304 15.9007 4.06363 16.4307C3.84421 16.9608 4.09602 17.5683 4.62605 17.7877Z" fill="url(#paint11_linear_58_4055)"/>
<defs>
<linearGradient id="paint0_linear_58_4055" x1="11.7709" y1="33.3398" x2="11.7709" y2="57.9246" gradientUnits="userSpaceOnUse">
<stop stop-color="#6DC0EB"/>
<stop offset="1" stop-color="#2884CA"/>
</linearGradient>
<linearGradient id="paint1_linear_58_4055" x1="29.0057" y1="11.1797" x2="29.0057" y2="40.8914" gradientUnits="userSpaceOnUse">
<stop stop-color="#6DC0EB"/>
<stop offset="1" stop-color="#2884CA"/>
</linearGradient>
<linearGradient id="paint2_linear_58_4055" x1="29.0057" y1="30.5137" x2="29.0057" y2="53.2735" gradientUnits="userSpaceOnUse">
<stop stop-color="#6DC0EB"/>
<stop offset="1" stop-color="#2884CA"/>
</linearGradient>
<linearGradient id="paint3_linear_58_4055" x1="46.2537" y1="33.3408" x2="46.2537" y2="57.9245" gradientUnits="userSpaceOnUse">
<stop stop-color="#6DC0EB"/>
<stop offset="1" stop-color="#2884CA"/>
</linearGradient>
<linearGradient id="paint4_linear_58_4055" x1="29.0077" y1="54.6162" x2="29.0077" y2="60.0016" gradientUnits="userSpaceOnUse">
<stop stop-color="#6DC0EB"/>
<stop offset="1" stop-color="#2884CA"/>
</linearGradient>
<linearGradient id="paint5_linear_58_4055" x1="29.0074" y1="0.798828" x2="29.0074" y2="3.91476" gradientUnits="userSpaceOnUse">
<stop stop-color="#6DC0EB"/>
<stop offset="1" stop-color="#2884CA"/>
</linearGradient>
<linearGradient id="paint6_linear_58_4055" x1="46.2752" y1="7.93457" x2="46.2752" y2="11.0633" gradientUnits="userSpaceOnUse">
<stop stop-color="#6DC0EB"/>
<stop offset="1" stop-color="#2884CA"/>
</linearGradient>
<linearGradient id="paint7_linear_58_4055" x1="11.7377" y1="7.93457" x2="11.7377" y2="11.0505" gradientUnits="userSpaceOnUse">
<stop stop-color="#6DC0EB"/>
<stop offset="1" stop-color="#2884CA"/>
</linearGradient>
<linearGradient id="paint8_linear_58_4055" x1="19.6629" y1="1.71582" x2="19.6629" y2="6.6928" gradientUnits="userSpaceOnUse">
<stop stop-color="#6DC0EB"/>
<stop offset="1" stop-color="#2884CA"/>
</linearGradient>
<linearGradient id="paint9_linear_58_4055" x1="38.3506" y1="1.7168" x2="38.3506" y2="6.69378" gradientUnits="userSpaceOnUse">
<stop stop-color="#6DC0EB"/>
<stop offset="1" stop-color="#2884CA"/>
</linearGradient>
<linearGradient id="paint10_linear_58_4055" x1="51.5577" y1="15.7891" x2="51.5577" y2="19.0598" gradientUnits="userSpaceOnUse">
<stop stop-color="#6DC0EB"/>
<stop offset="1" stop-color="#2884CA"/>
</linearGradient>
<linearGradient id="paint11_linear_58_4055" x1="6.46273" y1="15.7891" x2="6.46273" y2="19.0595" gradientUnits="userSpaceOnUse">
<stop stop-color="#6DC0EB"/>
<stop offset="1" stop-color="#2884CA"/>
</linearGradient>
</defs>
</svg>
