<svg width="67" height="67" viewBox="0 0 67 67" fill="none" xmlns="http://www.w3.org/2000/svg">
<path d="M16.6856 31.1955H21.4529C22.7693 31.1955 23.8366 30.1283 23.8366 28.8119V19.2773C23.8366 17.9609 22.7693 16.8936 21.4529 16.8936C21.4529 10.3223 26.7998 4.97532 33.3712 4.97532C39.9425 4.97532 45.2895 10.3223 45.2895 16.8936C43.9731 16.8936 42.9058 17.9609 42.9058 19.2773V28.8119C42.9058 33.8225 38.8881 35.3623 35.749 35.8011C35.6664 34.5604 34.6329 33.5792 33.3712 33.5792H30.9875C29.6712 33.5792 28.6039 34.6465 28.6039 35.9629V38.3465C28.6039 39.6629 29.6712 40.7302 30.9875 40.7302H33.3712C41.0605 40.7302 46.3226 37.0571 47.4356 31.1955H50.0568C52.686 31.1955 54.8241 29.0575 54.8241 26.4282V21.6609C54.8241 19.0317 52.686 16.8936 50.0568 16.8936C50.0568 7.69302 42.5718 0.208008 33.3712 0.208008C24.1706 0.208008 16.6856 7.69302 16.6856 16.8936C14.0564 16.8936 11.9183 19.0317 11.9183 21.6609V26.4282C11.9183 29.0575 14.0564 31.1955 16.6856 31.1955Z" fill="url(#paint0_linear_58_4077)"/>
<path d="M59.5914 16.8936H55.3573C56.4984 18.1609 57.2078 19.825 57.2078 21.6609V26.4282C57.2078 30.3715 54.0001 33.5792 50.0568 33.5792H49.2653C47.2192 39.5116 41.3159 43.1138 33.3712 43.1138C25.4264 43.1138 19.5232 39.5116 17.477 33.5792H16.6856C12.7423 33.5792 9.53463 30.3715 9.53463 26.4282V21.6609C9.53463 19.825 10.244 18.1609 11.3851 16.8936H7.15097C3.20769 16.8936 0 20.1013 0 24.0446V52.6485C0 56.5917 3.20769 59.7994 7.15097 59.7994H26.2202V62.1831H23.8366C22.519 62.1831 21.4529 63.2504 21.4529 64.5667C21.4529 65.8831 22.519 66.9504 23.8366 66.9504H42.9058C44.2233 66.9504 45.2895 65.8831 45.2895 64.5667C45.2895 63.2504 44.2233 62.1831 42.9058 62.1831H40.5222V59.7994H59.5914C63.5347 59.7994 66.7424 56.5917 66.7424 52.6485V24.0446C66.7424 20.1013 63.5347 16.8936 59.5914 16.8936ZM28.2547 55.3813C28.7203 55.8468 28.7203 56.601 28.2547 57.0666C28.0219 57.2994 27.717 57.4158 27.4121 57.4158C27.1071 57.4158 26.8022 57.2994 26.5694 57.0666L21.8021 52.2993C21.3365 51.8337 21.3365 51.0795 21.8021 50.614L26.5694 45.8467C27.0349 45.3811 27.7892 45.3811 28.2547 45.8467C28.7203 46.3122 28.7203 47.0664 28.2547 47.532L24.3301 51.4566L28.2547 55.3813ZM35.7186 47.1527L33.335 56.6873C33.2 57.2297 32.7146 57.5905 32.1804 57.5905C32.0849 57.5905 31.9872 57.5789 31.8906 57.5544C31.2516 57.395 30.8629 56.7478 31.0235 56.11L33.4071 46.5754C33.5666 45.9353 34.2091 45.5465 34.8515 45.7083C35.4905 45.8677 35.8792 46.5149 35.7186 47.1527ZM44.9403 52.2993L40.173 57.0666C39.9402 57.2994 39.6353 57.4158 39.3303 57.4158C39.0254 57.4158 38.7205 57.2994 38.4877 57.0666C38.0221 56.601 38.0221 55.8468 38.4877 55.3813L42.4123 51.4566L38.4877 47.532C38.0221 47.0664 38.0221 46.3122 38.4877 45.8467C38.9532 45.3811 39.7074 45.3811 40.173 45.8467L44.9403 50.614C45.4059 51.0795 45.4059 51.8337 44.9403 52.2993Z" fill="url(#paint1_linear_58_4077)"/>
<defs>
<linearGradient id="paint0_linear_58_4077" x1="33.3712" y1="0.208008" x2="33.3712" y2="66.9504" gradientUnits="userSpaceOnUse">
<stop stop-color="#6DC0EB"/>
<stop offset="1" stop-color="#2884CA"/>
</linearGradient>
<linearGradient id="paint1_linear_58_4077" x1="33.3712" y1="0.208008" x2="33.3712" y2="66.9504" gradientUnits="userSpaceOnUse">
<stop stop-color="#6DC0EB"/>
<stop offset="1" stop-color="#2884CA"/>
</linearGradient>
</defs>
</svg>
