<svg width="67" height="58" viewBox="0 0 67 58" fill="none" xmlns="http://www.w3.org/2000/svg">
<path d="M59.5914 12.5091H7.15097V43.4966H59.5914V12.5091ZM22.6447 29.1947H36.9467V31.5784H22.6447V29.1947ZM17.8774 28.0029V25.6192H25.0284V28.0029H17.8774ZM30.3261 18.268C30.1959 18.1812 30.084 18.0695 29.997 17.9394C29.9099 17.8093 29.8493 17.6634 29.8186 17.5099C29.788 17.3564 29.7879 17.1983 29.8183 17.0448C29.8487 16.8912 29.9091 16.7452 29.9959 16.615C30.0828 16.4847 30.1945 16.3729 30.3245 16.2858C30.4546 16.1988 30.6006 16.1382 30.7541 16.1075C30.9076 16.0769 31.0656 16.0767 31.2192 16.1072C31.3727 16.1376 31.5188 16.1979 31.649 16.2848L35.2245 18.6685C35.3877 18.7773 35.5216 18.9248 35.6141 19.0977C35.7067 19.2707 35.7551 19.4639 35.7551 19.6601C35.7551 19.8563 35.7067 20.0494 35.6141 20.2224C35.5216 20.3954 35.3877 20.5428 35.2245 20.6517L31.649 23.0353C31.5188 23.1222 31.3727 23.1826 31.2192 23.213C31.0656 23.2434 30.9076 23.2433 30.7541 23.2126C30.6006 23.182 30.4546 23.1214 30.3245 23.0343C30.1945 22.9472 30.0828 22.8354 29.9959 22.7052C29.9091 22.575 29.8487 22.4289 29.8183 22.2754C29.7879 22.1218 29.788 21.9638 29.8186 21.8103C29.8806 21.5003 30.0631 21.2276 30.3261 21.0521L32.4177 19.6601L30.3261 18.268ZM29.7957 28.0029H27.4121V25.6192H29.7957V28.0029ZM23.8985 22.8589L26.2822 15.708C26.3317 15.5593 26.4099 15.4218 26.5125 15.3034C26.6151 15.1849 26.74 15.0878 26.8801 15.0177C27.0202 14.9475 27.1728 14.9056 27.3291 14.8944C27.4854 14.8832 27.6424 14.9029 27.7911 14.9524C27.9397 15.0018 28.0772 15.0801 28.1957 15.1827C28.3141 15.2853 28.4112 15.4102 28.4814 15.5503C28.5515 15.6904 28.5934 15.843 28.6046 15.9992C28.6158 16.1555 28.5961 16.3125 28.5467 16.4612L26.163 23.6122C26.1136 23.7609 26.0353 23.8984 25.9327 24.0168C25.8301 24.1352 25.7052 24.2323 25.5651 24.3025C25.425 24.3726 25.2724 24.4145 25.1161 24.4257C24.9598 24.4369 24.8028 24.4173 24.6542 24.3678C24.5055 24.3183 24.368 24.2401 24.2495 24.1375C24.1311 24.0349 24.034 23.91 23.9639 23.7699C23.8937 23.6298 23.8518 23.4772 23.8406 23.3209C23.8294 23.1646 23.8491 23.0076 23.8985 22.8589ZM14.3019 37.5375C14.3019 37.8536 14.1764 38.1567 13.9529 38.3802C13.7294 38.6038 13.4262 38.7293 13.1101 38.7293C12.794 38.7293 12.4909 38.6038 12.2674 38.3802C12.0439 38.1567 11.9183 37.8536 11.9183 37.5375V18.4682C11.9183 18.1522 12.0439 17.849 12.2674 17.6255C12.4909 17.402 12.794 17.2764 13.1101 17.2764C13.4262 17.2764 13.7294 17.402 13.9529 17.6255C14.1764 17.849 14.3019 18.1522 14.3019 18.4682V37.5375ZM16.6856 19.6601C16.6856 19.4639 16.734 19.2708 16.8265 19.0978C16.919 18.9248 17.0528 18.7773 17.216 18.6685L20.7914 16.2848C21.0544 16.1094 21.3763 16.0456 21.6864 16.1075C21.9964 16.1694 22.2691 16.352 22.4445 16.615C22.6199 16.8779 22.6837 17.1999 22.6218 17.5099C22.5599 17.8199 22.3774 18.0926 22.1144 18.268L20.0227 19.6601L22.1108 21.0521C22.3738 21.2276 22.5563 21.5003 22.6182 21.8103C22.6801 22.1203 22.6164 22.4422 22.4409 22.7052C22.2655 22.9682 21.9928 23.1507 21.6828 23.2126C21.3728 23.2745 21.0509 23.2108 20.7879 23.0353L17.2124 20.6517C17.0499 20.5424 16.9168 20.3947 16.8249 20.2218C16.733 20.0488 16.6852 19.8559 16.6856 19.6601ZM25.0284 38.7293H17.8774V36.3457H25.0284V38.7293ZM25.0284 35.1538H22.6447V32.7702H25.0284V35.1538ZM29.7957 38.7293H27.4121V36.3457H29.7957V38.7293ZM41.714 35.1538H27.4121V32.7702H41.714V35.1538ZM41.714 31.5784H39.3303V29.1947H41.714V31.5784ZM48.865 35.1538H44.0976V32.7702H48.865V35.1538ZM54.8241 31.5784H44.0976V29.1947H54.8241V31.5784Z" fill="url(#paint0_linear_58_4078)"/>
<path d="M59.5914 5.35813H7.15097V10.1254H59.5914V5.35813ZM11.9183 8.93362H9.53463V6.54996H11.9183V8.93362ZM16.6856 8.93362H14.3019V6.54996H16.6856V8.93362ZM21.4529 8.93362H19.0693V6.54996H21.4529V8.93362Z" fill="url(#paint1_linear_58_4078)"/>
<path d="M66.7424 50.6476H41.714V51.8394C41.714 52.7877 41.3373 53.6972 40.6668 54.3677C39.9962 55.0382 39.0868 55.4149 38.1385 55.4149H28.6039C27.6556 55.4149 26.7462 55.0382 26.0756 54.3677C25.4051 53.6972 25.0284 52.7877 25.0284 51.8394V50.6476H0V54.2231C0 55.1714 0.376702 56.0808 1.04724 56.7513C1.71777 57.4219 2.62721 57.7986 3.57548 57.7986H63.1669C64.1152 57.7986 65.0246 57.4219 65.6952 56.7513C66.3657 56.0808 66.7424 55.1714 66.7424 54.2231V50.6476Z" fill="url(#paint2_linear_58_4078)"/>
<path d="M2.38366 48.264H64.3587V4.16631C64.3587 3.21803 63.982 2.30859 63.3115 1.63806C62.641 0.967522 61.7315 0.59082 60.7832 0.59082H5.95914C5.01086 0.59082 4.10143 0.967522 3.43089 1.63806C2.76036 2.30859 2.38366 3.21803 2.38366 4.16631V48.264ZM4.76731 4.16631C4.76731 3.85021 4.89288 3.54707 5.11639 3.32356C5.3399 3.10004 5.64305 2.97448 5.95914 2.97448H60.7832C61.0993 2.97448 61.4025 3.10004 61.626 3.32356C61.8495 3.54707 61.9751 3.85021 61.9751 4.16631V44.6885C61.9751 45.0046 61.8495 45.3077 61.626 45.5312C61.4025 45.7547 61.0993 45.8803 60.7832 45.8803H5.95914C5.64305 45.8803 5.3399 45.7547 5.11639 45.5312C4.89288 45.3077 4.76731 45.0046 4.76731 44.6885V4.16631Z" fill="url(#paint3_linear_58_4078)"/>
<path d="M28.6039 53.0313H38.1385C38.4546 53.0313 38.7577 52.9057 38.9813 52.6822C39.2048 52.4587 39.3303 52.1555 39.3303 51.8394V50.6476H27.4121V51.8394C27.4121 52.1555 27.5376 52.4587 27.7611 52.6822C27.9846 52.9057 28.2878 53.0313 28.6039 53.0313Z" fill="url(#paint4_linear_58_4078)"/>
<defs>
<linearGradient id="paint0_linear_58_4078" x1="33.3712" y1="0.59082" x2="33.3712" y2="57.7986" gradientUnits="userSpaceOnUse">
<stop stop-color="#6DC0EB"/>
<stop offset="1" stop-color="#2884CA"/>
</linearGradient>
<linearGradient id="paint1_linear_58_4078" x1="33.3712" y1="0.59082" x2="33.3712" y2="57.7986" gradientUnits="userSpaceOnUse">
<stop stop-color="#6DC0EB"/>
<stop offset="1" stop-color="#2884CA"/>
</linearGradient>
<linearGradient id="paint2_linear_58_4078" x1="33.3712" y1="0.59082" x2="33.3712" y2="57.7986" gradientUnits="userSpaceOnUse">
<stop stop-color="#6DC0EB"/>
<stop offset="1" stop-color="#2884CA"/>
</linearGradient>
<linearGradient id="paint3_linear_58_4078" x1="33.3712" y1="0.59082" x2="33.3712" y2="57.7986" gradientUnits="userSpaceOnUse">
<stop stop-color="#6DC0EB"/>
<stop offset="1" stop-color="#2884CA"/>
</linearGradient>
<linearGradient id="paint4_linear_58_4078" x1="33.3712" y1="0.59082" x2="33.3712" y2="57.7986" gradientUnits="userSpaceOnUse">
<stop stop-color="#6DC0EB"/>
<stop offset="1" stop-color="#2884CA"/>
</linearGradient>
</defs>
</svg>
