<svg width="259" height="227" viewBox="0 0 259 227" fill="none" xmlns="http://www.w3.org/2000/svg">
<g clip-path="url(#clip0_58_9612)">
<path d="M200.39 5.69402C206.187 10.9899 207.225 19.3022 207.225 19.3022C207.225 19.3022 198.872 19.0251 193.075 13.7293C187.279 8.43343 186.24 0.121094 186.24 0.121094C186.24 0.121094 194.594 0.398172 200.39 5.69402Z" fill="url(#paint0_linear_58_9612)"/>
<path d="M159.631 200.857C154.643 207.271 154.34 214.847 154.408 214.868C154.387 214.962 164.874 212.024 169.586 204.95C174.292 197.966 172.001 190.725 172.069 190.746C172.043 190.814 164.613 194.5 159.631 200.852V200.857Z" fill="url(#paint1_linear_58_9612)"/>
<path d="M166.981 223.07C157.777 221.501 154.339 214.527 154.344 214.59C154.453 214.622 164.32 211.772 172.819 212.771C181.402 213.816 186.447 219.159 186.447 219.217C186.567 219.243 176.289 224.67 166.986 223.065L166.981 223.07Z" fill="url(#paint2_linear_58_9612)"/>
<path d="M177.829 192.847C174.401 199.878 175.633 207.234 175.695 207.249C175.685 207.349 184.904 202.759 188.009 195.126C191.124 187.577 187.581 180.958 187.644 180.969C187.628 181.042 181.257 185.873 177.829 192.847Z" fill="url(#paint3_linear_58_9612)"/>
<path d="M189.078 213.058C180.13 213.084 175.575 206.926 175.58 206.988C175.679 207.004 184.33 202.602 192.579 202.137C200.911 201.698 206.75 206.006 206.755 206.063C206.87 206.073 198.12 213.058 189.078 213.063V213.058Z" fill="url(#paint4_linear_58_9612)"/>
<path d="M193.539 182.01C191.593 189.403 194.186 196.303 194.244 196.303C194.244 196.397 202.143 190.401 203.724 182.465C205.321 174.618 200.708 168.805 200.766 168.805C200.766 168.878 195.496 174.67 193.539 182.005V182.01Z" fill="url(#paint5_linear_58_9612)"/>
<path d="M208.095 199.654C199.553 201.207 194.064 196.016 194.08 196.073C194.174 196.073 201.557 190.349 209.409 188.477C217.34 186.621 223.773 189.789 223.789 189.841C223.893 189.831 216.73 198.112 208.1 199.654H208.095Z" fill="url(#paint6_linear_58_9612)"/>
<path d="M206.661 168.803C206.118 176.315 209.89 182.552 209.948 182.547C209.964 182.641 216.48 175.463 216.616 167.475C216.778 159.565 211.278 154.714 211.336 154.703C211.341 154.776 207.224 161.343 206.666 168.803H206.661Z" fill="url(#paint7_linear_58_9612)"/>
<path d="M223.933 183.404C215.95 186.384 209.73 182.301 209.746 182.353C209.83 182.337 215.898 175.515 223.202 172.321C230.575 169.132 237.404 171.082 237.425 171.134C237.524 171.108 231.999 180.408 223.933 183.398V183.404Z" fill="url(#paint8_linear_58_9612)"/>
<path d="M217.062 153.655C217.834 161.068 222.613 166.468 222.66 166.453C222.686 166.542 227.773 158.417 226.547 150.602C225.352 142.859 219.164 139.09 219.216 139.074C219.232 139.147 216.315 146.294 217.062 153.655Z" fill="url(#paint9_linear_58_9612)"/>
<path d="M236.436 164.833C229.173 169.136 222.411 166.25 222.438 166.297C222.516 166.271 227.222 158.57 233.817 154.163C240.475 149.751 247.492 150.441 247.518 150.488C247.607 150.446 243.777 160.505 236.436 164.828V164.833Z" fill="url(#paint10_linear_58_9612)"/>
<path d="M224.657 137.026C226.661 144.141 232.254 148.559 232.296 148.538C232.332 148.622 235.938 139.792 233.433 132.347C230.976 124.976 224.287 122.378 224.328 122.352C224.36 122.42 222.685 129.958 224.652 137.021L224.657 137.026Z" fill="url(#paint11_linear_58_9612)"/>
<path d="M245.495 144.508C239.114 150.003 232.018 148.377 232.049 148.424C232.117 148.388 235.419 140.033 241.143 134.539C246.929 129.029 253.921 128.448 253.952 128.49C254.036 128.438 251.954 138.983 245.495 144.508Z" fill="url(#paint12_linear_58_9612)"/>
<path d="M229.311 119.375C232.457 126.004 238.666 129.335 238.708 129.303C238.76 129.382 240.821 120.076 237.132 113.196C233.496 106.379 226.509 105.02 226.551 104.988C226.593 105.051 226.207 112.788 229.311 119.375Z" fill="url(#paint13_linear_58_9612)"/>
<path d="M250.97 122.992C245.632 129.532 238.411 129.203 238.447 129.24C238.505 129.193 240.357 120.41 245.048 113.969C249.796 107.502 256.542 105.667 256.584 105.704C256.657 105.641 256.38 116.405 250.97 122.987V122.992Z" fill="url(#paint14_linear_58_9612)"/>
<path d="M230.941 101.144C235.131 107.125 241.767 109.278 241.804 109.247C241.866 109.315 242.336 99.7742 237.552 93.6262C232.83 87.5305 225.755 87.4364 225.791 87.3945C225.843 87.452 226.798 95.1998 230.941 101.144Z" fill="url(#paint15_linear_58_9612)"/>
<path d="M252.752 100.809C248.625 108.222 241.492 109.195 241.539 109.226C241.586 109.168 241.936 100.182 245.432 92.9619C248.98 85.7056 255.256 82.6682 255.303 82.6996C255.366 82.6264 256.947 93.3436 252.752 100.809Z" fill="url(#paint16_linear_58_9612)"/>
<path d="M229.409 82.7875C234.548 87.9736 241.41 88.9094 241.441 88.8676C241.519 88.9251 240.335 79.3842 234.554 74.1197C228.846 68.897 221.891 70.0576 221.922 70.0158C221.99 70.0628 224.327 77.6276 229.409 82.7875Z" fill="url(#paint17_linear_58_9612)"/>
<path d="M250.682 78.541C247.932 86.6442 241.113 88.8817 241.165 88.9079C241.207 88.8452 240.002 79.8741 242.135 72.0532C244.311 64.1904 249.889 60.029 249.941 60.0552C249.993 59.9715 253.489 70.375 250.677 78.541H250.682Z" fill="url(#paint18_linear_58_9612)"/>
<path d="M224.622 64.7746C230.612 69.0406 237.483 68.7374 237.51 68.6955C237.598 68.7426 234.713 59.437 228.034 55.1867C221.439 50.9678 214.824 53.3517 214.85 53.3046C214.928 53.3412 218.7 60.5296 224.622 64.7746Z" fill="url(#paint19_linear_58_9612)"/>
<path d="M244.677 56.7191C243.482 65.3033 237.195 68.7537 237.257 68.7694C237.289 68.7014 234.492 59.9708 235.082 51.7526C235.713 43.4873 240.357 38.3169 240.419 38.3326C240.466 38.2438 245.924 48.0617 244.672 56.7191H244.677Z" fill="url(#paint20_linear_58_9612)"/>
<path d="M216.467 47.5488C223.202 50.7848 229.876 49.2583 229.897 49.2112C230.001 49.2478 225.352 40.4179 217.881 37.2864C210.498 34.1759 204.44 37.7256 204.461 37.6733C204.555 37.6994 209.809 44.318 216.467 47.5436V47.5488Z" fill="url(#paint21_linear_58_9612)"/>
<path d="M234.576 35.9136C235.113 44.754 229.593 49.3179 229.661 49.3284C229.682 49.2552 225.242 40.9847 224.12 32.5939C223.029 24.1509 226.504 18.1127 226.572 18.1179C226.609 18.0238 234.085 26.9949 234.576 35.9084V35.9136Z" fill="url(#paint22_linear_58_9612)"/>
<path d="M204.821 31.5713C212.198 33.6886 218.454 30.9806 218.465 30.9335C218.579 30.9545 212.12 22.8408 203.96 20.9274C195.899 19.0192 190.629 23.6354 190.645 23.5831C190.749 23.5936 197.532 29.4488 204.821 31.5713Z" fill="url(#paint23_linear_58_9612)"/>
<path d="M220.252 16.6883C222.699 25.5392 218.181 31.1016 218.259 31.1016C218.27 31.0284 212.139 23.4428 209.123 15.1147C206.133 6.72922 208.189 0.000932286 208.267 0.000932286C208.294 -0.0983975 217.847 7.75389 220.252 16.6883Z" fill="url(#paint24_linear_58_9612)"/>
<path d="M124.906 217.192L125.052 215.572C138.467 216.79 151.839 215.289 164.795 211.123C177.421 207.061 189.108 200.646 199.538 192.062C221.181 174.245 235.138 148.817 238.837 120.461C241.868 97.2436 240.314 76.5516 234.214 58.965C227.666 40.0767 216.01 25.3027 199.559 15.0403L200.42 13.6602C217.189 24.1212 229.075 39.1879 235.748 58.4318C241.931 76.2589 243.507 97.2018 240.444 120.675C236.687 149.439 222.527 175.238 200.561 193.322C189.975 202.042 178.105 208.55 165.28 212.675C152.111 216.91 138.524 218.431 124.891 217.197L124.906 217.192Z" fill="url(#paint25_linear_58_9612)"/>
<path d="M53.8038 5.69402C48.007 10.9899 46.9688 19.3022 46.9688 19.3022C46.9688 19.3022 55.3221 19.0251 61.1188 13.7293C66.9103 8.43343 67.9538 0.121094 67.9538 0.121094C67.9538 0.121094 59.6005 0.398172 53.8038 5.69402Z" fill="url(#paint26_linear_58_9612)"/>
<path d="M94.5582 200.853C99.5462 207.268 99.8488 214.843 99.781 214.864C99.8018 214.958 89.3145 212.02 84.603 204.946C79.8968 197.962 82.1873 190.721 82.1195 190.742C82.1456 190.81 89.5754 194.496 94.5582 200.848V200.853Z" fill="url(#paint27_linear_58_9612)"/>
<path d="M87.2158 223.07C96.4196 221.501 99.858 214.527 99.8528 214.59C99.7432 214.622 89.8768 211.772 81.3774 212.771C72.7945 213.816 67.7491 219.159 67.7491 219.217C67.6291 219.243 77.9077 224.67 87.2106 223.065L87.2158 223.07Z" fill="url(#paint28_linear_58_9612)"/>
<path d="M76.3613 192.847C79.7892 199.878 78.5579 207.234 78.4952 207.249C78.5057 207.349 69.2862 202.759 66.1818 195.126C63.0669 187.577 66.6096 180.958 66.547 180.969C66.5627 181.042 72.9333 185.873 76.3613 192.847Z" fill="url(#paint29_linear_58_9612)"/>
<path d="M65.1157 213.058C74.0639 213.084 78.6188 206.926 78.6136 206.988C78.5144 207.004 69.8637 202.602 61.6147 202.137C53.2823 201.698 47.4438 206.006 47.4386 206.063C47.3238 206.073 56.0737 213.058 65.1157 213.063V213.058Z" fill="url(#paint30_linear_58_9612)"/>
<path d="M60.6478 182.01C62.5939 189.403 60.0008 196.303 59.9434 196.303C59.9434 196.397 52.044 190.401 50.4631 182.465C48.8665 174.618 53.4789 168.805 53.4215 168.805C53.4215 168.878 58.6912 174.67 60.6478 182.005V182.01Z" fill="url(#paint31_linear_58_9612)"/>
<path d="M46.094 199.654C54.6352 201.207 60.124 196.016 60.1084 196.073C60.0145 196.073 52.6316 190.349 44.7792 188.477C36.8485 186.621 30.4152 189.789 30.3996 189.841C30.2952 189.831 37.4589 198.112 46.0888 199.654H46.094Z" fill="url(#paint32_linear_58_9612)"/>
<path d="M47.5426 168.803C48.0852 176.315 44.3129 182.552 44.2555 182.547C44.2399 182.641 37.7231 175.463 37.5875 167.475C37.4257 159.565 42.9251 154.714 42.8677 154.703C42.8624 154.776 46.9791 161.343 47.5374 168.803H47.5426Z" fill="url(#paint33_linear_58_9612)"/>
<path d="M30.2713 183.4C38.2542 186.38 44.4735 182.297 44.4578 182.349C44.3744 182.333 38.3063 175.511 31.0017 172.317C23.6293 169.128 16.7995 171.078 16.7787 171.13C16.6795 171.104 22.2049 180.404 30.2713 183.395V183.4Z" fill="url(#paint34_linear_58_9612)"/>
<path d="M37.1333 153.655C36.3611 161.068 31.5818 166.468 31.5348 166.453C31.5087 166.542 26.4216 158.417 27.6477 150.602C28.8425 142.859 35.0306 139.09 34.9784 139.074C34.9627 139.147 37.8794 146.294 37.1333 153.655Z" fill="url(#paint35_linear_58_9612)"/>
<path d="M17.7633 164.833C25.0262 169.136 31.7881 166.25 31.762 166.297C31.6838 166.271 26.9775 158.57 20.3825 154.163C13.7249 149.751 6.70728 150.441 6.68119 150.488C6.5925 150.446 10.4222 160.505 17.7633 164.828V164.833Z" fill="url(#paint36_linear_58_9612)"/>
<path d="M29.5394 137.026C27.5359 144.141 21.9427 148.559 21.9009 148.538C21.8644 148.622 18.2591 139.792 20.7635 132.347C23.221 124.976 29.9099 122.378 29.8681 122.352C29.8368 122.42 31.5117 129.958 29.5446 137.021L29.5394 137.026Z" fill="url(#paint37_linear_58_9612)"/>
<path d="M8.70422 144.508C15.0853 150.003 22.1812 148.377 22.1499 148.424C22.0821 148.388 18.7793 140.033 13.0557 134.539C7.26938 129.029 0.277844 128.448 0.246539 128.49C0.163058 128.438 2.24487 138.983 8.70422 144.508Z" fill="url(#paint38_linear_58_9612)"/>
<path d="M24.8749 119.375C21.7287 126.004 15.5198 129.335 15.4781 129.303C15.4259 129.382 13.365 120.076 17.0538 113.196C20.6905 106.379 27.6768 105.02 27.635 104.988C27.5933 105.051 27.9794 112.788 24.8749 119.375Z" fill="url(#paint39_linear_58_9612)"/>
<path d="M3.22422 122.991C8.56179 129.531 15.7829 129.202 15.7464 129.238C15.689 129.191 13.8368 120.408 9.14616 113.968C4.39296 107.506 -2.35335 105.671 -2.38988 105.708C-2.46292 105.645 -2.18639 116.409 3.22422 122.991Z" fill="url(#paint40_linear_58_9612)"/>
<path d="M23.2596 101.144C19.0699 107.125 12.4331 109.278 12.3966 109.247C12.334 109.315 11.8644 99.7742 16.6489 93.6262C21.3708 87.5305 28.4458 87.4364 28.4093 87.3945C28.3571 87.452 27.4023 95.1998 23.2596 101.144Z" fill="url(#paint41_linear_58_9612)"/>
<path d="M1.45125 100.809C5.57834 108.222 12.7108 109.195 12.6638 109.226C12.6168 109.168 12.2673 100.182 8.77149 92.9619C5.22355 85.7056 -1.05318 82.6682 -1.10014 82.6996C-1.16275 82.6264 -2.74368 93.3436 1.45125 100.809Z" fill="url(#paint42_linear_58_9612)"/>
<path d="M24.7833 82.7875C19.644 87.9736 12.7829 88.9094 12.7516 88.8676C12.6733 88.9251 13.8577 79.3842 19.6388 74.1197C25.3468 68.897 32.3018 70.0576 32.2705 70.0158C32.2027 70.0628 29.8652 77.6276 24.7833 82.7875Z" fill="url(#paint43_linear_58_9612)"/>
<path d="M3.50393 78.541C6.25359 86.6442 13.073 88.8817 13.0208 88.9079C12.979 88.8452 14.1843 79.8741 12.0503 72.0532C9.87458 64.1904 4.297 60.029 4.24483 60.0552C4.19265 59.9715 0.696884 70.375 3.50915 78.541H3.50393Z" fill="url(#paint44_linear_58_9612)"/>
<path d="M29.573 64.7785C23.5832 69.0445 16.7117 68.7413 16.6856 68.6994C16.5969 68.7465 19.4822 59.4409 26.1607 55.1906C32.7557 50.9717 39.3716 53.3556 39.3455 53.3085C39.2672 53.3451 35.4949 60.5335 29.573 64.7785Z" fill="url(#paint45_linear_58_9612)"/>
<path d="M9.52125 56.7191C10.7161 65.3033 17.0032 68.7537 16.9406 68.7694C16.9093 68.7014 19.7059 59.9708 19.1164 51.7526C18.485 43.4873 13.8414 38.3169 13.7788 38.3326C13.7318 38.2438 8.27425 48.0617 9.52647 56.7191H9.52125Z" fill="url(#paint46_linear_58_9612)"/>
<path d="M37.7325 47.541C30.9966 50.777 24.3234 49.2505 24.3025 49.2034C24.1982 49.24 28.847 40.4101 36.3186 37.2786C43.7014 34.168 49.759 37.7178 49.7381 37.6655C49.6442 37.6916 44.3901 44.3101 37.7325 47.5357V47.541Z" fill="url(#paint47_linear_58_9612)"/>
<path d="M19.6247 35.9136C19.0873 44.754 24.6075 49.3179 24.5397 49.3284C24.5188 49.2552 28.959 40.9847 30.0807 32.5939C31.1712 24.1509 27.6963 18.1127 27.6285 18.1179C27.592 18.0238 20.1152 26.9949 19.6247 35.9084V35.9136Z" fill="url(#paint48_linear_58_9612)"/>
<path d="M49.374 31.5713C41.9963 33.6886 35.7405 30.9806 35.73 30.9335C35.6152 30.9545 42.0746 22.8408 50.2349 20.9274C58.296 19.0192 63.5657 23.6354 63.5501 23.5831C63.4457 23.5936 56.6629 29.4488 49.374 31.5713Z" fill="url(#paint49_linear_58_9612)"/>
<path d="M33.9363 16.6883C31.4893 25.5392 36.0077 31.1016 35.9294 31.1016C35.919 31.0284 42.0496 23.4428 45.0654 15.1147C48.0551 6.72922 45.9941 0.000932286 45.9211 0.000932286C45.895 -0.0983975 36.3416 7.75389 33.9363 16.6883Z" fill="url(#paint50_linear_58_9612)"/>
<path d="M129.29 217.192L129.144 215.572C115.73 216.79 102.357 215.289 89.4017 211.123C76.7752 207.061 65.0879 200.646 54.6579 192.062C33.0155 174.245 19.0585 148.817 15.3592 120.461C12.3278 97.2436 13.8827 76.5516 19.982 58.965C26.53 40.0767 38.1861 25.3027 54.6371 15.0403L53.7762 13.6602C37.0069 24.1212 25.1213 39.1879 18.448 58.4318C12.2652 76.2589 10.6895 97.2018 13.7522 120.675C17.5089 149.439 31.6693 175.238 53.6353 193.322C64.2217 202.042 76.0917 208.55 88.9165 212.675C102.086 216.91 115.672 218.431 129.306 217.197L129.29 217.192Z" fill="url(#paint51_linear_58_9612)"/>
<path d="M126.621 208.895L114.334 217.949L126.621 226.999L138.904 217.949L126.621 208.895Z" fill="url(#paint52_linear_58_9612)"/>
<path d="M118.516 81.9437C121.61 82.8504 124.036 84.5037 125.796 86.9037C127.556 89.3037 128.436 92.1837 128.436 95.5437C128.436 100.93 126.383 105.277 122.276 108.584C118.116 111.944 112.303 113.624 104.836 113.624C96.5165 113.624 90.2231 111.704 85.9565 107.864C81.7431 104.024 79.6098 98.5304 79.5565 91.3837H94.8365C94.8365 94.6904 95.5831 97.0637 97.0765 98.5037C98.5698 99.8904 100.943 100.584 104.196 100.584C106.703 100.584 108.623 100.05 109.956 98.9837C111.343 97.9171 112.036 96.4771 112.036 94.6637C112.036 92.4237 111.343 90.8237 109.956 89.8637C108.623 88.8504 106.543 88.3437 103.716 88.3437H99.4765V77.3837H104.116C106.73 77.3837 108.65 76.9304 109.876 76.0237C111.103 75.1171 111.716 73.6504 111.716 71.6237C111.716 69.9704 111.076 68.6904 109.796 67.7837C108.57 66.8237 106.81 66.3437 104.516 66.3437C101.903 66.3437 99.9565 66.8504 98.6765 67.8637C97.4498 68.8771 96.7565 70.5837 96.5965 72.9837H81.3165C81.5831 66.6371 83.6098 61.9171 87.3965 58.8237C91.2365 55.6771 96.9965 54.1037 104.676 54.1037C111.556 54.1037 116.97 55.5437 120.916 58.4237C124.863 61.2504 126.836 65.0904 126.836 69.9437C126.836 72.5037 126.09 74.8771 124.596 77.0637C123.103 79.1971 121.076 80.8237 118.516 81.9437ZM150.678 99.3037H178.998V112.344H132.678L132.998 106.584C133.264 102.424 133.931 98.9304 134.998 96.1037C135.691 94.1304 136.678 92.3437 137.958 90.7437C140.944 87.1171 145.424 84.2371 151.398 82.1037L154.838 80.9037C157.771 79.8904 159.824 78.7971 160.998 77.6237C162.224 76.4504 162.838 74.9304 162.838 73.0637C162.838 69.1171 160.571 67.1438 156.038 67.1438C153.531 67.1438 151.691 67.8104 150.518 69.1437C149.344 70.4237 148.758 72.4237 148.758 75.1437H133.558C133.504 68.5304 135.398 63.3837 139.238 59.7037C143.078 55.9704 148.811 54.1037 156.438 54.1037C163.424 54.1037 168.891 55.7037 172.838 58.9037C176.731 62.1571 178.678 66.3171 178.678 71.3837C178.678 76.6104 177.264 80.7171 174.438 83.7037C171.451 86.7437 166.971 89.4904 160.998 91.9437L156.758 93.7037C154.624 94.5571 153.131 95.3837 152.278 96.1837C151.424 96.9837 150.891 98.0237 150.678 99.3037Z" fill="url(#paint53_linear_58_9612)"/>
<path d="M106.986 142.423V159.511H117.066V165.207H100.586V142.423H106.986ZM118.992 142.423H129.68C132.411 142.423 134.544 143.138 136.08 144.567C137.637 145.975 138.416 147.906 138.416 150.359C138.416 152.812 137.637 154.754 136.08 156.183C134.544 157.591 132.411 158.295 129.68 158.295H125.392V165.207H118.992V142.423ZM125.392 152.919H129.2C130.096 152.919 130.789 152.706 131.28 152.279C131.792 151.831 132.048 151.191 132.048 150.359C132.048 149.527 131.792 148.898 131.28 148.471C130.789 148.023 130.096 147.799 129.2 147.799H125.392V152.919ZM160.173 165.207H153.389L152.429 162.231H143.501L142.541 165.207H136.013L144.109 142.423H151.789L160.173 165.207ZM146.829 151.703L145.165 156.951H150.701L149.005 151.703C148.408 149.868 148.045 148.663 147.917 148.087C147.384 149.858 147.021 151.063 146.829 151.703Z" fill="url(#paint54_linear_58_9612)"/>
</g>
<defs>
<linearGradient id="paint0_linear_58_9612" x1="196.733" y1="0.121094" x2="196.733" y2="19.3022" gradientUnits="userSpaceOnUse">
<stop stop-color="#6DC0EB"/>
<stop offset="1" stop-color="#2884CA"/>
</linearGradient>
<linearGradient id="paint1_linear_58_9612" x1="163.484" y1="190.746" x2="163.484" y2="214.87" gradientUnits="userSpaceOnUse">
<stop stop-color="#6DC0EB"/>
<stop offset="1" stop-color="#2884CA"/>
</linearGradient>
<linearGradient id="paint2_linear_58_9612" x1="170.396" y1="212.559" x2="170.396" y2="223.361" gradientUnits="userSpaceOnUse">
<stop stop-color="#6DC0EB"/>
<stop offset="1" stop-color="#2884CA"/>
</linearGradient>
<linearGradient id="paint3_linear_58_9612" x1="182.361" y1="180.969" x2="182.361" y2="207.251" gradientUnits="userSpaceOnUse">
<stop stop-color="#6DC0EB"/>
<stop offset="1" stop-color="#2884CA"/>
</linearGradient>
<linearGradient id="paint4_linear_58_9612" x1="191.168" y1="202.105" x2="191.168" y2="213.063" gradientUnits="userSpaceOnUse">
<stop stop-color="#6DC0EB"/>
<stop offset="1" stop-color="#2884CA"/>
</linearGradient>
<linearGradient id="paint5_linear_58_9612" x1="198.438" y1="168.805" x2="198.438" y2="196.304" gradientUnits="userSpaceOnUse">
<stop stop-color="#6DC0EB"/>
<stop offset="1" stop-color="#2884CA"/>
</linearGradient>
<linearGradient id="paint6_linear_58_9612" x1="208.935" y1="187.895" x2="208.935" y2="199.944" gradientUnits="userSpaceOnUse">
<stop stop-color="#6DC0EB"/>
<stop offset="1" stop-color="#2884CA"/>
</linearGradient>
<linearGradient id="paint7_linear_58_9612" x1="211.613" y1="154.703" x2="211.613" y2="182.548" gradientUnits="userSpaceOnUse">
<stop stop-color="#6DC0EB"/>
<stop offset="1" stop-color="#2884CA"/>
</linearGradient>
<linearGradient id="paint8_linear_58_9612" x1="223.586" y1="170.496" x2="223.586" y2="184.493" gradientUnits="userSpaceOnUse">
<stop stop-color="#6DC0EB"/>
<stop offset="1" stop-color="#2884CA"/>
</linearGradient>
<linearGradient id="paint9_linear_58_9612" x1="221.839" y1="139.074" x2="221.839" y2="166.453" gradientUnits="userSpaceOnUse">
<stop stop-color="#6DC0EB"/>
<stop offset="1" stop-color="#2884CA"/>
</linearGradient>
<linearGradient id="paint10_linear_58_9612" x1="234.979" y1="150.422" x2="234.979" y2="167.201" gradientUnits="userSpaceOnUse">
<stop stop-color="#6DC0EB"/>
<stop offset="1" stop-color="#2884CA"/>
</linearGradient>
<linearGradient id="paint11_linear_58_9612" x1="229.006" y1="122.352" x2="229.006" y2="148.539" gradientUnits="userSpaceOnUse">
<stop stop-color="#6DC0EB"/>
<stop offset="1" stop-color="#2884CA"/>
</linearGradient>
<linearGradient id="paint12_linear_58_9612" x1="243.002" y1="128.488" x2="243.002" y2="148.614" gradientUnits="userSpaceOnUse">
<stop stop-color="#6DC0EB"/>
<stop offset="1" stop-color="#2884CA"/>
</linearGradient>
<linearGradient id="paint13_linear_58_9612" x1="232.94" y1="104.988" x2="232.94" y2="129.304" gradientUnits="userSpaceOnUse">
<stop stop-color="#6DC0EB"/>
<stop offset="1" stop-color="#2884CA"/>
</linearGradient>
<linearGradient id="paint14_linear_58_9612" x1="247.52" y1="105.703" x2="247.52" y2="129.24" gradientUnits="userSpaceOnUse">
<stop stop-color="#6DC0EB"/>
<stop offset="1" stop-color="#2884CA"/>
</linearGradient>
<linearGradient id="paint15_linear_58_9612" x1="233.818" y1="87.3945" x2="233.818" y2="109.247" gradientUnits="userSpaceOnUse">
<stop stop-color="#6DC0EB"/>
<stop offset="1" stop-color="#2884CA"/>
</linearGradient>
<linearGradient id="paint16_linear_58_9612" x1="248.593" y1="82.6992" x2="248.593" y2="109.226" gradientUnits="userSpaceOnUse">
<stop stop-color="#6DC0EB"/>
<stop offset="1" stop-color="#2884CA"/>
</linearGradient>
<linearGradient id="paint17_linear_58_9612" x1="231.683" y1="69.9336" x2="231.683" y2="88.8689" gradientUnits="userSpaceOnUse">
<stop stop-color="#6DC0EB"/>
<stop offset="1" stop-color="#2884CA"/>
</linearGradient>
<linearGradient id="paint18_linear_58_9612" x1="246.317" y1="60.0547" x2="246.317" y2="88.9079" gradientUnits="userSpaceOnUse">
<stop stop-color="#6DC0EB"/>
<stop offset="1" stop-color="#2884CA"/>
</linearGradient>
<linearGradient id="paint19_linear_58_9612" x1="226.181" y1="52.6758" x2="226.181" y2="68.7159" gradientUnits="userSpaceOnUse">
<stop stop-color="#6DC0EB"/>
<stop offset="1" stop-color="#2884CA"/>
</linearGradient>
<linearGradient id="paint20_linear_58_9612" x1="239.929" y1="38.332" x2="239.929" y2="68.7694" gradientUnits="userSpaceOnUse">
<stop stop-color="#6DC0EB"/>
<stop offset="1" stop-color="#2884CA"/>
</linearGradient>
<linearGradient id="paint21_linear_58_9612" x1="217.18" y1="36.0078" x2="217.18" y2="49.6117" gradientUnits="userSpaceOnUse">
<stop stop-color="#6DC0EB"/>
<stop offset="1" stop-color="#2884CA"/>
</linearGradient>
<linearGradient id="paint22_linear_58_9612" x1="229.26" y1="18.1172" x2="229.26" y2="49.3284" gradientUnits="userSpaceOnUse">
<stop stop-color="#6DC0EB"/>
<stop offset="1" stop-color="#2884CA"/>
</linearGradient>
<linearGradient id="paint23_linear_58_9612" x1="204.555" y1="20.4648" x2="204.555" y2="32.3793" gradientUnits="userSpaceOnUse">
<stop stop-color="#6DC0EB"/>
<stop offset="1" stop-color="#2884CA"/>
</linearGradient>
<linearGradient id="paint24_linear_58_9612" x1="214.243" y1="0" x2="214.243" y2="31.1016" gradientUnits="userSpaceOnUse">
<stop stop-color="#6DC0EB"/>
<stop offset="1" stop-color="#2884CA"/>
</linearGradient>
<linearGradient id="paint25_linear_58_9612" x1="183.426" y1="13.6602" x2="183.426" y2="217.612" gradientUnits="userSpaceOnUse">
<stop stop-color="#6DC0EB"/>
<stop offset="1" stop-color="#2884CA"/>
</linearGradient>
<linearGradient id="paint26_linear_58_9612" x1="57.4613" y1="0.121094" x2="57.4613" y2="19.3022" gradientUnits="userSpaceOnUse">
<stop stop-color="#6DC0EB"/>
<stop offset="1" stop-color="#2884CA"/>
</linearGradient>
<linearGradient id="paint27_linear_58_9612" x1="90.7047" y1="190.742" x2="90.7047" y2="214.866" gradientUnits="userSpaceOnUse">
<stop stop-color="#6DC0EB"/>
<stop offset="1" stop-color="#2884CA"/>
</linearGradient>
<linearGradient id="paint28_linear_58_9612" x1="83.8004" y1="212.559" x2="83.8004" y2="223.361" gradientUnits="userSpaceOnUse">
<stop stop-color="#6DC0EB"/>
<stop offset="1" stop-color="#2884CA"/>
</linearGradient>
<linearGradient id="paint29_linear_58_9612" x1="71.8297" y1="180.969" x2="71.8297" y2="207.251" gradientUnits="userSpaceOnUse">
<stop stop-color="#6DC0EB"/>
<stop offset="1" stop-color="#2884CA"/>
</linearGradient>
<linearGradient id="paint30_linear_58_9612" x1="63.0255" y1="202.105" x2="63.0255" y2="213.063" gradientUnits="userSpaceOnUse">
<stop stop-color="#6DC0EB"/>
<stop offset="1" stop-color="#2884CA"/>
</linearGradient>
<linearGradient id="paint31_linear_58_9612" x1="55.7488" y1="168.805" x2="55.7488" y2="196.304" gradientUnits="userSpaceOnUse">
<stop stop-color="#6DC0EB"/>
<stop offset="1" stop-color="#2884CA"/>
</linearGradient>
<linearGradient id="paint32_linear_58_9612" x1="45.2534" y1="187.895" x2="45.2534" y2="199.944" gradientUnits="userSpaceOnUse">
<stop stop-color="#6DC0EB"/>
<stop offset="1" stop-color="#2884CA"/>
</linearGradient>
<linearGradient id="paint33_linear_58_9612" x1="42.59" y1="154.703" x2="42.59" y2="182.548" gradientUnits="userSpaceOnUse">
<stop stop-color="#6DC0EB"/>
<stop offset="1" stop-color="#2884CA"/>
</linearGradient>
<linearGradient id="paint34_linear_58_9612" x1="30.6176" y1="170.492" x2="30.6176" y2="184.489" gradientUnits="userSpaceOnUse">
<stop stop-color="#6DC0EB"/>
<stop offset="1" stop-color="#2884CA"/>
</linearGradient>
<linearGradient id="paint35_linear_58_9612" x1="32.3562" y1="139.074" x2="32.3562" y2="166.453" gradientUnits="userSpaceOnUse">
<stop stop-color="#6DC0EB"/>
<stop offset="1" stop-color="#2884CA"/>
</linearGradient>
<linearGradient id="paint36_linear_58_9612" x1="19.2209" y1="150.422" x2="19.2209" y2="167.201" gradientUnits="userSpaceOnUse">
<stop stop-color="#6DC0EB"/>
<stop offset="1" stop-color="#2884CA"/>
</linearGradient>
<linearGradient id="paint37_linear_58_9612" x1="25.1911" y1="122.352" x2="25.1911" y2="148.539" gradientUnits="userSpaceOnUse">
<stop stop-color="#6DC0EB"/>
<stop offset="1" stop-color="#2884CA"/>
</linearGradient>
<linearGradient id="paint38_linear_58_9612" x1="11.1971" y1="128.488" x2="11.1971" y2="148.614" gradientUnits="userSpaceOnUse">
<stop stop-color="#6DC0EB"/>
<stop offset="1" stop-color="#2884CA"/>
</linearGradient>
<linearGradient id="paint39_linear_58_9612" x1="21.2463" y1="104.988" x2="21.2463" y2="129.304" gradientUnits="userSpaceOnUse">
<stop stop-color="#6DC0EB"/>
<stop offset="1" stop-color="#2884CA"/>
</linearGradient>
<linearGradient id="paint40_linear_58_9612" x1="6.67404" y1="105.707" x2="6.67404" y2="129.238" gradientUnits="userSpaceOnUse">
<stop stop-color="#6DC0EB"/>
<stop offset="1" stop-color="#2884CA"/>
</linearGradient>
<linearGradient id="paint41_linear_58_9612" x1="20.3825" y1="87.3945" x2="20.3825" y2="109.247" gradientUnits="userSpaceOnUse">
<stop stop-color="#6DC0EB"/>
<stop offset="1" stop-color="#2884CA"/>
</linearGradient>
<linearGradient id="paint42_linear_58_9612" x1="5.61033" y1="82.6992" x2="5.61033" y2="109.226" gradientUnits="userSpaceOnUse">
<stop stop-color="#6DC0EB"/>
<stop offset="1" stop-color="#2884CA"/>
</linearGradient>
<linearGradient id="paint43_linear_58_9612" x1="22.5093" y1="69.9336" x2="22.5093" y2="88.8689" gradientUnits="userSpaceOnUse">
<stop stop-color="#6DC0EB"/>
<stop offset="1" stop-color="#2884CA"/>
</linearGradient>
<linearGradient id="paint44_linear_58_9612" x1="7.86926" y1="60.0547" x2="7.86926" y2="88.9079" gradientUnits="userSpaceOnUse">
<stop stop-color="#6DC0EB"/>
<stop offset="1" stop-color="#2884CA"/>
</linearGradient>
<linearGradient id="paint45_linear_58_9612" x1="28.0146" y1="52.6797" x2="28.0146" y2="68.7198" gradientUnits="userSpaceOnUse">
<stop stop-color="#6DC0EB"/>
<stop offset="1" stop-color="#2884CA"/>
</linearGradient>
<linearGradient id="paint46_linear_58_9612" x1="14.2689" y1="38.332" x2="14.2689" y2="68.7694" gradientUnits="userSpaceOnUse">
<stop stop-color="#6DC0EB"/>
<stop offset="1" stop-color="#2884CA"/>
</linearGradient>
<linearGradient id="paint47_linear_58_9612" x1="37.0195" y1="36" x2="37.0195" y2="49.6039" gradientUnits="userSpaceOnUse">
<stop stop-color="#6DC0EB"/>
<stop offset="1" stop-color="#2884CA"/>
</linearGradient>
<linearGradient id="paint48_linear_58_9612" x1="24.9401" y1="18.1172" x2="24.9401" y2="49.3284" gradientUnits="userSpaceOnUse">
<stop stop-color="#6DC0EB"/>
<stop offset="1" stop-color="#2884CA"/>
</linearGradient>
<linearGradient id="paint49_linear_58_9612" x1="49.6393" y1="20.4648" x2="49.6393" y2="32.3793" gradientUnits="userSpaceOnUse">
<stop stop-color="#6DC0EB"/>
<stop offset="1" stop-color="#2884CA"/>
</linearGradient>
<linearGradient id="paint50_linear_58_9612" x1="39.945" y1="0" x2="39.945" y2="31.1016" gradientUnits="userSpaceOnUse">
<stop stop-color="#6DC0EB"/>
<stop offset="1" stop-color="#2884CA"/>
</linearGradient>
<linearGradient id="paint51_linear_58_9612" x1="70.77" y1="13.6602" x2="70.77" y2="217.612" gradientUnits="userSpaceOnUse">
<stop stop-color="#6DC0EB"/>
<stop offset="1" stop-color="#2884CA"/>
</linearGradient>
<linearGradient id="paint52_linear_58_9612" x1="126.619" y1="208.895" x2="126.619" y2="226.999" gradientUnits="userSpaceOnUse">
<stop stop-color="#6DC0EB"/>
<stop offset="1" stop-color="#2884CA"/>
</linearGradient>
<linearGradient id="paint53_linear_58_9612" x1="129.5" y1="53.3438" x2="129.5" y2="110.995" gradientUnits="userSpaceOnUse">
<stop stop-color="#6DC0EB"/>
<stop offset="1" stop-color="#2884CA"/>
</linearGradient>
<linearGradient id="paint54_linear_58_9612" x1="129.501" y1="124.207" x2="129.501" y2="181.858" gradientUnits="userSpaceOnUse">
<stop stop-color="#6DC0EB"/>
<stop offset="1" stop-color="#2884CA"/>
</linearGradient>
<clipPath id="clip0_58_9612">
<rect width="259" height="227" fill="white"/>
</clipPath>
</defs>
</svg>
